<svg width="54" height="62" viewBox="0 0 54 62" fill="none" xmlns="http://www.w3.org/2000/svg">
<path d="M52.4843 5.97889C51.6288 4.97285 50.3811 4.39608 49.0613 4.39608H44.7294V3.04103C44.7294 1.36424 43.3651 0 41.6884 0H12.312C10.6351 0 9.27107 1.36424 9.27107 3.04091V4.39595H4.93869C3.61888 4.39595 2.37113 4.97285 1.51572 5.97877C0.669034 6.97429 0.303088 8.28186 0.511975 9.56606C1.65026 16.5653 6.05505 22.7487 12.3065 26.1404C12.8777 27.5138 13.5246 28.8146 14.245 30.0265C16.546 33.8984 19.4066 36.5744 22.5553 37.8685C22.8744 41.0949 20.7275 44.1515 17.4943 44.8799C17.4874 44.8814 17.4826 44.8839 17.4758 44.8854C16.8448 45.0362 16.375 45.6024 16.375 46.2796V52.8626H13.7127C11.339 52.8626 9.4079 54.7937 9.4079 57.1674V60.565C9.4079 61.3576 10.0503 62 10.8429 62H43.2945C44.087 62 44.7294 61.3576 44.7294 60.565V57.1674C44.7294 54.7937 42.7984 52.8626 40.4247 52.8626H37.7621V46.2797C37.7621 45.6012 37.2906 45.0341 36.6579 44.8847C36.652 44.8832 36.6463 44.8813 36.6404 44.8799C33.3827 44.1466 31.2318 41.0593 31.5845 37.8087C34.6782 36.4936 37.4886 33.8415 39.7558 30.0267C40.4761 28.8147 41.1229 27.5138 41.6942 26.1402C47.9453 22.7484 52.3499 16.5651 53.4882 9.56606C53.6971 8.28186 53.3311 6.97441 52.4843 5.97889ZM3.34461 9.1053C3.27001 8.64672 3.3968 8.19661 3.70171 7.83793C4.01111 7.47416 4.46182 7.26564 4.93857 7.26564H9.27095V9.90573C9.27095 14.0455 9.79928 18.0554 10.8006 21.7224C6.86554 18.6129 4.15618 14.0957 3.34461 9.1053ZM40.4247 55.7327C41.2159 55.7327 41.8596 56.3764 41.8596 57.1676V59.1303H12.2777V57.1676C12.2777 56.3764 12.9214 55.7327 13.7127 55.7327H40.4247ZM34.8921 47.7147V52.8627H19.2452V47.7147H34.8921ZM23.0085 44.8449C23.3631 44.4544 23.6874 44.0312 23.9774 43.5782C24.9337 42.084 25.4357 40.3865 25.4582 38.6528C25.9679 38.7222 26.4823 38.7594 27.001 38.7594C27.5655 38.7594 28.1247 38.716 28.6784 38.6339C28.7111 40.9637 29.6179 43.1689 31.1426 44.8447H23.0085V44.8449ZM41.8594 9.90585C41.8594 16.9752 40.236 23.6003 37.2885 28.5603C34.4801 33.2866 30.8264 35.8895 27.0008 35.8895C23.1746 35.8895 19.5207 33.2867 16.7119 28.5605C13.7643 23.6004 12.1409 16.9753 12.1409 9.90609V3.04091C12.1409 2.94646 12.2176 2.86981 12.3119 2.86981H41.6882C41.7826 2.86981 41.8594 2.94658 41.8594 3.04091V9.90585ZM50.6555 9.1053C49.844 14.0953 47.1349 18.6124 43.1999 21.7222C44.2011 18.0551 44.7294 14.0455 44.7294 9.90585V7.26576H49.0613C49.5382 7.26576 49.9889 7.4744 50.2982 7.83805C50.6031 8.19661 50.73 8.64672 50.6555 9.1053Z" fill="white"/>
<path d="M35.7117 14.7321C35.5427 14.2128 35.0937 13.8343 34.5533 13.7555L30.2232 13.1263L28.2868 9.20266C28.045 8.71295 27.5462 8.40283 27 8.40283C26.4538 8.40283 25.955 8.71295 25.7133 9.20266L23.7769 13.1263L19.4468 13.7555C18.9062 13.834 18.4572 14.2127 18.2884 14.7322C18.1197 15.2518 18.2604 15.8219 18.6516 16.2032L21.7849 19.2573L21.0451 23.5699C20.9527 24.1082 21.174 24.6522 21.616 24.9733C22.0577 25.2944 22.6437 25.3366 23.1271 25.0826L27 23.0466L30.8729 25.0826C31.0828 25.1929 31.3121 25.2472 31.5403 25.2472C31.8377 25.2472 32.1339 25.1549 32.3839 24.9732C32.8259 24.6521 33.0471 24.1081 32.9547 23.5697L32.215 19.2572L35.3483 16.2031C35.7396 15.8219 35.8804 15.2517 35.7117 14.7321ZM29.6719 17.7288C29.3336 18.0584 29.1792 18.5333 29.2592 18.9989L29.6348 21.1895L27.6676 20.1552C27.4587 20.0453 27.2293 19.9906 26.9999 19.9906C26.7706 19.9906 26.5412 20.0455 26.3322 20.1552L24.365 21.1895L24.7407 18.9989C24.8206 18.5334 24.6662 18.0585 24.328 17.7288L22.7367 16.1776L24.936 15.8579C25.4033 15.7901 25.8074 15.4964 26.0164 15.0729L27 13.08L27.9836 15.0729C28.1927 15.4964 28.5965 15.7899 29.064 15.8579L31.2633 16.1776L29.6719 17.7288Z" fill="white"/>
</svg>
