<svg width="203" height="203" viewBox="0 0 203 203" fill="none" xmlns="http://www.w3.org/2000/svg">
<circle cx="101.5" cy="101.5" r="101.5" fill="url(#paint0_linear_265_409)"/>
<path d="M107.516 111.832V93.592C107.516 92.472 107.548 91.272 107.612 89.992C107.708 88.68 107.836 87.32 107.996 85.912L89.5163 111.832H107.516ZM127.676 111.832V120.184C127.676 120.92 127.42 121.56 126.908 122.104C126.428 122.648 125.724 122.92 124.796 122.92H120.476V139H107.516V122.92H79.3883C78.4603 122.92 77.6123 122.632 76.8443 122.056C76.1083 121.48 75.6443 120.76 75.4523 119.896L73.9162 112.552L106.268 69.064H120.476V111.832H127.676Z" fill="white"/>
<defs>
<linearGradient id="paint0_linear_265_409" x1="182.5" y1="25.5" x2="58.5" y2="203" gradientUnits="userSpaceOnUse">
<stop stop-color="#1B459C"/>
<stop offset="1" stop-color="#091836"/>
</linearGradient>
</defs>
</svg>
