<svg width="203" height="203" viewBox="0 0 203 203" fill="none" xmlns="http://www.w3.org/2000/svg">
<circle cx="101.5" cy="101.5" r="101.5" fill="url(#paint0_linear_265_402)"/>
<path d="M124.604 128.248V139H84.7643V128.248H98.2043V92.968C98.2043 92.072 98.2203 91.176 98.2523 90.28C98.2843 89.352 98.3323 88.424 98.3962 87.496L90.4283 94.12C89.7243 94.664 89.0203 95 88.3163 95.128C87.6443 95.224 87.0043 95.224 86.3963 95.128C85.7883 95 85.2443 94.792 84.7643 94.504C84.2843 94.184 83.9323 93.864 83.7083 93.544L79.0043 87.304L100.796 69.016H113.084V128.248H124.604Z" fill="white"/>
<defs>
<linearGradient id="paint0_linear_265_402" x1="182.5" y1="25.5" x2="58.5" y2="203" gradientUnits="userSpaceOnUse">
<stop stop-color="#1B459C"/>
<stop offset="1" stop-color="#091836"/>
</linearGradient>
</defs>
</svg>
