<svg width="284" height="184" viewBox="0 0 284 184" fill="none" xmlns="http://www.w3.org/2000/svg">
<mask id="mask0_41_953" style="mask-type:alpha" maskUnits="userSpaceOnUse" x="0" y="41" width="248" height="128">
<rect y="41" width="248" height="128" rx="15" fill="#D7BAE0"/>
</mask>
<g mask="url(#mask0_41_953)">
<path d="M73.9798 169.45C73.9916 171.091 72.7118 172.452 71.1097 172.463C69.5154 172.475 68.2086 171.148 68.1967 169.499C68.1771 167.85 69.4648 166.504 71.0591 166.493C72.6612 166.481 73.9679 167.793 73.9798 169.45Z" fill="url(#paint0_linear_41_953)"/>
<path d="M68.9563 169.704C69.011 169.704 68.9307 170.486 69.7666 171.543C70.5164 172.569 72.6505 173.734 74.8931 172.592C76.9869 171.421 78.0813 168.185 77.1183 164.675C76.4514 161.038 75.4451 156.935 74.4984 152.432C73.5284 147.938 72.4852 143.053 71.518 137.863C70.5976 132.657 69.5032 127.178 69.1567 121.351C69.0289 119.882 68.8932 118.391 68.7574 116.891C68.6213 115.36 68.4847 113.744 68.8708 111.998L68.9387 111.669C68.9538 111.591 68.946 111.591 68.9842 111.466L69.0301 111.333C69.0835 111.152 69.1292 110.988 69.2291 110.745C69.4055 110.275 69.5901 109.867 69.837 109.42C70.3626 108.611 71.1359 107.465 72.8996 107.108C73.774 106.992 74.6524 107.424 75.1018 107.968C75.5746 108.519 75.9471 109.235 76.145 109.594C76.6838 110.613 77.0156 111.119 77.2714 111.914C78.4418 114.923 78.3416 118.385 78.1392 121.763C77.9136 125.18 76.5225 128.449 74.5647 131.151C73.6211 132.533 72.5282 133.784 71.3721 134.957C71.0851 135.256 70.7823 135.531 70.4872 135.799L69.711 136.531C69.1208 137.059 68.6398 137.547 68.1899 138.019C66.305 139.995 64.5938 142.219 63.6264 144.633C62.6668 147.046 62.5605 149.665 63.5694 151.948C64.5549 154.238 66.5921 156.06 68.8979 157.2C73.5178 159.535 79.4545 159.149 83.4992 156.486C85.5452 155.174 86.8971 152.976 87.131 150.716C87.3492 148.456 86.6537 146.273 85.5399 144.624C83.2962 141.248 79.7324 140.141 76.8147 140.857C73.8737 141.597 71.8035 143.886 70.9596 146.088C70.0456 148.322 70.1467 150.439 70.313 151.821C70.5105 153.219 70.727 153.983 70.727 153.983C70.727 153.983 70.6243 153.82 70.4188 153.501C70.2134 153.19 69.9285 152.699 69.6345 152.022C69.0544 150.682 68.3504 148.42 68.9465 145.454C69.5355 142.582 71.7998 139.017 75.9636 137.698C77.983 137.035 80.4526 137.048 82.6634 138.009C84.9523 138.97 86.834 140.902 87.8981 143.263C88.9778 145.607 89.3728 148.379 88.7353 151.033C88.1683 153.694 86.4816 156.066 84.2579 157.661C79.684 160.648 73.7118 161.527 67.9844 159.505C65.1713 158.462 62.4219 156.489 60.7591 153.469C59.0573 150.472 58.8498 146.605 59.8267 143.331C60.7642 140.019 62.4314 137.099 64.5154 134.552C65.0498 133.877 65.5767 133.255 66.0731 132.72L67.5852 131.076C68.5236 130.069 69.3676 128.977 70.1568 127.869C71.6645 125.592 72.9449 123.246 74.1695 120.729C75.2091 118.58 75.6997 116.154 75.6591 113.755C75.644 112.739 75.4295 111.162 74.2939 110.826C72.4849 110.308 71.7661 113.611 71.3996 114.817C70.7659 116.892 70.4691 119.106 70.5551 121.286C70.7678 126.974 71.5342 132.494 72.5481 137.652C73.5386 142.819 74.6518 147.664 75.7311 152.134C76.8025 156.605 77.762 160.708 78.4606 164.416C78.616 165.368 78.7706 166.226 78.8404 167.234C78.8862 168.179 78.7131 169.111 78.4299 169.941C77.8871 171.617 76.6226 172.924 75.2663 173.418C73.9101 173.928 72.6275 173.797 71.6014 173.468C70.5828 173.108 69.8439 172.511 69.3476 171.952C68.3545 170.787 68.2773 169.834 68.2543 169.897L68.9563 169.704Z" fill="url(#paint1_linear_41_953)"/>
<path d="M100.966 172.75L99.8507 173.094L93.2863 151.368L94.4015 151.031L100.966 172.75Z" fill="url(#paint2_linear_41_953)"/>
<path d="M175.208 90.8459C176.367 91.1034 177.026 92.5523 176.685 94.1022C176.345 95.6443 175.133 96.6846 173.982 96.4349C172.831 96.1775 172.165 94.7208 172.505 93.1787C172.846 91.6288 174.057 90.5885 175.208 90.8459Z" fill="url(#paint3_linear_41_953)"/>
<path d="M175.938 91.1771L175.481 91.8056L163.436 82.9433L163.893 82.3304L175.938 91.1771Z" fill="url(#paint4_linear_41_953)"/>
<path d="M114.398 155.077C114.946 156.308 114.059 157.885 112.423 158.616C110.779 159.347 109.01 158.945 108.462 157.714C107.914 156.483 108.801 154.898 110.437 154.167C112.081 153.437 113.85 153.846 114.398 155.077Z" fill="url(#paint5_linear_41_953)"/>
<path d="M114.073 156.658C113.831 156.66 113.634 156.466 113.633 156.224L113.612 139.233C113.611 138.991 113.812 138.794 114.047 138.793C114.289 138.791 114.486 138.993 114.488 139.227L114.508 156.225C114.502 156.468 114.316 156.657 114.073 156.658Z" fill="url(#paint6_linear_41_953)"/>
<path d="M119.535 146.702C119.488 146.702 119.434 146.694 119.387 146.679C119.159 146.595 119.048 146.346 119.133 146.126C119.792 144.371 118.174 143.187 116.47 142.128L116.14 141.927C114.327 140.768 113.869 140.099 113.628 139.21C113.564 138.976 113.71 138.732 113.944 138.676C114.178 138.612 114.414 138.751 114.478 138.985C114.631 139.562 114.885 140.092 116.612 141.189L116.926 141.39C118.316 142.255 120.914 143.862 119.948 146.425C119.886 146.59 119.715 146.7 119.535 146.702Z" fill="url(#paint7_linear_41_953)"/>
<path d="M119.541 150.75C119.494 150.75 119.439 150.743 119.392 150.72C119.165 150.628 119.054 150.386 119.138 150.151C119.79 148.396 118.179 147.219 116.476 146.161L116.146 145.96C114.332 144.793 113.882 144.132 113.641 143.242C113.577 143.001 113.724 142.765 113.95 142.701C114.184 142.637 114.427 142.776 114.491 143.01C114.644 143.587 114.906 144.117 116.625 145.222L116.939 145.415C118.329 146.28 120.927 147.879 119.961 150.45C119.884 150.638 119.721 150.749 119.541 150.75Z" fill="url(#paint8_linear_41_953)"/>
<path d="M206.061 78.6988C207.207 79.4018 207.369 81.206 206.434 82.7368C205.492 84.2675 203.8 84.9361 202.654 84.2253C201.508 83.5224 201.347 81.7103 202.281 80.1874C203.224 78.6567 204.915 77.988 206.061 78.6988Z" fill="url(#paint9_linear_41_953)"/>
<path d="M206.682 80.1877C206.479 80.3298 206.206 80.277 206.071 80.0748L196.452 66.0682C196.31 65.8738 196.362 65.5999 196.564 65.4578C196.767 65.3235 197.033 65.3763 197.175 65.5707L206.794 79.5773C206.937 79.7794 206.884 80.0455 206.682 80.1877Z" fill="url(#paint10_linear_41_953)"/>
<path d="M205.569 68.8867C205.53 68.9183 205.484 68.942 205.429 68.9424C205.195 69.0066 204.959 68.8598 204.903 68.6336C204.452 66.8158 202.459 66.752 200.451 66.8445L200.068 66.8629C197.919 66.9252 197.159 66.6336 196.459 66.0369C196.278 65.8819 196.261 65.6006 196.416 65.412C196.571 65.2311 196.852 65.2056 197.033 65.3606C197.489 65.756 197.999 66.0493 200.046 65.9799L200.421 65.9694C202.062 65.8951 205.101 65.7561 205.761 68.4242C205.794 68.5959 205.717 68.7841 205.569 68.8867Z" fill="url(#paint11_linear_41_953)"/>
<path d="M207.859 72.2231C207.821 72.2547 207.766 72.2707 207.719 72.2867C207.477 72.3431 207.25 72.1962 207.185 71.9622C206.735 70.1445 204.741 70.0884 202.741 70.1731L202.351 70.1915C200.194 70.2539 199.449 69.9622 198.742 69.3655C198.553 69.2106 198.535 68.9293 198.69 68.7485C198.845 68.5676 199.127 68.5421 199.307 68.6972C199.764 69.0847 200.274 69.378 202.321 69.3242L202.688 69.306C204.329 69.2317 207.368 69.0927 208.028 71.753C208.076 71.9402 208.007 72.1205 207.859 72.2231Z" fill="url(#paint12_linear_41_953)"/>
<path d="M149.411 180.226C149.216 180.289 149.012 180.189 148.94 180.002L143.273 163.552C143.209 163.365 143.31 163.153 143.497 163.09C143.684 163.026 143.896 163.126 143.959 163.313L149.634 179.763C149.706 179.95 149.606 180.162 149.411 180.226Z" fill="url(#paint13_linear_41_953)"/>
<path d="M150.034 167.975C149.987 167.991 149.948 167.991 149.901 167.991C149.698 167.985 149.54 167.822 149.547 167.619C149.582 166.047 147.992 165.559 146.348 165.188L146.035 165.119C144.282 164.694 143.747 164.292 143.313 163.646C143.202 163.483 143.247 163.256 143.411 163.138C143.582 163.027 143.809 163.072 143.919 163.235C144.196 163.656 144.542 164.005 146.202 164.399L146.507 164.475C147.846 164.778 150.335 165.339 150.274 167.637C150.275 167.793 150.174 167.927 150.034 167.975Z" fill="url(#paint14_linear_41_953)"/>
<path d="M151.996 173.494C151.957 173.509 151.91 173.51 151.863 173.518C151.66 173.512 151.503 173.341 151.509 173.145C151.545 171.582 149.955 171.085 148.319 170.714L147.998 170.646C146.252 170.221 145.71 169.818 145.275 169.181C145.165 169.01 145.21 168.783 145.373 168.672C145.544 168.554 145.771 168.599 145.882 168.77C146.158 169.19 146.513 169.539 148.172 169.934L148.485 170.002C149.816 170.305 152.306 170.865 152.244 173.164C152.229 173.312 152.129 173.446 151.996 173.494Z" fill="url(#paint15_linear_41_953)"/>
<path d="M150.991 170.64C150.952 170.648 150.905 170.657 150.858 170.657C150.663 170.65 150.498 170.488 150.504 170.284C150.54 168.713 148.95 168.224 147.313 167.853L147 167.785C145.247 167.36 144.705 166.957 144.27 166.32C144.159 166.149 144.205 165.922 144.368 165.811C144.531 165.693 144.766 165.746 144.877 165.909C145.161 166.329 145.508 166.678 147.167 167.08L147.473 167.149C148.811 167.452 151.293 168.012 151.231 170.31C151.232 170.467 151.131 170.6 150.991 170.64Z" fill="url(#paint16_linear_41_953)"/>
<path d="M240.495 58.0623C241.092 58.4409 241.169 59.3861 240.659 60.1869C240.157 60.9798 239.268 61.3145 238.671 60.9436C238.075 60.5649 238.005 59.6119 238.508 58.8268C239.018 58.026 239.906 57.6913 240.495 58.0623Z" fill="url(#paint17_linear_41_953)"/>
<path d="M240.718 58.6394C240.609 58.7027 240.468 58.6802 240.405 58.5791L234.369 49.5096C234.298 49.4085 234.328 49.2598 234.429 49.1887C234.53 49.1255 234.679 49.1557 234.742 49.2568L240.778 58.3263C240.857 58.4274 240.827 58.5683 240.718 58.6394Z" fill="url(#paint18_linear_41_953)"/>
<path d="M239.164 51.1165C239.14 51.1323 239.117 51.1402 239.086 51.1483C238.961 51.1726 238.835 51.1032 238.811 50.9783C238.585 50.0186 237.546 49.9792 236.499 50.0101L236.295 50.0194C235.17 50.0431 234.778 49.8818 234.416 49.5561C234.322 49.4787 234.313 49.3302 234.399 49.2358C234.476 49.1415 234.624 49.1326 234.719 49.2179C234.955 49.4272 235.222 49.5816 236.292 49.5661L236.495 49.5647C237.347 49.5351 238.949 49.4846 239.272 50.889C239.28 50.9749 239.234 51.0691 239.164 51.1165Z" fill="url(#paint19_linear_41_953)"/>
<path d="M241.217 54.1497C241.202 54.1654 241.171 54.1735 241.14 54.1815C241.015 54.2137 240.897 54.1364 240.865 54.0116C240.647 53.0596 239.599 53.0124 238.552 53.0512L238.349 53.0527C237.224 53.0764 236.832 52.9151 236.47 52.5972C236.376 52.5119 236.367 52.3713 236.444 52.277C236.53 52.1826 236.678 52.1737 236.765 52.259C237.001 52.4684 237.268 52.6228 238.33 52.5995L238.533 52.5981C239.393 52.5684 240.987 52.5179 241.31 53.9146C241.334 54.0082 241.295 54.0944 241.217 54.1497Z" fill="url(#paint20_linear_41_953)"/>
<path d="M242.205 55.651C242.181 55.6668 242.158 55.6748 242.127 55.6828C242.002 55.715 241.884 55.6298 241.852 55.5128C241.634 54.5531 240.587 54.5059 239.54 54.5447L239.344 54.5539C238.211 54.5777 237.827 54.4163 237.458 54.0985C237.363 54.0132 237.354 53.8726 237.432 53.7783C237.525 53.676 237.658 53.675 237.76 53.7525C237.996 53.954 238.263 54.1162 239.325 54.0929L239.529 54.0837C240.38 54.0619 241.982 54.0035 242.305 55.4002C242.329 55.5016 242.283 55.5957 242.205 55.651Z" fill="url(#paint21_linear_41_953)"/>
<path d="M240.159 52.5864C240.136 52.6022 240.112 52.618 240.081 52.6182C239.956 52.6504 239.838 52.5731 239.806 52.4482C239.588 51.4885 238.541 51.4491 237.494 51.4801L237.291 51.4893C236.165 51.513 235.773 51.3517 235.412 51.0339C235.317 50.9486 235.308 50.808 235.386 50.7058C235.471 50.6114 235.62 50.6026 235.714 50.6878C235.95 50.8972 236.217 51.0516 237.287 51.0361L237.483 51.0347C238.334 51.0051 239.936 50.9546 240.259 52.3512C240.283 52.437 240.237 52.5311 240.159 52.5864Z" fill="url(#paint22_linear_41_953)"/>
<path d="M184.303 64.3969C184.994 64.8061 185.119 65.8681 184.578 66.7864C184.038 67.7047 183.048 68.126 182.357 67.7246C181.667 67.3153 181.55 66.2532 182.082 65.335C182.623 64.4167 183.62 63.9954 184.303 64.3969Z" fill="url(#paint23_linear_41_953)"/>
<path d="M184.752 64.8941L184.161 65.3204L178.264 57.133L178.863 56.7067L184.752 64.8941Z" fill="url(#paint24_linear_41_953)"/>
<path d="M189.698 58.2233C190.388 58.6248 190.513 59.6946 189.973 60.6129C189.432 61.5311 188.443 61.9525 187.752 61.551C187.062 61.1496 186.944 60.0797 187.477 59.1615C188.01 58.2432 189.007 57.8219 189.698 58.2233Z" fill="url(#paint25_linear_41_953)"/>
<path d="M189.989 58.4795L189.398 58.9136L183.502 50.7262L184.092 50.2999L189.989 58.4795Z" fill="url(#paint26_linear_41_953)"/>
<path d="M179.038 58.2219L184.905 51.4195L183.627 49.6468L177.712 56.3792L179.038 58.2219Z" fill="url(#paint27_linear_41_953)"/>
<path d="M184.138 56.6457L183.273 55.972L185.558 52.9935L186.43 53.6672L184.138 56.6457Z" fill="url(#paint28_linear_41_953)"/>
<path d="M208.919 56.5616C209.305 57.0434 209.108 57.8498 208.463 58.3702C207.818 58.8907 206.982 58.9201 206.596 58.4383C206.209 57.9566 206.414 57.1423 207.052 56.6297C207.696 56.1015 208.533 56.0798 208.919 56.5616Z" fill="url(#paint29_linear_41_953)"/>
<path d="M209.11 57.0372L208.564 57.1818L206.54 49.6154L207.086 49.4708L209.11 57.0372Z" fill="url(#paint30_linear_41_953)"/>
<path d="M214.54 53.5593C214.934 54.0411 214.729 54.8475 214.084 55.368C213.439 55.8884 212.603 55.9178 212.217 55.4361C211.83 54.9543 212.027 54.1479 212.672 53.6274C213.317 53.107 214.153 53.0775 214.54 53.5593Z" fill="url(#paint31_linear_41_953)"/>
<path d="M214.683 53.8244L214.137 53.969L212.105 46.4026L212.659 46.2579L214.683 53.8244Z" fill="url(#paint32_linear_41_953)"/>
<path d="M206.798 50.6219L212.94 47.2953L212.499 45.6495L206.348 48.9135L206.798 50.6219Z" fill="url(#paint33_linear_41_953)"/>
<path d="M210.941 50.8735L210.498 50.1498L212.973 48.6159L213.423 49.3473L210.941 50.8735Z" fill="url(#paint34_linear_41_953)"/>
<path d="M172.98 141.895C173.644 141.945 174.127 142.715 174.047 143.607C173.968 144.506 173.371 145.174 172.698 145.125C172.033 145.067 171.551 144.297 171.623 143.405C171.703 142.514 172.307 141.837 172.98 141.895Z" fill="url(#paint35_linear_41_953)"/>
<path d="M165.766 138.555L166.059 138.021L173.497 142.11L173.196 142.644L165.766 138.555Z" fill="url(#paint36_linear_41_953)"/>
<path d="M174.839 135.262C175.511 135.312 175.986 136.09 175.906 136.974C175.834 137.865 175.23 138.542 174.565 138.492C173.892 138.434 173.41 137.664 173.49 136.772C173.569 135.881 174.174 135.204 174.839 135.262Z" fill="url(#paint37_linear_41_953)"/>
<path d="M167.437 131.798L167.73 131.265L175.16 135.346L174.867 135.887L167.437 131.798Z" fill="url(#paint38_linear_41_953)"/>
<path d="M166.746 139.103L168.75 131.812L167.141 130.925L165.067 138.177L166.746 139.103Z" fill="url(#paint39_linear_41_953)"/>
<path d="M169.019 132.404L169.615 132.572L167.717 139.299L167.129 139.131L169.019 132.404Z" fill="url(#paint40_linear_41_953)"/>
<path d="M114.078 178.087L113.351 177.991L114.823 167.515L115.543 167.62L114.078 178.087Z" fill="url(#paint41_linear_41_953)"/>
<path d="M122.699 177.033L121.971 176.929L123.436 166.453L124.155 166.558L122.699 177.033Z" fill="url(#paint42_linear_41_953)"/>
<path d="M130.536 175.672L129.808 175.575L131.273 165.1L132 165.204L130.536 175.672Z" fill="url(#paint43_linear_41_953)"/>
<path d="M114.577 169.166L131.734 167.238L132.098 164.68L114.89 166.96L114.577 169.166Z" fill="url(#paint44_linear_41_953)"/>
<path d="M171.785 121.287C172.364 121.424 172.72 122.007 172.583 122.586C172.447 123.166 171.863 123.522 171.276 123.385C170.697 123.249 170.341 122.665 170.477 122.086C170.622 121.506 171.205 121.15 171.785 121.287Z" fill="url(#paint45_linear_41_953)"/>
<path d="M178.691 120.917L178.6 121.285L172.133 119.745C172.701 120.444 172.971 121.122 172.937 121.74C172.903 122.459 172.469 122.962 172.111 123.254L171.882 122.967C172.178 122.714 172.534 122.305 172.561 121.719C172.596 121.07 172.231 120.338 171.467 119.554C171.404 119.492 171.396 119.406 171.442 119.328C171.481 119.257 171.566 119.217 171.645 119.24L178.691 120.917Z" fill="url(#paint46_linear_41_953)"/>
<path d="M217.59 63.6894C218.199 64.6932 217.872 65.9929 216.869 66.6019C215.873 67.2108 214.565 66.8842 213.956 65.8881C213.347 64.8765 213.674 63.5768 214.678 62.9678C215.689 62.3666 216.989 62.6855 217.59 63.6894Z" fill="url(#paint47_linear_41_953)"/>
<path d="M227.62 72.8475L226.998 73.2271L220.251 62.0525C220.053 63.7655 219.499 65.0278 218.598 65.8236C217.759 66.5721 216.605 66.893 215.267 66.7541L215.333 66.0268C216.482 66.1436 217.418 65.8868 218.109 65.2722C219.041 64.4449 219.547 62.9642 219.594 60.8615C219.601 60.6973 219.709 60.5558 219.865 60.5157C220.021 60.4755 220.186 60.5446 220.273 60.6847L227.62 72.8475Z" fill="url(#paint48_linear_41_953)"/>
<path d="M220.406 68.3426C221.015 69.3464 220.688 70.6461 219.684 71.2551C218.68 71.8562 217.381 71.5373 216.78 70.5334C216.171 69.5296 216.497 68.2221 217.493 67.621C218.497 67.0198 219.805 67.3465 220.406 68.3426Z" fill="url(#paint49_linear_41_953)"/>
<path d="M220.877 70.856C220.107 71.3227 219.147 71.5093 218.067 71.3998L218.14 70.6725C219.29 70.7815 220.226 70.5325 220.917 69.9179C221.849 69.0906 222.354 67.6099 222.402 65.5072L223.137 65.5175C223.083 67.8235 222.501 69.4923 221.406 70.4615C221.243 70.6111 221.064 70.7453 220.877 70.856Z" fill="url(#paint50_linear_41_953)"/>
<path d="M184.722 84.7211C185.306 85.5297 185.126 86.6486 184.318 87.2406C183.517 87.8246 182.398 87.6451 181.806 86.8444C181.23 86.0357 181.402 84.909 182.21 84.3327C183.019 83.7408 184.145 83.9202 184.722 84.7211Z" fill="url(#paint51_linear_41_953)"/>
<path d="M193.861 91.7442L193.364 92.1072L186.86 83.1427C186.815 84.6045 186.433 85.717 185.735 86.4489C185.083 87.1413 184.124 87.492 182.983 87.4768L182.986 86.8437C183.963 86.868 184.735 86.5811 185.278 86.0145C186.015 85.2511 186.326 83.9593 186.22 82.1782C186.219 82.0453 186.296 81.9119 186.428 81.864C186.569 81.824 186.71 81.862 186.789 81.9787L193.861 91.7442Z" fill="url(#paint52_linear_41_953)"/>
<path d="M187.437 88.4608C188.021 89.2616 187.85 90.3883 187.033 90.9725C186.224 91.5566 185.113 91.377 184.521 90.5763C183.937 89.7755 184.117 88.6488 184.925 88.0568C185.726 87.4727 186.845 87.6523 187.437 88.4608Z" fill="url(#paint53_linear_41_953)"/>
<path d="M188.015 90.5512C187.4 91.0011 186.605 91.2257 185.683 91.2166L185.694 90.5913C186.671 90.6156 187.443 90.3287 187.986 89.7621C188.715 88.9909 189.034 87.6991 188.927 85.9258L189.544 85.8823C189.668 87.8509 189.287 89.2995 188.434 90.1809C188.31 90.3146 188.162 90.4408 188.015 90.5512Z" fill="url(#paint54_linear_41_953)"/>
<path d="M152.451 147.513C152.787 148.636 152.139 149.812 151.016 150.149C149.893 150.485 148.716 149.845 148.38 148.722C148.043 147.591 148.683 146.414 149.807 146.086C150.937 145.749 152.114 146.39 152.451 147.513Z" fill="url(#paint55_linear_41_953)"/>
<path d="M159.847 158.901L159.145 159.11L155.429 146.592C154.808 148.191 153.956 149.284 152.881 149.823C151.884 150.33 150.689 150.354 149.427 149.887L149.68 149.197C150.762 149.596 151.731 149.589 152.548 149.169C153.662 148.606 154.52 147.294 155.099 145.274C155.145 145.117 155.293 145.007 155.449 145.006C155.613 145.012 155.755 145.113 155.803 145.269L159.847 158.901Z" fill="url(#paint56_linear_41_953)"/>
<path d="M153.996 152.722C154.333 153.845 153.692 155.022 152.569 155.358C151.446 155.694 150.269 155.054 149.933 153.931C149.605 152.808 150.237 151.623 151.36 151.295C152.483 150.966 153.66 151.607 153.996 152.722Z" fill="url(#paint57_linear_41_953)"/>
<path d="M153.827 155.279C152.961 155.543 151.992 155.48 150.973 155.104L151.226 154.415C152.315 154.813 153.277 154.806 154.102 154.386C155.216 153.823 156.074 152.512 156.653 150.491L157.358 150.689C156.725 152.914 155.735 154.382 154.435 155.032C154.232 155.135 154.03 155.215 153.827 155.279Z" fill="url(#paint58_linear_41_953)"/>
<path d="M186.368 112.563C182.761 115.277 181.614 110.041 181.614 110.041C180.877 110.859 179.89 111.577 178.622 110.32C177.229 108.939 177.643 105.646 175.343 106.452C175.343 106.452 176.552 103.887 178.712 106.451C180.075 108.075 179.574 110.048 182.105 108.795C182.105 108.795 183.417 112.99 186.368 112.563Z" fill="url(#paint59_linear_41_953)"/>
<path d="M170.15 170.073C170.041 170.152 169.892 170.13 169.805 170.029L165.404 164.457C165.318 164.348 165.34 164.199 165.449 164.112C165.558 164.026 165.706 164.048 165.793 164.157L170.194 169.737C170.273 169.83 170.251 169.986 170.15 170.073Z" fill="url(#paint60_linear_41_953)"/>
<path d="M173.339 164.751C173.841 165.014 173.956 165.763 173.609 166.422C173.254 167.089 172.568 167.406 172.074 167.152C171.572 166.89 171.457 166.14 171.804 165.481C172.159 164.815 172.844 164.489 173.339 164.751Z" fill="url(#paint61_linear_41_953)"/>
<path d="M173.677 165.054L173.288 165.361L168.903 159.781L169.284 159.482L173.677 165.054Z" fill="url(#paint62_linear_41_953)"/>
<path d="M176.299 160.236C176.801 160.498 176.916 161.248 176.561 161.907C176.206 162.566 175.521 162.899 175.027 162.629C174.533 162.367 174.41 161.625 174.765 160.959C175.112 160.292 175.797 159.966 176.299 160.236Z" fill="url(#paint63_linear_41_953)"/>
<path d="M176.662 160.633L176.281 160.932L171.888 155.36L172.269 155.053L176.662 160.633Z" fill="url(#paint64_linear_41_953)"/>
<path d="M179.422 155.463C179.917 155.725 180.039 156.474 179.685 157.133C179.338 157.8 178.652 158.118 178.158 157.855C177.656 157.593 177.541 156.844 177.888 156.185C178.243 155.526 178.928 155.208 179.422 155.463Z" fill="url(#paint65_linear_41_953)"/>
<path d="M179.693 156.141C179.584 156.219 179.436 156.205 179.349 156.104L175.059 150.664C174.98 150.555 174.994 150.406 175.103 150.32C175.212 150.233 175.36 150.255 175.447 150.364L179.746 155.804C179.817 155.897 179.794 156.054 179.693 156.141Z" fill="url(#paint66_linear_41_953)"/>
<path d="M166.007 164.609L165.41 164.184L175.096 150.328L175.693 150.753L166.007 164.609Z" fill="url(#paint67_linear_41_953)"/>
<path d="M167.238 166.265L166.633 165.839L176.303 151.945L176.908 152.362L167.238 166.265Z" fill="url(#paint68_linear_41_953)"/>
<path d="M142.466 154.446C135.893 154.493 128.514 153.123 120.819 150.334C110.328 146.533 99.9324 140.91 88.0799 132.625C66.5744 117.595 42.7259 110.419 10.7703 109.382L10.7833 109.015C42.8171 110.059 66.7282 117.25 88.2966 132.327C100.118 140.588 110.489 146.203 120.95 149.989C135.61 155.292 149.092 155.445 157.957 150.404C164.293 146.802 168.328 140.646 169.955 132.124C171.899 121.974 171.332 111.537 170.79 101.444C170.376 93.8191 169.952 85.9367 170.608 78.2341C171.235 70.8208 174.464 60.0675 181.486 54.1402C190.155 46.8256 201.489 49.2843 212.447 51.6596C220.831 53.4752 228.752 55.2002 235.338 52.7303C249.523 47.4159 253.988 37.8885 259.16 26.8555C263.132 18.3789 267.635 8.76531 277.521 0.0430835L277.765 0.314861C267.941 8.98193 263.446 18.5642 259.49 27.0173C254.286 38.1286 249.791 47.7188 235.465 53.0811C228.778 55.583 220.81 53.8504 212.372 52.0275C201.5 49.6671 190.252 47.2313 181.715 54.4277C174.778 60.2763 171.588 70.9277 170.968 78.2706C170.312 85.9497 170.744 93.8243 171.15 101.433C171.691 111.55 172.259 122.01 170.308 132.2C168.658 140.839 164.561 147.066 158.132 150.731C153.843 153.168 148.498 154.402 142.466 154.446Z" fill="url(#paint69_linear_41_953)"/>
<path d="M142.082 157.606C135.588 157.652 128.342 156.368 120.931 153.834C110.683 150.305 100.329 144.956 89.2638 137.493C68.2336 123.366 45.9937 117.101 17.3919 117.306C16.7354 117.311 16.0713 117.324 15.407 117.328L15.4044 116.961C16.0686 116.949 16.7328 116.944 17.3971 116.939C46.0771 116.733 68.3795 123.013 89.4726 137.187C100.514 144.634 110.837 149.968 121.053 153.49C140.004 159.957 156.245 157.958 164.498 148.137C167.125 145.024 169.05 141.055 170.22 136.342C171.481 131.253 172.152 125.7 172.338 118.876C172.474 113.873 172.304 108.763 172.128 103.818C171.891 96.8327 171.643 89.6133 172.265 82.5518C172.41 80.9721 172.641 79.3606 172.957 77.7484C174.587 69.5543 178.232 62.4242 182.969 58.1935C191.596 50.465 202.824 52.3305 213.677 54.1283C220.813 55.3119 227.557 56.428 233.612 55.0247C234.587 54.8067 235.538 54.5108 236.435 54.1605C250.493 48.636 255.081 38.8576 260.392 27.5345C264.364 19.0813 268.86 9.49902 278.231 0.89772L278.483 1.16944C269.158 9.72352 264.871 18.8589 260.722 27.6963C255.372 39.09 250.761 48.931 236.562 54.5034C235.65 54.8616 234.683 55.1577 233.685 55.3837C227.568 56.803 220.784 55.6794 213.609 54.4883C202.835 52.6977 191.708 50.855 183.205 58.4653C178.531 62.6487 174.924 69.7003 173.31 77.824C172.993 79.4206 172.762 81.0243 172.625 82.5883C172.003 89.6264 172.25 96.838 172.488 103.815C172.656 108.769 172.833 113.886 172.697 118.897C172.512 125.752 171.841 131.321 170.573 136.441C169.388 141.209 167.439 145.225 164.773 148.385C160.225 153.803 153.588 156.867 145.051 157.499C144.09 157.56 143.098 157.599 142.082 157.606Z" fill="url(#paint70_linear_41_953)"/>
<path d="M141.526 160.759C135.188 160.805 128.177 159.636 121.049 157.342C111.109 154.131 101.102 149.233 90.4627 142.353C69.3579 128.719 46.9757 123.299 20.0511 125.274L20.025 124.907C47.0511 122.916 69.4961 128.366 90.6637 142.039C101.279 148.895 111.255 153.786 121.164 156.982C139.588 162.922 155.704 160.97 164.281 151.749C167.027 148.791 169.125 145.017 170.5 140.537C172.004 135.65 172.949 129.992 173.385 123.229C173.751 117.654 173.655 111.919 173.561 106.379C173.452 99.9553 173.342 93.3211 173.944 86.8302C174.089 85.2661 174.32 83.6468 174.644 82.0111C176.235 73.8172 179.825 66.6016 184.482 62.1995C193.091 54.0335 204.236 55.2978 215.014 56.5257C221.725 57.2903 228.663 58.0768 234.739 56.478C235.784 56.197 236.704 55.8934 237.546 55.5357C251.494 49.7932 256.205 39.756 261.67 28.127C265.811 19.3053 270.099 10.1778 278.979 1.71287L279.231 1.97678C270.405 10.4022 266.133 19.4906 261.999 28.2888C256.734 39.4943 251.762 50.0804 237.689 55.8785C236.832 56.2364 235.896 56.5557 234.836 56.8368C228.697 58.4595 221.72 57.6655 214.978 56.8932C204.278 55.6727 193.226 54.4155 184.742 62.4712C180.139 66.8182 176.595 73.971 175.012 82.0866C174.696 83.7066 174.465 85.3103 174.32 86.8666C173.725 93.334 173.835 99.9604 173.944 106.376C174.038 111.932 174.134 117.667 173.768 123.258C173.332 130.044 172.38 135.733 170.868 140.644C169.47 145.171 167.349 148.992 164.564 151.997C159.842 157.08 153.173 159.98 144.745 160.619C143.682 160.713 142.612 160.751 141.526 160.759Z" fill="url(#paint71_linear_41_953)"/>
<path d="M141.134 163.927C133.046 163.985 125.491 162.156 121.152 160.851C111.519 157.95 101.592 153.363 91.6387 147.229C70.6561 134.29 49.3748 129.839 24.6722 133.244L24.6227 132.877C49.4113 129.472 70.7707 133.929 91.8318 146.915C101.754 153.034 111.657 157.605 121.259 160.498C129.882 163.093 151.298 167.785 164.042 155.385C166.859 152.637 169.185 148.963 170.765 144.763C172.544 140.006 173.7 134.559 174.416 127.614C175.053 121.537 175.047 115.246 175.042 109.166C175.039 103.25 175.034 97.1305 175.609 91.1557C175.769 89.5055 176.007 87.8783 176.309 86.3287C177.22 81.5159 179.695 72.5186 185.965 66.2606C194.554 57.6414 205.618 58.3202 216.329 58.978C222.928 59.3839 229.746 59.7962 235.836 57.9941C236.811 57.6979 237.754 57.3629 238.635 56.9815C252.456 50.9742 257.536 40.1763 262.917 28.7433C267.043 19.9842 271.3 10.9272 279.673 2.59099L279.932 2.84703C271.606 11.136 267.357 20.1617 263.246 28.8972C257.835 40.393 252.723 51.2536 238.778 57.3165C237.882 57.7059 236.931 58.0488 235.933 58.3451C229.78 60.171 222.923 59.7513 216.293 59.3456C205.667 58.7028 194.682 58.0313 186.209 66.5245C180.001 72.7117 177.557 81.6307 176.653 86.4044C176.359 87.9461 176.121 89.5577 175.961 91.2C175.386 97.1593 175.391 103.271 175.394 109.179C175.399 115.267 175.405 121.566 174.768 127.666C174.053 134.642 172.888 140.121 171.102 144.901C169.507 149.156 167.15 152.87 164.294 155.657C157.852 161.916 149.23 163.869 141.134 163.927Z" fill="url(#paint72_linear_41_953)"/>
<path d="M140.524 167.058C132.67 167.114 125.437 165.509 121.264 164.351C111.906 161.753 102.075 157.517 92.8302 152.09C71.7503 139.744 52.1649 136.384 29.3167 141.182L29.2437 140.823C52.1935 136.008 71.8648 139.376 93.0233 151.768C102.245 157.172 112.044 161.4 121.37 163.991C129.773 166.322 150.739 170.501 163.818 159.005C166.769 156.413 169.268 152.941 171.037 148.966C173.06 144.442 174.467 139.047 175.456 131.983C176.386 125.451 176.478 118.651 176.571 112.078C176.649 106.614 176.726 100.971 177.281 95.4654C177.448 93.7918 177.687 92.1567 177.973 90.6151C179.523 82.3121 182.894 75.098 187.463 70.2981C196.049 61.2178 207.054 61.3031 217.69 61.3753C224.17 61.4148 230.86 61.4684 236.949 59.4632C237.962 59.1276 238.874 58.7694 239.731 58.3803C253.449 52.1237 258.683 41.0199 264.218 29.2576C268.306 20.5769 272.532 11.6061 280.398 3.422L280.665 3.67798C272.846 11.8227 268.627 20.7622 264.555 29.4193C258.99 41.2366 253.732 52.403 239.89 58.7153C239.025 59.1122 238.106 59.4705 237.069 59.814C230.917 61.8431 224.196 61.7975 217.693 61.7426C207.134 61.6698 196.208 61.584 187.731 70.554C183.208 75.299 179.876 82.4503 178.333 90.6906C178.047 92.2245 177.816 93.8438 177.648 95.5097C177.094 101 177.017 106.643 176.947 112.098C176.853 118.687 176.761 125.495 175.824 132.051C174.827 139.146 173.42 144.572 171.382 149.127C169.59 153.149 167.06 156.661 164.07 159.292C157.352 165.178 148.612 167 140.524 167.058Z" fill="url(#paint73_linear_41_953)"/>
<path d="M139.671 170.213C133.974 170.254 127.811 169.478 121.383 167.851C112.183 165.534 102.723 161.764 94.022 156.958C73.206 145.447 54.6825 143.032 33.9615 149.136L33.8574 148.785C54.6876 142.657 73.2893 145.079 94.1995 156.636C102.87 161.427 112.306 165.181 121.474 167.499C138.792 171.868 154.144 170.094 163.586 162.633C166.663 160.204 169.336 156.934 171.302 153.184C174.216 147.645 175.609 141.282 176.488 136.36C177.743 129.419 177.941 122.149 178.125 115.13C178.261 110.08 178.403 104.859 178.93 99.7754C179.105 98.1017 179.344 96.4744 179.629 94.9172C181.141 86.6301 184.449 79.3149 188.946 74.3435C197.529 64.7866 208.49 64.2625 219.091 63.7645C225.427 63.4612 231.974 63.1563 238.062 60.9557C239.021 60.6128 239.948 60.2232 240.828 59.8027C254.489 53.3276 259.87 41.8711 265.566 29.7481C269.6 21.1694 273.772 12.2928 281.115 4.28434L281.383 4.53251C274.07 12.5017 269.914 21.3469 265.895 29.9098C260.168 42.0956 254.765 53.6069 240.987 60.1376C240.099 60.5581 239.164 60.9478 238.189 61.2986C232.055 63.5152 225.477 63.8281 219.117 64.1238C208.11 64.6482 197.711 65.1369 189.229 74.5837C184.779 79.5157 181.509 86.7603 180.005 94.9848C179.727 96.5264 179.489 98.1536 179.313 99.8117C178.787 104.887 178.644 110.101 178.508 115.143C178.317 122.186 178.119 129.463 176.864 136.435C175.977 141.389 174.577 147.784 171.639 153.369C169.643 157.166 166.939 160.475 163.823 162.936C157.792 167.676 149.416 170.143 139.671 170.213Z" fill="url(#paint74_linear_41_953)"/>
<path d="M139.257 173.389C132.411 173.438 126.042 172.382 121.486 171.36C112.476 169.322 103.144 165.942 95.2057 161.826C74.4264 151.081 57.4965 149.663 38.5903 157.082L38.4628 156.739C57.4704 149.28 74.494 150.697 95.3753 161.497C103.29 165.597 112.591 168.969 121.569 170.999C131.503 173.242 150.151 175.616 163.362 166.253C166.542 163.995 169.458 160.848 171.582 157.386C174.734 152.237 176.362 146.067 177.535 140.721C179.14 133.418 179.436 125.734 179.727 118.299C179.912 113.625 180.096 108.786 180.609 104.069C180.785 102.404 181.023 100.761 181.301 99.1957C182.781 90.901 186.026 83.5081 190.436 78.3654C199.031 68.3004 209.48 67.233 220.53 66.0987C226.715 65.4604 233.111 64.805 239.159 62.4249C240.164 62.0347 241.06 61.6376 241.916 61.2094C255.505 54.4613 261.048 42.652 266.913 30.1526C270.885 21.6994 274.988 12.9484 281.825 5.12328L282.1 5.36358C275.294 13.1493 271.207 21.8691 267.25 30.3065C261.354 42.8686 255.789 54.725 242.091 61.5364C241.226 61.9724 240.315 62.3697 239.302 62.7677C233.208 65.1638 226.788 65.8272 220.572 66.4657C209.592 67.5917 199.221 68.6586 190.719 78.6135C186.348 83.7012 183.134 91.0392 181.661 99.2712C181.383 100.828 181.153 102.463 180.969 104.122C180.456 108.822 180.272 113.653 180.086 118.328C179.796 125.778 179.492 133.486 177.887 140.812C176.707 146.19 175.079 152.391 171.889 157.587C169.741 161.088 166.786 164.282 163.567 166.564C156.313 171.696 147.446 173.33 139.257 173.389Z" fill="url(#paint75_linear_41_953)"/>
<path d="M138.458 176.513C131.933 176.56 125.925 175.704 121.613 174.852C112.675 173.095 103.722 170.19 96.405 166.686C76.0392 156.923 60.1396 156.419 43.2503 165.02L43.0838 164.693C60.09 156.037 76.0833 156.539 96.5668 166.357C103.86 169.845 112.782 172.743 121.688 174.492C131.408 176.399 149.725 178.347 163.146 169.873C166.468 167.77 169.565 164.833 171.87 161.589C175.267 156.797 177.1 150.829 178.575 145.09C180.552 137.448 180.963 129.357 181.352 121.531C181.571 117.2 181.797 112.728 182.281 108.364C182.472 106.682 182.711 105.039 182.981 103.482C184.01 97.6132 186.395 89.1871 191.942 82.395C200.565 71.814 210.986 70.1607 222.024 68.4091C228.05 67.4515 234.287 66.4612 240.287 63.9017C241.198 63.52 242.117 63.0836 243.028 62.6081C256.561 55.5713 262.272 43.3778 268.322 30.4708C272.209 22.1667 276.235 13.5803 282.557 5.96208L282.84 6.1945C276.549 13.7812 272.539 22.3441 268.659 30.6246C262.586 43.5944 256.852 55.8349 243.203 62.9351C242.284 63.4106 241.349 63.855 240.43 64.2367C234.392 66.8121 228.139 67.8104 222.081 68.7682C211.113 70.5114 200.755 72.1566 192.225 82.6275C186.725 89.3644 184.354 97.7202 183.341 103.55C183.071 105.099 182.832 106.742 182.641 108.408C182.157 112.757 181.931 117.228 181.712 121.552C181.315 129.393 180.912 137.508 178.919 145.181C177.437 150.952 175.588 156.967 172.153 161.806C169.824 165.089 166.688 168.066 163.328 170.184C155.773 174.959 146.703 176.454 138.458 176.513Z" fill="url(#paint76_linear_41_953)"/>
<path d="M137.684 179.692C131.94 179.733 126.426 179.139 121.724 178.368C112.812 176.892 104.245 174.476 97.5888 171.562C77.4484 162.727 63.0481 163.135 47.8869 172.974L47.6893 172.662C62.9672 162.753 77.4612 162.336 97.7427 171.225C104.367 174.132 112.903 176.54 121.791 178C133.458 179.925 150.063 180.705 162.921 173.501C166.339 171.593 169.702 168.786 172.143 165.799C175.939 161.161 177.912 155.184 179.622 149.459C181.98 141.533 182.498 133.081 182.994 124.911C183.336 119.25 183.693 113.402 184.653 107.768C185.658 101.9 188.004 93.4348 193.448 86.4246C202.129 75.2649 212.577 73.0174 223.642 70.6326C229.479 69.3716 235.51 68.0779 241.415 65.3784C256.877 58.3199 263.15 44.8955 269.785 30.6791C273.572 22.5711 277.49 14.1887 283.29 6.80085L283.581 7.0254C277.804 14.3818 273.901 22.7407 270.122 30.833C263.457 45.1043 257.161 58.5914 241.574 65.7055C235.638 68.4209 229.583 69.7225 223.73 70.9836C212.728 73.3524 202.342 75.5916 193.747 86.6491C188.349 93.5964 186.026 101.999 185.028 107.828C184.068 113.438 183.712 119.279 183.369 124.924C182.873 133.118 182.355 141.593 179.982 149.558C178.265 155.322 176.276 161.338 172.441 166.024C169.97 169.042 166.567 171.88 163.111 173.812C155.335 178.166 146.241 179.63 137.684 179.692Z" fill="url(#paint77_linear_41_953)"/>
</g>
<defs>
<linearGradient id="paint0_linear_41_953" x1="284.485" y1="18.3955" x2="42.2726" y2="189.877" gradientUnits="userSpaceOnUse">
<stop stop-color="white"/>
<stop offset="1" stop-color="white" stop-opacity="0"/>
</linearGradient>
<linearGradient id="paint1_linear_41_953" x1="271.629" y1="0.254872" x2="29.4262" y2="171.729" gradientUnits="userSpaceOnUse">
<stop stop-color="white"/>
<stop offset="1" stop-color="white" stop-opacity="0"/>
</linearGradient>
<linearGradient id="paint2_linear_41_953" x1="289.68" y1="25.7351" x2="47.4677" y2="197.216" gradientUnits="userSpaceOnUse">
<stop stop-color="white"/>
<stop offset="1" stop-color="white" stop-opacity="0"/>
</linearGradient>
<linearGradient id="paint3_linear_41_953" x1="283.273" y1="16.6925" x2="41.0608" y2="188.174" gradientUnits="userSpaceOnUse">
<stop stop-color="white"/>
<stop offset="1" stop-color="white" stop-opacity="0"/>
</linearGradient>
<linearGradient id="paint4_linear_41_953" x1="278.536" y1="10.001" x2="36.3234" y2="181.482" gradientUnits="userSpaceOnUse">
<stop stop-color="white"/>
<stop offset="1" stop-color="white" stop-opacity="0"/>
</linearGradient>
<linearGradient id="paint5_linear_41_953" x1="291.784" y1="28.7081" x2="49.5717" y2="200.189" gradientUnits="userSpaceOnUse">
<stop stop-color="white"/>
<stop offset="1" stop-color="white" stop-opacity="0"/>
</linearGradient>
<linearGradient id="paint6_linear_41_953" x1="288.572" y1="24.1709" x2="46.3589" y2="195.652" gradientUnits="userSpaceOnUse">
<stop stop-color="white"/>
<stop offset="1" stop-color="white" stop-opacity="0"/>
</linearGradient>
<linearGradient id="paint7_linear_41_953" x1="287.106" y1="22.0999" x2="44.8928" y2="193.581" gradientUnits="userSpaceOnUse">
<stop stop-color="white"/>
<stop offset="1" stop-color="white" stop-opacity="0"/>
</linearGradient>
<linearGradient id="paint8_linear_41_953" x1="289.015" y1="24.7969" x2="46.8021" y2="196.278" gradientUnits="userSpaceOnUse">
<stop stop-color="white"/>
<stop offset="1" stop-color="white" stop-opacity="0"/>
</linearGradient>
<linearGradient id="paint9_linear_41_953" x1="287.468" y1="22.6196" x2="45.2557" y2="194.101" gradientUnits="userSpaceOnUse">
<stop stop-color="white"/>
<stop offset="1" stop-color="white" stop-opacity="0"/>
</linearGradient>
<linearGradient id="paint10_linear_41_953" x1="282.482" y1="15.577" x2="40.2694" y2="187.058" gradientUnits="userSpaceOnUse">
<stop stop-color="white"/>
<stop offset="1" stop-color="white" stop-opacity="0"/>
</linearGradient>
<linearGradient id="paint11_linear_41_953" x1="279.59" y1="11.492" x2="37.3774" y2="182.973" gradientUnits="userSpaceOnUse">
<stop stop-color="white"/>
<stop offset="1" stop-color="white" stop-opacity="0"/>
</linearGradient>
<linearGradient id="paint12_linear_41_953" x1="281.928" y1="14.7943" x2="39.7152" y2="186.275" gradientUnits="userSpaceOnUse">
<stop stop-color="white"/>
<stop offset="1" stop-color="white" stop-opacity="0"/>
</linearGradient>
<linearGradient id="paint13_linear_41_953" x1="310.676" y1="55.3941" x2="68.4638" y2="226.875" gradientUnits="userSpaceOnUse">
<stop stop-color="white"/>
<stop offset="1" stop-color="white" stop-opacity="0"/>
</linearGradient>
<linearGradient id="paint14_linear_41_953" x1="307.893" y1="51.4626" x2="65.6801" y2="222.944" gradientUnits="userSpaceOnUse">
<stop stop-color="white"/>
<stop offset="1" stop-color="white" stop-opacity="0"/>
</linearGradient>
<linearGradient id="paint15_linear_41_953" x1="311.15" y1="56.0626" x2="68.9371" y2="227.544" gradientUnits="userSpaceOnUse">
<stop stop-color="white"/>
<stop offset="1" stop-color="white" stop-opacity="0"/>
</linearGradient>
<linearGradient id="paint16_linear_41_953" x1="309.472" y1="53.6926" x2="67.2594" y2="225.174" gradientUnits="userSpaceOnUse">
<stop stop-color="white"/>
<stop offset="1" stop-color="white" stop-opacity="0"/>
</linearGradient>
<linearGradient id="paint17_linear_41_953" x1="288.875" y1="24.6089" x2="46.6621" y2="196.09" gradientUnits="userSpaceOnUse">
<stop stop-color="white"/>
<stop offset="1" stop-color="white" stop-opacity="0"/>
</linearGradient>
<linearGradient id="paint18_linear_41_953" x1="285.567" y1="19.937" x2="43.3543" y2="191.418" gradientUnits="userSpaceOnUse">
<stop stop-color="white"/>
<stop offset="1" stop-color="white" stop-opacity="0"/>
</linearGradient>
<linearGradient id="paint19_linear_41_953" x1="283.535" y1="17.0673" x2="41.3226" y2="188.549" gradientUnits="userSpaceOnUse">
<stop stop-color="white"/>
<stop offset="1" stop-color="white" stop-opacity="0"/>
</linearGradient>
<linearGradient id="paint20_linear_41_953" x1="285.653" y1="20.0583" x2="43.4401" y2="191.539" gradientUnits="userSpaceOnUse">
<stop stop-color="white"/>
<stop offset="1" stop-color="white" stop-opacity="0"/>
</linearGradient>
<linearGradient id="paint21_linear_41_953" x1="286.69" y1="21.5236" x2="44.4772" y2="193.005" gradientUnits="userSpaceOnUse">
<stop stop-color="white"/>
<stop offset="1" stop-color="white" stop-opacity="0"/>
</linearGradient>
<linearGradient id="paint22_linear_41_953" x1="284.561" y1="18.5168" x2="42.3488" y2="189.998" gradientUnits="userSpaceOnUse">
<stop stop-color="white"/>
<stop offset="1" stop-color="white" stop-opacity="0"/>
</linearGradient>
<linearGradient id="paint23_linear_41_953" x1="273.185" y1="2.44481" x2="30.9727" y2="173.926" gradientUnits="userSpaceOnUse">
<stop stop-color="white"/>
<stop offset="1" stop-color="white" stop-opacity="0"/>
</linearGradient>
<linearGradient id="paint24_linear_41_953" x1="270.197" y1="-1.77546" x2="27.9847" y2="169.706" gradientUnits="userSpaceOnUse">
<stop stop-color="white"/>
<stop offset="1" stop-color="white" stop-opacity="0"/>
</linearGradient>
<linearGradient id="paint25_linear_41_953" x1="272.075" y1="0.877751" x2="29.8628" y2="172.359" gradientUnits="userSpaceOnUse">
<stop stop-color="white"/>
<stop offset="1" stop-color="white" stop-opacity="0"/>
</linearGradient>
<linearGradient id="paint26_linear_41_953" x1="268.924" y1="-3.57356" x2="26.7116" y2="167.907" gradientUnits="userSpaceOnUse">
<stop stop-color="white"/>
<stop offset="1" stop-color="white" stop-opacity="0"/>
</linearGradient>
<linearGradient id="paint27_linear_41_953" x1="266.801" y1="-6.57288" x2="24.5881" y2="164.908" gradientUnits="userSpaceOnUse">
<stop stop-color="white"/>
<stop offset="1" stop-color="white" stop-opacity="0"/>
</linearGradient>
<linearGradient id="paint28_linear_41_953" x1="268.391" y1="-4.3262" x2="26.1787" y2="167.155" gradientUnits="userSpaceOnUse">
<stop stop-color="white"/>
<stop offset="1" stop-color="white" stop-opacity="0"/>
</linearGradient>
<linearGradient id="paint29_linear_41_953" x1="277.302" y1="8.26185" x2="35.0898" y2="179.743" gradientUnits="userSpaceOnUse">
<stop stop-color="white"/>
<stop offset="1" stop-color="white" stop-opacity="0"/>
</linearGradient>
<linearGradient id="paint30_linear_41_953" x1="275.358" y1="5.51589" x2="33.1451" y2="176.997" gradientUnits="userSpaceOnUse">
<stop stop-color="white"/>
<stop offset="1" stop-color="white" stop-opacity="0"/>
</linearGradient>
<linearGradient id="paint31_linear_41_953" x1="277.764" y1="8.91463" x2="35.5517" y2="180.395" gradientUnits="userSpaceOnUse">
<stop stop-color="white"/>
<stop offset="1" stop-color="white" stop-opacity="0"/>
</linearGradient>
<linearGradient id="paint32_linear_41_953" x1="275.703" y1="6.00333" x2="33.4905" y2="177.483" gradientUnits="userSpaceOnUse">
<stop stop-color="white"/>
<stop offset="1" stop-color="white" stop-opacity="0"/>
</linearGradient>
<linearGradient id="paint33_linear_41_953" x1="273.501" y1="2.8922" x2="31.288" y2="174.374" gradientUnits="userSpaceOnUse">
<stop stop-color="white"/>
<stop offset="1" stop-color="white" stop-opacity="0"/>
</linearGradient>
<linearGradient id="paint34_linear_41_953" x1="275.05" y1="5.08163" x2="32.8378" y2="176.563" gradientUnits="userSpaceOnUse">
<stop stop-color="white"/>
<stop offset="1" stop-color="white" stop-opacity="0"/>
</linearGradient>
<linearGradient id="paint35_linear_41_953" x1="306.209" y1="49.0853" x2="63.9961" y2="220.567" gradientUnits="userSpaceOnUse">
<stop stop-color="white"/>
<stop offset="1" stop-color="white" stop-opacity="0"/>
</linearGradient>
<linearGradient id="paint36_linear_41_953" x1="303.639" y1="45.4565" x2="61.4269" y2="216.938" gradientUnits="userSpaceOnUse">
<stop stop-color="white"/>
<stop offset="1" stop-color="white" stop-opacity="0"/>
</linearGradient>
<linearGradient id="paint37_linear_41_953" x1="303.703" y1="45.547" x2="61.4902" y2="217.028" gradientUnits="userSpaceOnUse">
<stop stop-color="white"/>
<stop offset="1" stop-color="white" stop-opacity="0"/>
</linearGradient>
<linearGradient id="paint38_linear_41_953" x1="301.009" y1="41.7416" x2="58.7964" y2="213.223" gradientUnits="userSpaceOnUse">
<stop stop-color="white"/>
<stop offset="1" stop-color="white" stop-opacity="0"/>
</linearGradient>
<linearGradient id="paint39_linear_41_953" x1="300.234" y1="40.6474" x2="58.0218" y2="212.129" gradientUnits="userSpaceOnUse">
<stop stop-color="white"/>
<stop offset="1" stop-color="white" stop-opacity="0"/>
</linearGradient>
<linearGradient id="paint40_linear_41_953" x1="301.104" y1="41.8762" x2="58.8914" y2="213.357" gradientUnits="userSpaceOnUse">
<stop stop-color="white"/>
<stop offset="1" stop-color="white" stop-opacity="0"/>
</linearGradient>
<linearGradient id="paint41_linear_41_953" x1="300.531" y1="41.0621" x2="58.318" y2="212.543" gradientUnits="userSpaceOnUse">
<stop stop-color="white"/>
<stop offset="1" stop-color="white" stop-opacity="0"/>
</linearGradient>
<linearGradient id="paint42_linear_41_953" x1="302.908" y1="44.4206" x2="60.6955" y2="215.902" gradientUnits="userSpaceOnUse">
<stop stop-color="white"/>
<stop offset="1" stop-color="white" stop-opacity="0"/>
</linearGradient>
<linearGradient id="paint43_linear_41_953" x1="304.885" y1="47.2126" x2="62.6721" y2="218.693" gradientUnits="userSpaceOnUse">
<stop stop-color="white"/>
<stop offset="1" stop-color="white" stop-opacity="0"/>
</linearGradient>
<linearGradient id="paint44_linear_41_953" x1="300.799" y1="41.4406" x2="58.5862" y2="212.922" gradientUnits="userSpaceOnUse">
<stop stop-color="white"/>
<stop offset="1" stop-color="white" stop-opacity="0"/>
</linearGradient>
<linearGradient id="paint45_linear_41_953" x1="295.789" y1="34.3698" x2="53.5764" y2="205.85" gradientUnits="userSpaceOnUse">
<stop stop-color="white"/>
<stop offset="1" stop-color="white" stop-opacity="0"/>
</linearGradient>
<linearGradient id="paint46_linear_41_953" x1="295.989" y1="34.652" x2="53.7766" y2="206.133" gradientUnits="userSpaceOnUse">
<stop stop-color="white"/>
<stop offset="1" stop-color="white" stop-opacity="0"/>
</linearGradient>
<linearGradient id="paint47_linear_41_953" x1="283.416" y1="16.898" x2="41.2038" y2="188.378" gradientUnits="userSpaceOnUse">
<stop stop-color="white"/>
<stop offset="1" stop-color="white" stop-opacity="0"/>
</linearGradient>
<linearGradient id="paint48_linear_41_953" x1="286.962" y1="21.9058" x2="44.7491" y2="193.387" gradientUnits="userSpaceOnUse">
<stop stop-color="white"/>
<stop offset="1" stop-color="white" stop-opacity="0"/>
</linearGradient>
<linearGradient id="paint49_linear_41_953" x1="286.55" y1="21.3238" x2="44.3373" y2="192.805" gradientUnits="userSpaceOnUse">
<stop stop-color="white"/>
<stop offset="1" stop-color="white" stop-opacity="0"/>
</linearGradient>
<linearGradient id="paint50_linear_41_953" x1="286.98" y1="21.9314" x2="44.7673" y2="193.413" gradientUnits="userSpaceOnUse">
<stop stop-color="white"/>
<stop offset="1" stop-color="white" stop-opacity="0"/>
</linearGradient>
<linearGradient id="paint51_linear_41_953" x1="282.465" y1="15.5521" x2="40.2524" y2="187.033" gradientUnits="userSpaceOnUse">
<stop stop-color="white"/>
<stop offset="1" stop-color="white" stop-opacity="0"/>
</linearGradient>
<linearGradient id="paint52_linear_41_953" x1="285.242" y1="19.4745" x2="43.0295" y2="190.956" gradientUnits="userSpaceOnUse">
<stop stop-color="white"/>
<stop offset="1" stop-color="white" stop-opacity="0"/>
</linearGradient>
<linearGradient id="paint53_linear_41_953" x1="285.132" y1="19.3189" x2="42.9193" y2="190.8" gradientUnits="userSpaceOnUse">
<stop stop-color="white"/>
<stop offset="1" stop-color="white" stop-opacity="0"/>
</linearGradient>
<linearGradient id="paint54_linear_41_953" x1="285.359" y1="19.6397" x2="43.1462" y2="191.121" gradientUnits="userSpaceOnUse">
<stop stop-color="white"/>
<stop offset="1" stop-color="white" stop-opacity="0"/>
</linearGradient>
<linearGradient id="paint55_linear_41_953" x1="300.896" y1="41.5806" x2="58.6834" y2="213.062" gradientUnits="userSpaceOnUse">
<stop stop-color="white"/>
<stop offset="1" stop-color="white" stop-opacity="0"/>
</linearGradient>
<linearGradient id="paint56_linear_41_953" x1="305.101" y1="47.5205" x2="62.8887" y2="219.002" gradientUnits="userSpaceOnUse">
<stop stop-color="white"/>
<stop offset="1" stop-color="white" stop-opacity="0"/>
</linearGradient>
<linearGradient id="paint57_linear_41_953" x1="303.871" y1="45.7822" x2="61.6584" y2="217.263" gradientUnits="userSpaceOnUse">
<stop stop-color="white"/>
<stop offset="1" stop-color="white" stop-opacity="0"/>
</linearGradient>
<linearGradient id="paint58_linear_41_953" x1="304.808" y1="47.106" x2="62.5954" y2="218.587" gradientUnits="userSpaceOnUse">
<stop stop-color="white"/>
<stop offset="1" stop-color="white" stop-opacity="0"/>
</linearGradient>
<linearGradient id="paint59_linear_41_953" x1="292.766" y1="30.1005" x2="50.5537" y2="201.582" gradientUnits="userSpaceOnUse">
<stop stop-color="white"/>
<stop offset="1" stop-color="white" stop-opacity="0"/>
</linearGradient>
<linearGradient id="paint60_linear_41_953" x1="315.647" y1="62.4158" x2="73.4344" y2="233.897" gradientUnits="userSpaceOnUse">
<stop stop-color="white"/>
<stop offset="1" stop-color="white" stop-opacity="0"/>
</linearGradient>
<linearGradient id="paint61_linear_41_953" x1="316.749" y1="63.9733" x2="74.5366" y2="235.455" gradientUnits="userSpaceOnUse">
<stop stop-color="white"/>
<stop offset="1" stop-color="white" stop-opacity="0"/>
</linearGradient>
<linearGradient id="paint62_linear_41_953" x1="314.611" y1="60.9541" x2="72.399" y2="232.435" gradientUnits="userSpaceOnUse">
<stop stop-color="white"/>
<stop offset="1" stop-color="white" stop-opacity="0"/>
</linearGradient>
<linearGradient id="paint63_linear_41_953" x1="315.603" y1="62.3543" x2="73.3897" y2="233.836" gradientUnits="userSpaceOnUse">
<stop stop-color="white"/>
<stop offset="1" stop-color="white" stop-opacity="0"/>
</linearGradient>
<linearGradient id="paint64_linear_41_953" x1="313.52" y1="59.413" x2="71.3076" y2="230.894" gradientUnits="userSpaceOnUse">
<stop stop-color="white"/>
<stop offset="1" stop-color="white" stop-opacity="0"/>
</linearGradient>
<linearGradient id="paint65_linear_41_953" x1="314.399" y1="60.655" x2="72.1863" y2="232.136" gradientUnits="userSpaceOnUse">
<stop stop-color="white"/>
<stop offset="1" stop-color="white" stop-opacity="0"/>
</linearGradient>
<linearGradient id="paint66_linear_41_953" x1="312.312" y1="57.7064" x2="70.0993" y2="229.188" gradientUnits="userSpaceOnUse">
<stop stop-color="white"/>
<stop offset="1" stop-color="white" stop-opacity="0"/>
</linearGradient>
<linearGradient id="paint67_linear_41_953" x1="312.029" y1="57.3065" x2="69.8163" y2="228.787" gradientUnits="userSpaceOnUse">
<stop stop-color="white"/>
<stop offset="1" stop-color="white" stop-opacity="0"/>
</linearGradient>
<linearGradient id="paint68_linear_41_953" x1="313.208" y1="58.9712" x2="70.9951" y2="230.452" gradientUnits="userSpaceOnUse">
<stop stop-color="white"/>
<stop offset="1" stop-color="white" stop-opacity="0"/>
</linearGradient>
<linearGradient id="paint69_linear_41_953" x1="270.297" y1="-1.62795" x2="28.0935" y2="169.846" gradientUnits="userSpaceOnUse">
<stop stop-color="white"/>
<stop offset="1" stop-color="white" stop-opacity="0"/>
</linearGradient>
<linearGradient id="paint70_linear_41_953" x1="273.687" y1="3.1605" x2="31.4837" y2="174.635" gradientUnits="userSpaceOnUse">
<stop stop-color="white"/>
<stop offset="1" stop-color="white" stop-opacity="0"/>
</linearGradient>
<linearGradient id="paint71_linear_41_953" x1="277.076" y1="7.94858" x2="34.8732" y2="179.423" gradientUnits="userSpaceOnUse">
<stop stop-color="white"/>
<stop offset="1" stop-color="white" stop-opacity="0"/>
</linearGradient>
<linearGradient id="paint72_linear_41_953" x1="280.48" y1="12.7569" x2="38.2774" y2="184.231" gradientUnits="userSpaceOnUse">
<stop stop-color="white"/>
<stop offset="1" stop-color="white" stop-opacity="0"/>
</linearGradient>
<linearGradient id="paint73_linear_41_953" x1="283.895" y1="17.5792" x2="41.6914" y2="189.054" gradientUnits="userSpaceOnUse">
<stop stop-color="white"/>
<stop offset="1" stop-color="white" stop-opacity="0"/>
</linearGradient>
<linearGradient id="paint74_linear_41_953" x1="287.326" y1="22.4256" x2="45.123" y2="193.9" gradientUnits="userSpaceOnUse">
<stop stop-color="white"/>
<stop offset="1" stop-color="white" stop-opacity="0"/>
</linearGradient>
<linearGradient id="paint75_linear_41_953" x1="290.778" y1="27.3015" x2="48.5749" y2="198.776" gradientUnits="userSpaceOnUse">
<stop stop-color="white"/>
<stop offset="1" stop-color="white" stop-opacity="0"/>
</linearGradient>
<linearGradient id="paint76_linear_41_953" x1="294.252" y1="32.2088" x2="52.0491" y2="203.683" gradientUnits="userSpaceOnUse">
<stop stop-color="white"/>
<stop offset="1" stop-color="white" stop-opacity="0"/>
</linearGradient>
<linearGradient id="paint77_linear_41_953" x1="297.755" y1="37.1564" x2="55.5519" y2="208.631" gradientUnits="userSpaceOnUse">
<stop stop-color="white"/>
<stop offset="1" stop-color="white" stop-opacity="0"/>
</linearGradient>
</defs>
</svg>
