<svg width="217" height="267" viewBox="0 0 217 267" fill="none" xmlns="http://www.w3.org/2000/svg">
<path d="M9.92999 213.67H0.580002V211.24H22.09V213.67H12.74V237.84H9.92999V213.67Z" fill="#1B459C"/>
<path d="M53.33 230.73H38.51L35.32 237.84H32.39L44.55 211.24H47.32L59.48 237.84H56.52L53.33 230.73ZM52.3 228.45L45.92 214.16L39.54 228.45H52.31H52.3Z" fill="#1B459C"/>
<path d="M93.46 237.83L87.38 229.28C86.7 229.36 85.99 229.39 85.25 229.39H78.11V237.83H75.3V211.23H85.26C88.65 211.23 91.31 212.04 93.24 213.66C95.16 215.28 96.13 217.51 96.13 220.35C96.13 222.43 95.6 224.18 94.55 225.61C93.5 227.04 92 228.07 90.05 228.71L96.55 237.83H93.47H93.46ZM91.21 225.25C92.6 224.08 93.3 222.45 93.3 220.35C93.3 218.25 92.6 216.54 91.21 215.39C89.82 214.24 87.8 213.66 85.17 213.66H78.1V227H85.17C87.8 227 89.82 226.42 91.21 225.25Z" fill="#1B459C"/>
<path d="M130.85 230.73H116.03L112.84 237.84H109.91L122.07 211.24H124.84L137 237.84H134.04L130.85 230.73ZM129.82 228.45L123.44 214.16L117.06 228.45H129.83H129.82Z" fill="#1B459C"/>
<path d="M175.04 211.23V237.83H172.72L155.62 216.25V237.83H152.81V211.23H155.13L172.27 232.81V211.23H175.04Z" fill="#1B459C"/>
<path d="M213.84 224.53H216.54V234.68C215.3 235.77 213.83 236.61 212.13 237.19C210.43 237.77 208.65 238.06 206.77 238.06C204.11 238.06 201.72 237.48 199.59 236.31C197.46 235.14 195.79 233.53 194.57 231.46C193.35 229.4 192.75 227.08 192.75 224.53C192.75 221.98 193.36 219.66 194.57 217.59C195.79 215.53 197.46 213.91 199.59 212.75C201.72 211.58 204.12 211 206.81 211C208.84 211 210.7 211.32 212.4 211.97C214.1 212.62 215.53 213.57 216.69 214.84L214.94 216.63C212.84 214.55 210.16 213.51 206.92 213.51C204.77 213.51 202.82 213.99 201.09 214.94C199.35 215.89 197.99 217.21 197.01 218.89C196.02 220.58 195.53 222.46 195.53 224.53C195.53 226.6 196.02 228.48 197.01 230.15C198 231.82 199.35 233.14 201.08 234.1C202.81 235.06 204.74 235.54 206.89 235.54C209.63 235.54 211.94 234.86 213.84 233.49V224.52V224.53Z" fill="#1B459C"/>
<path d="M68.16 265.67C67.25 265.35 66.55 264.94 66.06 264.42L66.61 263.34C67.09 263.82 67.73 264.21 68.53 264.51C69.33 264.81 70.15 264.96 71 264.96C72.19 264.96 73.08 264.74 73.68 264.3C74.28 263.86 74.57 263.3 74.57 262.6C74.57 262.07 74.41 261.64 74.09 261.33C73.77 261.01 73.37 260.77 72.9 260.6C72.43 260.43 71.78 260.24 70.94 260.04C69.94 259.79 69.14 259.54 68.55 259.31C67.95 259.08 67.44 258.72 67.02 258.24C66.6 257.76 66.38 257.11 66.38 256.28C66.38 255.61 66.56 255 66.91 254.45C67.26 253.9 67.81 253.46 68.54 253.13C69.27 252.8 70.19 252.64 71.28 252.64C72.04 252.64 72.78 252.74 73.51 252.95C74.24 253.16 74.87 253.45 75.4 253.81L74.92 254.93C74.36 254.56 73.77 254.29 73.13 254.1C72.5 253.92 71.88 253.82 71.27 253.82C70.1 253.82 69.23 254.04 68.64 254.49C68.05 254.94 67.76 255.52 67.76 256.23C67.76 256.76 67.92 257.19 68.24 257.51C68.56 257.83 68.97 258.08 69.46 258.25C69.95 258.42 70.6 258.61 71.43 258.81C72.41 259.05 73.19 259.29 73.8 259.52C74.4 259.75 74.91 260.11 75.33 260.58C75.75 261.05 75.96 261.7 75.96 262.51C75.96 263.18 75.78 263.79 75.42 264.34C75.06 264.89 74.5 265.33 73.76 265.65C73.01 265.97 72.09 266.13 71.01 266.13C70.02 266.13 69.07 265.97 68.17 265.65L68.16 265.67Z" fill="#231F20"/>
<path d="M89.33 261.45H80.97C81.05 262.49 81.45 263.33 82.17 263.97C82.89 264.61 83.8 264.93 84.91 264.93C85.53 264.93 86.1 264.82 86.62 264.6C87.14 264.38 87.59 264.05 87.97 263.62L88.73 264.49C88.29 265.02 87.73 265.43 87.07 265.71C86.4 265.99 85.67 266.13 84.88 266.13C83.85 266.13 82.94 265.91 82.15 265.47C81.36 265.03 80.74 264.43 80.3 263.66C79.86 262.89 79.63 262.01 79.63 261.04C79.63 260.07 79.84 259.19 80.27 258.42C80.69 257.65 81.28 257.05 82.02 256.62C82.76 256.19 83.59 255.97 84.52 255.97C85.45 255.97 86.27 256.19 87.01 256.62C87.74 257.05 88.32 257.65 88.74 258.41C89.16 259.18 89.37 260.05 89.37 261.04L89.35 261.46L89.33 261.45ZM82.09 258.04C81.44 258.65 81.07 259.46 80.98 260.44H88.07C87.98 259.45 87.61 258.65 86.96 258.04C86.31 257.43 85.49 257.12 84.52 257.12C83.55 257.12 82.75 257.43 82.1 258.04H82.09Z" fill="#231F20"/>
<path d="M100.22 256.94C100.92 257.59 101.26 258.56 101.26 259.84V266.03H99.97V264.47C99.67 264.99 99.22 265.39 98.63 265.69C98.04 265.99 97.34 266.13 96.53 266.13C95.42 266.13 94.53 265.86 93.87 265.33C93.21 264.8 92.88 264.09 92.88 263.22C92.88 262.35 93.19 261.69 93.8 261.17C94.41 260.65 95.39 260.39 96.74 260.39H99.91V259.78C99.91 258.92 99.67 258.26 99.19 257.81C98.71 257.36 98.01 257.14 97.08 257.14C96.45 257.14 95.84 257.24 95.26 257.45C94.68 257.66 94.18 257.95 93.76 258.31L93.15 257.3C93.66 256.87 94.26 256.54 94.97 256.3C95.68 256.07 96.43 255.95 97.21 255.95C98.51 255.95 99.51 256.28 100.21 256.93L100.22 256.94ZM98.7 264.54C99.24 264.19 99.65 263.69 99.92 263.03V261.4H96.78C95.07 261.4 94.22 262 94.22 263.19C94.22 263.77 94.44 264.23 94.89 264.57C95.33 264.91 95.95 265.07 96.75 265.07C97.55 265.07 98.16 264.9 98.71 264.55L98.7 264.54Z" fill="#231F20"/>
<path d="M107.18 265.77C106.44 265.54 105.86 265.24 105.44 264.89L106.05 263.83C106.47 264.16 106.99 264.43 107.63 264.64C108.26 264.85 108.92 264.95 109.61 264.95C110.52 264.95 111.2 264.81 111.63 264.52C112.07 264.23 112.29 263.83 112.29 263.31C112.29 262.94 112.17 262.65 111.93 262.45C111.69 262.24 111.39 262.08 111.02 261.97C110.65 261.86 110.16 261.76 109.56 261.66C108.75 261.51 108.1 261.35 107.6 261.19C107.11 261.03 106.68 260.76 106.34 260.38C105.99 260 105.82 259.47 105.82 258.8C105.82 257.96 106.17 257.28 106.86 256.75C107.56 256.22 108.53 255.95 109.77 255.95C110.42 255.95 111.06 256.04 111.71 256.21C112.36 256.38 112.89 256.61 113.31 256.88L112.72 257.96C111.9 257.39 110.92 257.1 109.78 257.1C108.92 257.1 108.27 257.25 107.83 257.56C107.39 257.86 107.17 258.26 107.17 258.76C107.17 259.14 107.29 259.44 107.54 259.67C107.79 259.9 108.09 260.07 108.46 260.17C108.83 260.28 109.33 260.39 109.98 260.5C110.78 260.65 111.42 260.8 111.9 260.96C112.38 261.11 112.79 261.37 113.13 261.74C113.47 262.11 113.64 262.61 113.64 263.26C113.64 264.13 113.28 264.83 112.55 265.34C111.82 265.85 110.81 266.11 109.52 266.11C108.71 266.11 107.93 265.99 107.19 265.76L107.18 265.77Z" fill="#231F20"/>
<path d="M119.5 265.47C118.73 265.03 118.12 264.43 117.68 263.66C117.24 262.89 117.01 262.01 117.01 261.04C117.01 260.07 117.23 259.19 117.68 258.42C118.13 257.65 118.73 257.05 119.5 256.62C120.27 256.19 121.14 255.97 122.1 255.97C123.06 255.97 123.93 256.19 124.7 256.62C125.47 257.05 126.08 257.65 126.51 258.42C126.95 259.19 127.17 260.07 127.17 261.04C127.17 262.01 126.95 262.89 126.51 263.66C126.07 264.43 125.47 265.04 124.7 265.47C123.93 265.91 123.06 266.13 122.1 266.13C121.14 266.13 120.27 265.91 119.5 265.47ZM124.02 264.44C124.58 264.12 125.02 263.66 125.34 263.06C125.66 262.46 125.82 261.79 125.82 261.03C125.82 260.27 125.66 259.59 125.34 259C125.02 258.41 124.58 257.95 124.02 257.62C123.46 257.3 122.82 257.14 122.11 257.14C121.4 257.14 120.76 257.3 120.2 257.62C119.64 257.94 119.19 258.4 118.87 259C118.55 259.6 118.39 260.27 118.39 261.03C118.39 261.79 118.55 262.47 118.87 263.06C119.19 263.66 119.64 264.11 120.2 264.44C120.76 264.76 121.4 264.93 122.11 264.93C122.82 264.93 123.46 264.77 124.02 264.44Z" fill="#231F20"/>
<path d="M139.92 257.05C140.66 257.78 141.03 258.84 141.03 260.23V266.02H139.68V260.36C139.68 259.32 139.42 258.53 138.9 257.98C138.38 257.44 137.64 257.16 136.68 257.16C135.6 257.16 134.75 257.48 134.12 258.12C133.49 258.76 133.18 259.64 133.18 260.77V266.01H131.83V256.02H133.12V257.86C133.49 257.25 134 256.78 134.65 256.44C135.3 256.1 136.06 255.94 136.92 255.94C138.17 255.94 139.17 256.3 139.91 257.03L139.92 257.05Z" fill="#231F20"/>
<path d="M154.69 264.81V266.03H145.36V265.06L150.89 259.64C151.59 258.96 152.06 258.36 152.31 257.86C152.56 257.36 152.68 256.86 152.68 256.35C152.68 255.56 152.41 254.95 151.87 254.52C151.33 254.08 150.56 253.86 149.56 253.86C148 253.86 146.79 254.35 145.93 255.34L144.96 254.5C145.48 253.89 146.14 253.42 146.95 253.09C147.75 252.76 148.66 252.6 149.68 252.6C151.03 252.6 152.11 252.92 152.9 253.56C153.69 254.2 154.09 255.08 154.09 256.19C154.09 256.87 153.94 257.53 153.63 258.17C153.33 258.8 152.75 259.53 151.9 260.35L147.38 264.8H154.7L154.69 264.81Z" fill="#231F20"/>
<g opacity="0.8">
<path d="M37.82 107.04C41.05 66.83 93.6 0.47998 110.31 0.47998C127.02 0.47998 179.88 66.82 182.8 107.04C187.46 171.34 132.93 175.42 110.31 175.42C87.69 175.42 32.82 169.4 37.82 107.04Z" fill="#4378BC"/>
</g>
<path d="M180.01 73.59C176.91 112.2 126.45 175.91 110.4 175.91C94.35 175.91 43.59 112.21 40.79 73.59C36.31 11.85 88.67 7.93005 110.4 7.93005C132.13 7.93005 184.81 13.71 180.01 73.59Z" fill="#1B459C"/>
<path d="M109.21 170.82C109.21 170.82 109.15 170.82 109.12 170.82C108.5 170.71 107.82 170.52 107.11 170.25C106.85 170.15 106.72 169.86 106.82 169.61C106.92 169.35 107.21 169.22 107.46 169.32C108.11 169.57 108.73 169.74 109.3 169.84C109.57 169.89 109.75 170.15 109.7 170.42C109.66 170.66 109.45 170.83 109.21 170.83V170.82ZM113.13 170.41C112.92 170.41 112.73 170.28 112.66 170.07C112.57 169.81 112.71 169.52 112.97 169.44C113.53 169.25 114.14 169 114.76 168.69C115.01 168.57 115.31 168.67 115.43 168.92C115.55 169.17 115.45 169.47 115.2 169.59C114.54 169.91 113.89 170.18 113.29 170.38C113.24 170.4 113.18 170.41 113.13 170.41ZM103.69 168.47C103.6 168.47 103.51 168.45 103.43 168.4C102.87 168.06 102.3 167.69 101.72 167.29C101.49 167.13 101.43 166.82 101.59 166.6C101.75 166.37 102.06 166.32 102.29 166.47C102.86 166.86 103.42 167.22 103.96 167.55C104.2 167.69 104.27 168 104.13 168.24C104.04 168.4 103.87 168.48 103.7 168.48L103.69 168.47ZM118.46 167.61C118.3 167.61 118.14 167.53 118.04 167.39C117.89 167.16 117.95 166.85 118.18 166.7C118.71 166.34 119.25 165.96 119.81 165.55C120.03 165.39 120.34 165.43 120.51 165.65C120.67 165.87 120.63 166.19 120.4 166.35C119.83 166.77 119.28 167.16 118.74 167.52C118.66 167.58 118.56 167.6 118.46 167.6V167.61ZM98.77 164.97C98.66 164.97 98.55 164.93 98.46 164.86C97.95 164.45 97.43 164.02 96.9 163.57C96.69 163.39 96.66 163.08 96.84 162.87C97.02 162.66 97.34 162.64 97.55 162.81C98.07 163.25 98.58 163.68 99.09 164.08C99.3 164.25 99.34 164.57 99.17 164.78C99.07 164.9 98.93 164.97 98.78 164.97H98.77ZM123.26 163.94C123.12 163.94 122.98 163.88 122.88 163.76C122.7 163.55 122.73 163.23 122.94 163.06C123.44 162.64 123.94 162.2 124.45 161.75C124.66 161.57 124.97 161.58 125.16 161.79C125.34 162 125.32 162.31 125.12 162.5C124.6 162.96 124.09 163.4 123.59 163.83C123.5 163.91 123.38 163.95 123.27 163.95L123.26 163.94ZM94.21 161C94.09 161 93.96 160.96 93.87 160.87C93.38 160.42 92.9 159.95 92.4 159.47C92.2 159.28 92.2 158.96 92.39 158.76C92.58 158.56 92.9 158.56 93.1 158.75C93.59 159.22 94.07 159.68 94.55 160.13C94.75 160.32 94.76 160.63 94.57 160.84C94.47 160.95 94.34 161 94.2 161H94.21ZM127.73 159.88C127.6 159.88 127.47 159.83 127.37 159.73C127.18 159.53 127.18 159.21 127.38 159.02C127.85 158.56 128.33 158.09 128.81 157.62C129.01 157.42 129.32 157.42 129.52 157.62C129.72 157.82 129.72 158.13 129.52 158.33C129.04 158.81 128.55 159.29 128.08 159.75C127.98 159.84 127.86 159.89 127.73 159.89V159.88ZM89.9 156.75C89.77 156.75 89.64 156.7 89.54 156.6C89.08 156.12 88.61 155.63 88.15 155.14C87.96 154.94 87.97 154.62 88.17 154.43C88.37 154.24 88.69 154.25 88.88 154.45C89.34 154.94 89.81 155.43 90.26 155.9C90.45 156.1 90.45 156.42 90.25 156.61C90.15 156.7 90.03 156.75 89.9 156.75ZM131.98 155.58C131.86 155.58 131.73 155.54 131.64 155.44C131.44 155.25 131.43 154.93 131.62 154.73C132.07 154.25 132.53 153.76 132.99 153.26C133.18 153.06 133.49 153.04 133.7 153.23C133.9 153.42 133.92 153.73 133.73 153.94C133.27 154.44 132.81 154.94 132.35 155.42C132.25 155.52 132.12 155.58 131.99 155.58H131.98ZM85.79 152.32C85.65 152.32 85.52 152.26 85.42 152.15C84.98 151.65 84.53 151.15 84.08 150.63C83.9 150.42 83.92 150.11 84.13 149.92C84.34 149.74 84.65 149.76 84.84 149.97C85.28 150.48 85.73 150.98 86.17 151.48C86.35 151.69 86.34 152 86.13 152.19C86.03 152.27 85.92 152.32 85.8 152.32H85.79ZM136.03 151.1C135.91 151.1 135.8 151.06 135.7 150.98C135.49 150.8 135.47 150.48 135.65 150.27C136.09 149.77 136.52 149.26 136.96 148.75C137.14 148.54 137.46 148.52 137.67 148.69C137.88 148.87 137.91 149.18 137.73 149.4C137.29 149.92 136.85 150.43 136.41 150.93C136.31 151.04 136.17 151.1 136.03 151.1ZM81.85 147.75C81.71 147.75 81.56 147.69 81.47 147.57C81.04 147.06 80.61 146.54 80.19 146.01C80.02 145.8 80.05 145.48 80.26 145.31C80.47 145.14 80.79 145.17 80.96 145.38C81.39 145.9 81.81 146.42 82.24 146.93C82.42 147.14 82.39 147.46 82.18 147.63C82.09 147.71 81.97 147.75 81.86 147.75H81.85ZM139.93 146.48C139.82 146.48 139.71 146.44 139.61 146.37C139.4 146.2 139.36 145.88 139.54 145.67C139.96 145.15 140.38 144.63 140.8 144.11C140.97 143.89 141.29 143.86 141.5 144.03C141.72 144.2 141.75 144.52 141.58 144.73C141.16 145.26 140.73 145.78 140.31 146.3C140.21 146.42 140.07 146.48 139.92 146.48H139.93ZM78.05 143.04C77.9 143.04 77.76 142.97 77.66 142.85C77.25 142.32 76.83 141.79 76.42 141.26C76.25 141.04 76.29 140.73 76.51 140.56C76.73 140.39 77.04 140.43 77.21 140.65C77.62 141.18 78.03 141.71 78.44 142.24C78.61 142.46 78.57 142.77 78.36 142.94C78.27 143.01 78.16 143.05 78.05 143.05V143.04ZM143.68 141.74C143.57 141.74 143.47 141.71 143.38 141.64C143.16 141.47 143.12 141.16 143.29 140.94C143.7 140.41 144.1 139.88 144.51 139.34C144.68 139.12 144.99 139.08 145.21 139.24C145.43 139.41 145.47 139.72 145.31 139.94C144.9 140.48 144.5 141.02 144.09 141.55C143.99 141.68 143.84 141.75 143.69 141.75L143.68 141.74ZM74.39 138.23C74.24 138.23 74.09 138.16 73.99 138.03C73.59 137.49 73.19 136.95 72.8 136.4C72.64 136.18 72.69 135.86 72.91 135.7C73.13 135.54 73.45 135.59 73.61 135.81C74.01 136.35 74.4 136.89 74.8 137.43C74.96 137.65 74.92 137.97 74.69 138.13C74.6 138.2 74.5 138.23 74.39 138.23ZM147.29 136.9C147.19 136.9 147.08 136.87 147 136.8C146.78 136.64 146.73 136.33 146.89 136.1C147.28 135.56 147.67 135.02 148.06 134.47C148.22 134.24 148.53 134.19 148.76 134.35C148.98 134.51 149.04 134.82 148.88 135.05C148.49 135.6 148.1 136.15 147.7 136.69C147.6 136.82 147.45 136.9 147.29 136.9ZM70.87 133.33C70.71 133.33 70.56 133.26 70.46 133.12C70.08 132.57 69.69 132.02 69.31 131.46C69.15 131.23 69.21 130.92 69.44 130.77C69.67 130.62 69.98 130.67 70.14 130.9C70.52 131.45 70.9 132 71.28 132.55C71.44 132.78 71.38 133.09 71.16 133.25C71.07 133.31 70.97 133.34 70.87 133.34V133.33ZM150.77 131.96C150.67 131.96 150.57 131.93 150.49 131.87C150.26 131.71 150.2 131.4 150.36 131.17C150.74 130.62 151.11 130.06 151.49 129.51C151.65 129.28 151.96 129.22 152.18 129.37C152.41 129.52 152.47 129.83 152.32 130.06C151.94 130.62 151.57 131.18 151.19 131.73C151.09 131.87 150.94 131.95 150.78 131.95L150.77 131.96ZM67.49 128.33C67.33 128.33 67.17 128.25 67.07 128.1C66.7 127.54 66.33 126.98 65.97 126.41C65.82 126.18 65.89 125.87 66.12 125.72C66.35 125.57 66.66 125.64 66.81 125.87C67.17 126.43 67.54 126.99 67.9 127.55C68.05 127.78 67.99 128.09 67.76 128.24C67.68 128.3 67.58 128.32 67.49 128.32V128.33ZM154.12 126.93C154.03 126.93 153.93 126.9 153.85 126.85C153.62 126.7 153.55 126.39 153.7 126.16C154.06 125.6 154.42 125.03 154.78 124.47C154.93 124.24 155.24 124.17 155.47 124.32C155.7 124.47 155.77 124.78 155.63 125.01C155.27 125.58 154.91 126.15 154.54 126.71C154.44 126.86 154.28 126.94 154.12 126.94V126.93ZM64.24 123.24C64.07 123.24 63.91 123.16 63.82 123C63.46 122.43 63.11 121.85 62.76 121.27C62.62 121.03 62.69 120.73 62.93 120.58C63.17 120.44 63.47 120.51 63.62 120.75C63.97 121.32 64.32 121.9 64.67 122.47C64.82 122.7 64.74 123.01 64.51 123.16C64.43 123.21 64.34 123.23 64.25 123.23L64.24 123.24ZM157.33 121.8C157.24 121.8 157.15 121.78 157.07 121.73C156.83 121.59 156.76 121.28 156.9 121.04C157.25 120.47 157.59 119.89 157.93 119.32C158.07 119.08 158.38 119 158.61 119.15C158.85 119.29 158.93 119.6 158.78 119.84C158.44 120.42 158.09 121 157.74 121.57C157.65 121.73 157.48 121.81 157.31 121.81L157.33 121.8ZM61.13 118.05C60.96 118.05 60.79 117.96 60.7 117.8C60.36 117.22 60.03 116.63 59.7 116.05C59.56 115.81 59.65 115.5 59.89 115.37C60.13 115.23 60.43 115.32 60.57 115.56C60.9 116.14 61.23 116.72 61.57 117.3C61.71 117.54 61.63 117.84 61.39 117.98C61.31 118.03 61.22 118.05 61.14 118.05H61.13ZM160.38 116.6C160.3 116.6 160.21 116.58 160.13 116.54C159.89 116.4 159.8 116.1 159.94 115.86C160.27 115.28 160.6 114.7 160.92 114.11C161.05 113.87 161.36 113.78 161.6 113.91C161.84 114.04 161.93 114.35 161.8 114.59C161.48 115.18 161.15 115.76 160.82 116.34C160.73 116.5 160.56 116.59 160.38 116.59V116.6ZM58.2 112.77C58.02 112.77 57.85 112.67 57.76 112.51C57.44 111.92 57.13 111.32 56.82 110.73C56.69 110.49 56.79 110.18 57.03 110.06C57.28 109.93 57.58 110.03 57.7 110.27C58.01 110.86 58.32 111.45 58.64 112.04C58.77 112.28 58.68 112.59 58.44 112.72C58.36 112.76 58.28 112.78 58.2 112.78V112.77ZM163.27 111.3C163.19 111.3 163.11 111.28 163.04 111.24C162.8 111.11 162.7 110.81 162.83 110.57C163.14 109.98 163.45 109.38 163.75 108.79C163.87 108.54 164.18 108.45 164.42 108.57C164.67 108.69 164.76 109 164.64 109.24C164.34 109.84 164.03 110.44 163.71 111.03C163.62 111.2 163.45 111.3 163.27 111.3ZM55.44 107.4C55.26 107.4 55.08 107.3 54.99 107.12C54.69 106.51 54.4 105.91 54.11 105.3C53.99 105.05 54.1 104.75 54.35 104.63C54.6 104.51 54.9 104.62 55.02 104.87C55.31 105.47 55.6 106.08 55.89 106.68C56.01 106.93 55.91 107.23 55.66 107.35C55.59 107.38 55.51 107.4 55.44 107.4ZM165.98 105.9C165.91 105.9 165.83 105.88 165.76 105.85C165.51 105.73 165.41 105.43 165.52 105.18C165.81 104.57 166.1 103.97 166.37 103.36C166.49 103.11 166.78 103 167.03 103.12C167.28 103.24 167.39 103.53 167.27 103.78C166.99 104.39 166.7 105 166.41 105.61C166.32 105.79 166.15 105.89 165.96 105.89L165.98 105.9ZM52.88 101.92C52.69 101.92 52.5 101.81 52.42 101.62C52.15 101 51.88 100.38 51.62 99.7701C51.51 99.5201 51.63 99.22 51.88 99.11C52.13 99 52.43 99.1201 52.54 99.3801C52.8 99.9901 53.07 100.61 53.34 101.22C53.45 101.47 53.34 101.77 53.09 101.88C53.02 101.91 52.96 101.92 52.89 101.92H52.88ZM168.48 100.4C168.41 100.4 168.35 100.39 168.28 100.36C168.03 100.25 167.91 99.96 168.02 99.7C168.28 99.08 168.54 98.4701 168.8 97.8501C168.91 97.5901 169.2 97.48 169.45 97.58C169.7 97.68 169.83 97.98 169.72 98.23C169.47 98.85 169.2 99.47 168.94 100.09C168.86 100.28 168.67 100.39 168.48 100.39V100.4ZM50.57 96.34C50.37 96.34 50.18 96.2201 50.1 96.0201C49.86 95.3901 49.62 94.7601 49.39 94.1301C49.3 93.8701 49.43 93.5801 49.69 93.4901C49.95 93.4001 50.24 93.53 50.33 93.79C50.56 94.41 50.79 95.04 51.04 95.67C51.14 95.93 51.01 96.2201 50.75 96.3201C50.69 96.3401 50.63 96.3501 50.57 96.3501V96.34ZM170.73 94.79C170.67 94.79 170.61 94.79 170.56 94.76C170.3 94.66 170.17 94.38 170.27 94.12C170.5 93.49 170.73 92.8601 170.95 92.2401C171.04 91.9801 171.33 91.84 171.59 91.93C171.85 92.02 171.99 92.3101 171.9 92.5701C171.68 93.2001 171.45 93.84 171.21 94.47C171.13 94.67 170.94 94.8 170.74 94.8L170.73 94.79ZM48.55 90.65C48.34 90.65 48.14 90.52 48.07 90.3C47.86 89.65 47.66 89.01 47.47 88.37C47.39 88.11 47.54 87.83 47.81 87.75C48.08 87.67 48.35 87.82 48.43 88.09C48.62 88.72 48.82 89.36 49.02 90C49.1 90.26 48.96 90.5401 48.7 90.6301C48.65 90.6501 48.6 90.65 48.55 90.65ZM172.67 89.0701C172.67 89.0701 172.57 89.07 172.52 89.05C172.26 88.97 172.11 88.69 172.19 88.43C172.39 87.79 172.57 87.15 172.75 86.51C172.82 86.24 173.1 86.09 173.37 86.16C173.64 86.23 173.79 86.51 173.72 86.78C173.54 87.42 173.35 88.07 173.15 88.72C173.08 88.94 172.89 89.0701 172.67 89.0701ZM46.91 84.84C46.68 84.84 46.48 84.6901 46.42 84.4601C46.26 83.8001 46.11 83.14 45.97 82.48C45.91 82.21 46.08 81.94 46.35 81.89C46.62 81.83 46.89 82.0001 46.94 82.2701C47.08 82.9201 47.23 83.56 47.39 84.22C47.46 84.49 47.29 84.7601 47.02 84.8201C46.98 84.8201 46.94 84.83 46.9 84.83L46.91 84.84ZM174.22 83.2401C174.22 83.2401 174.15 83.24 174.11 83.23C173.84 83.17 173.67 82.9001 173.73 82.6301C173.88 81.9701 174.01 81.32 174.14 80.67C174.19 80.4 174.46 80.2201 174.73 80.2701C175 80.3201 175.18 80.58 175.13 80.86C175 81.52 174.86 82.1801 174.71 82.8501C174.66 83.0801 174.45 83.2401 174.22 83.2401ZM45.74 78.92C45.5 78.92 45.28 78.7401 45.25 78.4901C45.15 77.8101 45.07 77.14 45 76.48C44.97 76.21 45.17 75.96 45.44 75.93C45.7 75.9 45.96 76.1 45.99 76.37C46.06 77.02 46.14 77.6801 46.24 78.3501C46.28 78.6201 46.09 78.88 45.82 78.92C45.8 78.92 45.77 78.92 45.75 78.92H45.74ZM175.27 77.29C175.27 77.29 175.23 77.29 175.21 77.29C174.94 77.26 174.74 77.01 174.78 76.73C174.86 76.06 174.93 75.4 174.98 74.75C175 74.47 175.24 74.27 175.52 74.29C175.8 74.31 176 74.55 175.98 74.83C175.93 75.5 175.86 76.1701 175.77 76.8501C175.74 77.1001 175.52 77.29 175.27 77.29ZM45.2 72.91C44.93 72.91 44.71 72.7 44.7 72.43C44.67 71.75 44.64 71.08 44.62 70.41C44.62 70.13 44.83 69.9 45.11 69.9H45.12C45.39 69.9 45.61 70.12 45.62 70.39C45.64 71.05 45.66 71.72 45.7 72.39C45.71 72.67 45.5 72.9 45.23 72.91H45.21H45.2ZM175.7 71.33C175.7 71.33 175.69 71.33 175.68 71.33C175.4 71.33 175.19 71.09 175.2 70.81C175.22 70.14 175.24 69.47 175.25 68.81C175.25 68.54 175.48 68.3201 175.75 68.3201C176.03 68.3201 176.25 68.55 176.24 68.83C176.24 69.5 176.22 70.1701 176.19 70.8501C176.19 71.1201 175.96 71.33 175.69 71.33H175.7ZM45.1 66.8801C44.82 66.8801 44.6 66.65 44.61 66.37C44.62 65.69 44.65 65.0101 44.68 64.3501C44.69 64.0701 44.88 63.85 45.2 63.87C45.48 63.88 45.69 64.12 45.68 64.39C45.65 65.05 45.63 65.71 45.62 66.39C45.62 66.66 45.39 66.8801 45.12 66.8801H45.1ZM175.7 65.3C175.43 65.3 175.21 65.0901 175.2 64.8201C175.17 64.1501 175.14 63.48 175.09 62.83C175.07 62.55 175.28 62.32 175.55 62.3C175.81 62.28 176.06 62.4901 176.08 62.7701C176.12 63.4401 176.16 64.11 176.19 64.79C176.2 65.07 175.98 65.3 175.71 65.31C175.71 65.31 175.7 65.31 175.69 65.31L175.7 65.3ZM45.46 60.86C45.46 60.86 45.43 60.86 45.41 60.86C45.14 60.83 44.93 60.59 44.96 60.31C45.03 59.63 45.1 58.96 45.19 58.3C45.23 58.03 45.48 57.84 45.75 57.87C46.02 57.91 46.22 58.16 46.18 58.43C46.1 59.08 46.02 59.74 45.95 60.41C45.92 60.67 45.71 60.86 45.45 60.86H45.46ZM175.2 59.29C174.95 59.29 174.74 59.1101 174.7 58.8501C174.61 58.1801 174.52 57.5301 174.41 56.8801C174.37 56.6101 174.55 56.35 174.82 56.31C175.1 56.27 175.35 56.45 175.39 56.72C175.5 57.38 175.59 58.05 175.68 58.72C175.72 58.99 175.52 59.24 175.25 59.28C175.23 59.28 175.21 59.28 175.18 59.28L175.2 59.29ZM46.32 54.9C46.32 54.9 46.26 54.9 46.22 54.9C45.95 54.85 45.77 54.59 45.82 54.31C45.95 53.64 46.09 52.98 46.24 52.33C46.3 52.06 46.57 51.89 46.84 51.95C47.11 52.01 47.28 52.28 47.22 52.55C47.07 53.19 46.94 53.84 46.81 54.5C46.76 54.74 46.55 54.9 46.32 54.9ZM174.14 53.36C173.91 53.36 173.71 53.2 173.65 52.97C173.5 52.32 173.34 51.67 173.16 51.04C173.09 50.77 173.24 50.5 173.51 50.43C173.78 50.36 174.05 50.52 174.12 50.78C174.3 51.42 174.46 52.08 174.62 52.75C174.68 53.02 174.52 53.2901 174.25 53.3501C174.21 53.3501 174.17 53.36 174.14 53.36ZM47.78 49.06C47.78 49.06 47.68 49.06 47.63 49.04C47.37 48.96 47.22 48.68 47.3 48.42C47.5 47.77 47.71 47.1201 47.94 46.4901C48.03 46.2301 48.32 46.09 48.58 46.18C48.84 46.27 48.98 46.5601 48.89 46.8201C48.67 47.4401 48.46 48.0701 48.27 48.7101C48.2 48.9201 48.01 49.06 47.79 49.06H47.78ZM172.44 47.59C172.23 47.59 172.04 47.46 171.97 47.26C171.74 46.63 171.51 46.01 171.26 45.41C171.16 45.15 171.28 44.86 171.53 44.76C171.79 44.66 172.08 44.78 172.18 45.03C172.43 45.65 172.68 46.28 172.91 46.93C173 47.19 172.87 47.4801 172.61 47.5701C172.55 47.5901 172.5 47.6001 172.44 47.6001V47.59ZM49.9 43.42C49.83 43.42 49.76 43.4101 49.69 43.3801C49.44 43.2701 49.33 42.97 49.44 42.72C49.72 42.1 50.01 41.48 50.31 40.89C50.43 40.64 50.74 40.54 50.98 40.67C51.23 40.79 51.32 41.09 51.2 41.34C50.91 41.93 50.62 42.5201 50.35 43.1301C50.27 43.3201 50.08 43.43 49.89 43.43L49.9 43.42ZM170.04 42.0701C169.86 42.0701 169.68 41.97 169.6 41.8C169.29 41.21 168.98 40.62 168.65 40.05C168.51 39.81 168.6 39.51 168.83 39.37C169.07 39.23 169.37 39.31 169.51 39.56C169.84 40.14 170.17 40.7401 170.48 41.3501C170.61 41.6001 170.51 41.9001 170.26 42.0201C170.19 42.0601 170.11 42.08 170.03 42.08L170.04 42.0701ZM52.72 38.1001C52.63 38.1001 52.54 38.0801 52.46 38.0201C52.23 37.8701 52.15 37.57 52.3 37.33C52.66 36.75 53.03 36.1801 53.41 35.6301C53.57 35.4001 53.88 35.35 54.11 35.5C54.34 35.66 54.4 35.97 54.24 36.2C53.87 36.74 53.51 37.29 53.15 37.86C53.06 38.01 52.89 38.1001 52.73 38.1001H52.72ZM166.93 36.91C166.77 36.91 166.62 36.84 166.52 36.7C166.14 36.15 165.74 35.6201 165.34 35.1001C165.17 34.8801 165.21 34.57 165.43 34.4C165.65 34.23 165.96 34.2701 166.13 34.4901C166.54 35.0201 166.94 35.5701 167.34 36.1301C167.5 36.3601 167.44 36.67 167.22 36.83C167.13 36.89 167.03 36.92 166.93 36.92V36.91ZM56.25 33.23C56.14 33.23 56.02 33.19 55.93 33.11C55.72 32.93 55.69 32.62 55.87 32.41C56.31 31.89 56.76 31.3801 57.21 30.8801C57.4 30.6801 57.71 30.6601 57.92 30.8501C58.12 31.0401 58.14 31.35 57.95 31.56C57.5 32.04 57.07 32.54 56.64 33.05C56.54 33.17 56.4 33.23 56.26 33.23H56.25ZM163.14 32.2401C163.01 32.2401 162.87 32.19 162.77 32.08C162.32 31.59 161.85 31.12 161.38 30.66C161.18 30.47 161.18 30.15 161.38 29.95C161.57 29.75 161.89 29.75 162.09 29.95C162.57 30.42 163.05 30.91 163.51 31.4C163.7 31.6 163.69 31.92 163.48 32.11C163.38 32.2 163.26 32.2401 163.14 32.2401ZM60.43 28.89C60.29 28.89 60.16 28.83 60.06 28.72C59.87 28.51 59.89 28.2 60.1 28.01C60.61 27.55 61.12 27.11 61.64 26.68C61.85 26.5 62.17 26.53 62.34 26.75C62.52 26.96 62.49 27.28 62.27 27.45C61.76 27.87 61.26 28.3 60.77 28.75C60.67 28.84 60.55 28.8801 60.44 28.8801L60.43 28.89ZM158.74 28.12C158.63 28.12 158.52 28.08 158.42 28.01C157.91 27.59 157.38 27.18 156.86 26.78C156.64 26.61 156.6 26.3 156.76 26.08C156.93 25.86 157.24 25.82 157.46 25.98C158 26.39 158.53 26.8001 159.06 27.2401C159.27 27.4201 159.3 27.73 159.13 27.94C159.03 28.06 158.89 28.12 158.74 28.12ZM65.17 25.17C65.01 25.17 64.85 25.09 64.76 24.95C64.6 24.72 64.66 24.41 64.89 24.25C65.45 23.87 66.02 23.49 66.59 23.13C66.82 22.98 67.13 23.05 67.28 23.29C67.43 23.52 67.36 23.83 67.12 23.98C66.56 24.33 66 24.7001 65.46 25.0701C65.37 25.1301 65.27 25.16 65.18 25.16L65.17 25.17ZM153.85 24.6C153.76 24.6 153.67 24.58 153.58 24.52C153.02 24.16 152.45 23.82 151.88 23.49C151.64 23.35 151.56 23.05 151.7 22.81C151.84 22.57 152.15 22.49 152.38 22.63C152.96 22.97 153.54 23.32 154.12 23.68C154.35 23.83 154.42 24.14 154.28 24.37C154.18 24.52 154.02 24.6 153.86 24.6H153.85ZM70.34 22.06C70.16 22.06 69.99 21.96 69.9 21.79C69.77 21.55 69.87 21.24 70.11 21.12C70.71 20.81 71.32 20.5 71.93 20.21C72.18 20.09 72.48 20.2 72.6 20.45C72.72 20.7 72.61 21 72.36 21.12C71.76 21.41 71.17 21.7 70.58 22.01C70.51 22.05 70.43 22.07 70.35 22.07L70.34 22.06ZM148.58 21.66C148.51 21.66 148.43 21.64 148.36 21.61C147.76 21.32 147.16 21.03 146.55 20.76C146.3 20.65 146.19 20.35 146.3 20.1C146.41 19.85 146.71 19.74 146.96 19.85C147.58 20.13 148.19 20.41 148.8 20.71C149.05 20.83 149.15 21.13 149.03 21.38C148.94 21.56 148.77 21.66 148.58 21.66ZM75.82 19.55C75.62 19.55 75.43 19.43 75.36 19.23C75.26 18.97 75.38 18.68 75.64 18.58C76.27 18.33 76.9 18.09 77.54 17.86C77.8 17.76 78.09 17.9 78.18 18.16C78.27 18.42 78.14 18.71 77.88 18.8C77.26 19.03 76.63 19.26 76.01 19.51C75.95 19.53 75.89 19.55 75.83 19.55H75.82ZM143.04 19.27C142.98 19.27 142.92 19.26 142.86 19.24C142.24 19 141.61 18.78 140.98 18.56C140.72 18.47 140.58 18.19 140.67 17.92C140.76 17.66 141.04 17.52 141.3 17.61C141.94 17.83 142.57 18.06 143.21 18.3C143.47 18.4 143.6 18.69 143.5 18.94C143.42 19.14 143.23 19.26 143.03 19.26L143.04 19.27ZM81.53 17.58C81.31 17.58 81.11 17.44 81.05 17.22C80.97 16.96 81.12 16.68 81.39 16.6C82.04 16.41 82.69 16.22 83.34 16.05C83.61 15.98 83.88 16.14 83.95 16.4C84.02 16.67 83.86 16.94 83.6 17.01C82.96 17.18 82.32 17.36 81.68 17.55C81.63 17.56 81.58 17.57 81.54 17.57L81.53 17.58ZM137.3 17.39C137.3 17.39 137.21 17.39 137.16 17.37C136.52 17.19 135.87 17.01 135.23 16.85C134.96 16.78 134.8 16.51 134.87 16.24C134.94 15.97 135.21 15.81 135.48 15.88C136.13 16.05 136.78 16.22 137.44 16.41C137.71 16.49 137.86 16.76 137.78 17.03C137.72 17.25 137.52 17.39 137.3 17.39ZM87.38 16.1C87.15 16.1 86.94 15.94 86.89 15.7C86.83 15.43 87.01 15.16 87.27 15.11C87.94 14.97 88.6 14.84 89.26 14.71C89.52 14.66 89.79 14.84 89.84 15.11C89.89 15.38 89.71 15.64 89.44 15.69C88.79 15.81 88.13 15.94 87.48 16.08C87.44 16.08 87.41 16.09 87.37 16.09L87.38 16.1ZM131.43 15.96C131.43 15.96 131.36 15.96 131.33 15.95C130.67 15.81 130.02 15.69 129.37 15.57C129.1 15.52 128.92 15.26 128.97 14.99C129.02 14.72 129.28 14.53 129.55 14.59C130.21 14.71 130.87 14.84 131.54 14.98C131.81 15.04 131.98 15.3 131.93 15.57C131.88 15.81 131.67 15.97 131.44 15.97L131.43 15.96ZM93.33 15.04C93.09 15.04 92.87 14.86 92.84 14.61C92.8 14.34 92.99 14.08 93.26 14.04C93.93 13.94 94.6 13.85 95.27 13.77C95.54 13.73 95.79 13.93 95.83 14.2C95.86 14.47 95.67 14.72 95.4 14.76C94.74 14.84 94.08 14.93 93.41 15.03C93.39 15.03 93.36 15.03 93.34 15.03L93.33 15.04ZM125.48 14.94C125.48 14.94 125.43 14.94 125.41 14.94C124.74 14.85 124.08 14.76 123.42 14.68C123.15 14.65 122.95 14.4 122.98 14.12C123.01 13.85 123.27 13.65 123.54 13.68C124.2 13.76 124.87 13.85 125.55 13.94C125.82 13.98 126.01 14.23 125.98 14.5C125.94 14.75 125.73 14.93 125.49 14.93L125.48 14.94ZM99.34 14.36C99.08 14.36 98.86 14.16 98.84 13.9C98.82 13.62 99.02 13.38 99.3 13.36C99.98 13.3 100.66 13.25 101.32 13.21C101.57 13.2 101.83 13.4 101.85 13.68C101.87 13.96 101.66 14.19 101.38 14.21C100.72 14.25 100.06 14.3 99.38 14.36C99.37 14.36 99.35 14.36 99.34 14.36ZM119.47 14.28C119.47 14.28 119.44 14.28 119.43 14.28C118.75 14.22 118.08 14.18 117.43 14.14C117.15 14.12 116.94 13.89 116.96 13.61C116.98 13.33 117.23 13.13 117.49 13.14C118.15 13.18 118.82 13.23 119.51 13.28C119.79 13.3 119.99 13.54 119.97 13.82C119.95 14.08 119.73 14.28 119.47 14.28ZM105.37 14C105.1 14 104.88 13.79 104.87 13.52C104.87 13.24 105.08 13.01 105.35 13C106.04 12.98 106.72 12.96 107.37 12.94C107.68 12.93 107.87 13.15 107.88 13.43C107.88 13.71 107.67 13.93 107.39 13.94C106.74 13.95 106.07 13.97 105.38 13.99C105.38 13.99 105.37 13.99 105.36 13.99L105.37 14ZM113.43 13.96H113.42C112.73 13.94 112.06 13.93 111.41 13.92C111.13 13.92 110.91 13.69 110.91 13.42C110.91 13.15 111.14 12.92 111.41 12.92C112.06 12.92 112.74 12.94 113.44 12.96C113.72 12.96 113.93 13.2 113.93 13.47C113.93 13.74 113.7 13.96 113.43 13.96Z" fill="white"/>
<path fill-rule="evenodd" clip-rule="evenodd" d="M94.44 109.84C109.97 105.46 122.6 99.1 128.14 91.39C131.16 87.17 129.84 83.72 126.09 81.36C119.43 76.25 122.14 73.49 130.23 67.02C147.27 53.34 153.04 37.14 138.71 25.09C153.85 38.46 141.77 57.57 118.96 66.67C113.5 68.84 102.66 68.38 100.49 64.7C96.19 57.37 118.96 50.87 122.02 50.17C91.78 55.99 92.05 65.9 95.41 72.57C99.44 80.58 103.78 80.63 96.03 90.08C94.52 91.94 92.63 93.84 90.38 95.66C73.34 109.33 67.57 125.53 81.86 137.59C66.83 123.02 78.84 105.12 101.61 96.01C108.85 93.1 121.79 92.37 115.12 100.12C112.37 103.29 105.44 106.63 94.44 109.85V109.84Z" fill="#FFEC22"/>
<path fill-rule="evenodd" clip-rule="evenodd" d="M123.33 57.7299C124.84 60.4399 121.51 64.0399 115.89 65.7499C110.28 67.4899 104.5 66.68 103 63.97C101.49 61.26 104.82 57.66 110.43 55.91C116.05 54.21 121.81 54.9799 123.33 57.7299Z" fill="#FFEC22"/>
<g opacity="0.7">
<path d="M74.46 73.96L66.1 76.2299V83.84C65.78 83.66 65.42 83.56 65.03 83.56C63.82 83.56 62.83 84.5399 62.83 85.7599C62.83 86.9799 63.81 87.96 65.03 87.96C66.25 87.96 67.23 86.9799 67.23 85.7599C67.23 85.5699 67.21 85.39 67.16 85.21V78.53L73.25 76.82V81.7C72.93 81.52 72.57 81.42 72.18 81.42C70.97 81.42 69.98 82.3999 69.98 83.6199C69.98 84.8399 70.96 85.82 72.18 85.82C73.4 85.82 74.38 84.8399 74.38 83.6199C74.38 83.5499 74.38 83.49 74.38 83.42L74.48 83.56V73.95L74.46 73.96Z" fill="#F7EA00"/>
</g>
<g opacity="0.7">
<path d="M104.74 27.96L98.13 29.3V33.8C97.88 33.69 97.59 33.63 97.28 33.63C96.32 33.63 95.54 34.2099 95.54 34.9299C95.54 35.6499 96.32 36.2299 97.28 36.2299C98.24 36.2299 99.02 35.6499 99.02 34.9299C99.02 34.8199 99 34.71 98.97 34.61V30.67L103.78 29.66V32.5399C103.53 32.4299 103.24 32.3699 102.93 32.3699C101.97 32.3699 101.19 32.95 101.19 33.67C101.19 34.39 101.97 34.97 102.93 34.97C103.89 34.97 104.67 34.39 104.67 33.67C104.67 33.63 104.67 33.59 104.67 33.55L104.75 33.64V27.96H104.74Z" fill="#F7EA00"/>
</g>
<g opacity="0.7">
<path d="M148.08 97.96L143.14 99.3V103.8C142.95 103.69 142.74 103.63 142.5 103.63C141.78 103.63 141.2 104.21 141.2 104.93C141.2 105.65 141.78 106.23 142.5 106.23C143.22 106.23 143.8 105.65 143.8 104.93C143.8 104.82 143.79 104.71 143.76 104.61V100.67L147.36 99.66V102.54C147.17 102.43 146.96 102.37 146.73 102.37C146.01 102.37 145.43 102.95 145.43 103.67C145.43 104.39 146.01 104.97 146.73 104.97C147.45 104.97 148.03 104.39 148.03 103.67C148.03 103.63 148.03 103.59 148.03 103.55L148.09 103.64V97.96H148.08Z" fill="#F7EA00"/>
</g>
<path d="M120.27 147.6L115.59 140.13V136.76H116.66C117.2 136.76 117.64 136.32 117.64 135.78V132.44C117.64 131.9 117.2 131.46 116.66 131.46H103.95C103.41 131.46 102.97 131.9 102.97 132.44V135.78C102.97 136.32 103.41 136.76 103.95 136.76H105.02V140.13L100.34 147.6C99.97 148.18 100 148.93 100.39 149.49L108.92 161.49C109.09 161.73 109.31 161.91 109.54 162.03V148.82C109.08 148.55 108.76 148.06 108.76 147.49C108.76 146.64 109.45 145.95 110.3 145.95C111.15 145.95 111.84 146.64 111.84 147.49C111.84 148.06 111.52 148.56 111.06 148.82V162.03C111.3 161.91 111.52 161.73 111.68 161.49L120.21 149.49C120.61 148.93 120.63 148.18 120.26 147.6H120.27Z" fill="#FFF035"/>
<path d="M108.18 114.7C91.4 114.92 78.28 117.06 78.66 119.65C79.04 122.23 92.85 124.32 110.01 124.39C117.39 124.42 126.87 124.61 132.29 124.01C133.74 123.85 134.12 122.96 132.83 122.77L127.1 122.2C126.41 122.1 124.3 121.93 124.87 121.82L129.14 120.96C129.76 120.84 130.93 120.81 131.77 120.9L137.18 121.47C137.84 121.54 140.84 121.39 141.18 121.28C142.79 120.75 143.03 120.45 143.26 119.85C144.46 116.77 128.68 114.43 108.2 114.7H108.18ZM88.53 120.82C85.78 120.82 83.55 120.51 83.55 120.12C83.55 119.73 85.78 119.42 88.53 119.42C91.28 119.42 93.51 119.73 93.51 120.12C93.51 120.51 91.28 120.82 88.53 120.82ZM100.06 122.22C97.31 122.22 95.08 121.91 95.08 121.52C95.08 121.13 97.31 120.82 100.06 120.82C102.81 120.82 105.04 121.13 105.04 121.52C105.04 121.91 102.81 122.22 100.06 122.22ZM112.4 123.12C109.65 123.12 107.42 122.81 107.42 122.42C107.42 122.03 109.65 121.72 112.4 121.72C115.15 121.72 117.38 122.03 117.38 122.42C117.38 122.81 115.15 123.12 112.4 123.12Z" fill="#FFF035"/>
</svg>
