<svg width="322" height="104" viewBox="0 0 322 104" fill="none" xmlns="http://www.w3.org/2000/svg">
<path d="M114.35 27.67H105V25.24H126.51V27.67H117.16V51.84H114.35V27.67Z" fill="#1B459C"/>
<path d="M157.75 44.73H142.93L139.74 51.84H136.81L148.97 25.24H151.74L163.9 51.84H160.94L157.75 44.73ZM156.72 42.45L150.34 28.16L143.96 42.45H156.73H156.72Z" fill="#1B459C"/>
<path d="M197.88 51.83L191.8 43.28C191.12 43.36 190.41 43.39 189.67 43.39H182.53V51.83H179.72V25.23H189.68C193.07 25.23 195.73 26.04 197.66 27.66C199.58 29.28 200.55 31.51 200.55 34.35C200.55 36.43 200.02 38.18 198.97 39.61C197.92 41.04 196.42 42.07 194.47 42.71L200.97 51.83H197.89H197.88ZM195.63 39.25C197.02 38.08 197.72 36.45 197.72 34.35C197.72 32.25 197.02 30.54 195.63 29.39C194.24 28.24 192.22 27.66 189.59 27.66H182.52V41H189.59C192.22 41 194.24 40.42 195.63 39.25Z" fill="#1B459C"/>
<path d="M235.27 44.73H220.45L217.26 51.84H214.33L226.49 25.24H229.26L241.42 51.84H238.46L235.27 44.73ZM234.24 42.45L227.86 28.16L221.48 42.45H234.25H234.24Z" fill="#1B459C"/>
<path d="M279.46 25.23V51.83H277.14L260.04 30.25V51.83H257.23V25.23H259.55L276.69 46.81V25.23H279.46Z" fill="#1B459C"/>
<path d="M318.26 38.53H320.96V48.68C319.72 49.77 318.25 50.61 316.55 51.19C314.85 51.77 313.07 52.06 311.19 52.06C308.53 52.06 306.14 51.48 304.01 50.31C301.88 49.14 300.21 47.53 298.99 45.46C297.77 43.4 297.17 41.08 297.17 38.53C297.17 35.98 297.78 33.66 298.99 31.59C300.21 29.53 301.88 27.91 304.01 26.75C306.14 25.58 308.54 25 311.23 25C313.26 25 315.12 25.32 316.82 25.97C318.52 26.62 319.95 27.57 321.11 28.84L319.36 30.63C317.26 28.55 314.58 27.51 311.34 27.51C309.19 27.51 307.24 27.99 305.51 28.94C303.77 29.89 302.41 31.21 301.43 32.89C300.44 34.58 299.95 36.46 299.95 38.53C299.95 40.6 300.44 42.48 301.43 44.15C302.42 45.82 303.77 47.14 305.5 48.1C307.23 49.06 309.16 49.54 311.31 49.54C314.05 49.54 316.36 48.86 318.26 47.49V38.52V38.53Z" fill="#1B459C"/>
<path d="M172.58 79.67C171.67 79.35 170.97 78.94 170.48 78.42L171.03 77.34C171.51 77.82 172.15 78.21 172.95 78.51C173.75 78.81 174.57 78.96 175.42 78.96C176.61 78.96 177.5 78.74 178.1 78.3C178.7 77.86 178.99 77.3 178.99 76.6C178.99 76.07 178.83 75.64 178.51 75.33C178.19 75.01 177.79 74.77 177.32 74.6C176.85 74.43 176.2 74.24 175.36 74.04C174.36 73.79 173.56 73.54 172.97 73.31C172.37 73.08 171.86 72.72 171.44 72.24C171.02 71.76 170.8 71.11 170.8 70.28C170.8 69.61 170.98 69 171.33 68.45C171.68 67.9 172.23 67.46 172.96 67.13C173.69 66.8 174.61 66.64 175.7 66.64C176.46 66.64 177.2 66.74 177.93 66.95C178.66 67.16 179.29 67.45 179.82 67.81L179.34 68.93C178.78 68.56 178.19 68.29 177.55 68.1C176.92 67.92 176.3 67.82 175.69 67.82C174.52 67.82 173.65 68.04 173.06 68.49C172.47 68.94 172.18 69.52 172.18 70.23C172.18 70.76 172.34 71.19 172.66 71.51C172.98 71.83 173.39 72.08 173.88 72.25C174.37 72.42 175.02 72.61 175.85 72.81C176.83 73.05 177.61 73.29 178.22 73.52C178.82 73.75 179.33 74.11 179.75 74.58C180.17 75.05 180.38 75.7 180.38 76.51C180.38 77.18 180.2 77.79 179.84 78.34C179.48 78.89 178.92 79.33 178.18 79.65C177.43 79.97 176.51 80.13 175.43 80.13C174.44 80.13 173.49 79.97 172.59 79.65L172.58 79.67Z" fill="#231F20"/>
<path d="M193.75 75.45H185.39C185.47 76.49 185.87 77.33 186.59 77.97C187.31 78.61 188.22 78.93 189.33 78.93C189.95 78.93 190.52 78.82 191.04 78.6C191.56 78.38 192.01 78.05 192.39 77.62L193.15 78.49C192.71 79.02 192.15 79.43 191.49 79.71C190.82 79.99 190.09 80.13 189.3 80.13C188.27 80.13 187.36 79.91 186.57 79.47C185.78 79.03 185.16 78.43 184.72 77.66C184.28 76.89 184.05 76.01 184.05 75.04C184.05 74.07 184.26 73.19 184.69 72.42C185.11 71.65 185.7 71.05 186.44 70.62C187.18 70.19 188.01 69.97 188.94 69.97C189.87 69.97 190.69 70.19 191.43 70.62C192.16 71.05 192.74 71.65 193.16 72.41C193.58 73.18 193.79 74.05 193.79 75.04L193.77 75.46L193.75 75.45ZM186.51 72.04C185.86 72.65 185.49 73.46 185.4 74.44H192.49C192.4 73.45 192.03 72.65 191.38 72.04C190.73 71.43 189.91 71.12 188.94 71.12C187.97 71.12 187.17 71.43 186.52 72.04H186.51Z" fill="#231F20"/>
<path d="M204.64 70.9399C205.34 71.5899 205.68 72.5599 205.68 73.8399V80.0299H204.39V78.4699C204.09 78.9899 203.64 79.3899 203.05 79.6899C202.46 79.9899 201.76 80.1299 200.95 80.1299C199.84 80.1299 198.95 79.8599 198.29 79.3299C197.63 78.7999 197.3 78.0899 197.3 77.2199C197.3 76.3499 197.61 75.69 198.22 75.17C198.83 74.65 199.81 74.39 201.16 74.39H204.33V73.7799C204.33 72.9199 204.09 72.2599 203.61 71.8099C203.13 71.3599 202.43 71.14 201.5 71.14C200.87 71.14 200.26 71.24 199.68 71.45C199.1 71.66 198.6 71.9499 198.18 72.3099L197.57 71.2999C198.08 70.8699 198.68 70.5399 199.39 70.2999C200.1 70.0699 200.85 69.95 201.63 69.95C202.93 69.95 203.93 70.2799 204.63 70.9299L204.64 70.9399ZM203.12 78.5399C203.66 78.1899 204.07 77.6899 204.34 77.0299V75.3999H201.2C199.49 75.3999 198.64 75.9999 198.64 77.1899C198.64 77.7699 198.86 78.2299 199.31 78.5699C199.75 78.9099 200.37 79.0699 201.17 79.0699C201.97 79.0699 202.58 78.8999 203.13 78.5499L203.12 78.5399Z" fill="#231F20"/>
<path d="M211.6 79.7699C210.86 79.5399 210.28 79.24 209.86 78.89L210.47 77.8299C210.89 78.1599 211.41 78.43 212.05 78.64C212.68 78.85 213.34 78.95 214.03 78.95C214.94 78.95 215.62 78.8099 216.05 78.5199C216.49 78.2299 216.71 77.8299 216.71 77.3099C216.71 76.9399 216.59 76.65 216.35 76.45C216.11 76.24 215.81 76.0799 215.44 75.9699C215.07 75.8599 214.58 75.7599 213.98 75.6599C213.17 75.5099 212.52 75.3499 212.02 75.1899C211.53 75.0299 211.1 74.7599 210.76 74.3799C210.41 73.9999 210.24 73.4699 210.24 72.7999C210.24 71.9599 210.59 71.2799 211.28 70.7499C211.98 70.2199 212.95 69.95 214.19 69.95C214.84 69.95 215.48 70.0399 216.13 70.2099C216.78 70.3799 217.31 70.6099 217.73 70.8799L217.14 71.9599C216.32 71.3899 215.34 71.0999 214.2 71.0999C213.34 71.0999 212.69 71.2499 212.25 71.5599C211.81 71.8599 211.59 72.2599 211.59 72.7599C211.59 73.1399 211.71 73.44 211.96 73.67C212.21 73.9 212.51 74.07 212.88 74.17C213.25 74.28 213.75 74.3899 214.4 74.4999C215.2 74.6499 215.84 74.7999 216.32 74.9599C216.8 75.1099 217.21 75.3699 217.55 75.7399C217.89 76.1099 218.06 76.6099 218.06 77.2599C218.06 78.1299 217.7 78.8299 216.97 79.3399C216.24 79.8499 215.23 80.1099 213.94 80.1099C213.13 80.1099 212.35 79.9899 211.61 79.7599L211.6 79.7699Z" fill="#231F20"/>
<path d="M223.92 79.47C223.15 79.03 222.54 78.43 222.1 77.66C221.66 76.89 221.43 76.01 221.43 75.04C221.43 74.07 221.65 73.19 222.1 72.42C222.55 71.65 223.15 71.05 223.92 70.62C224.69 70.19 225.56 69.97 226.52 69.97C227.48 69.97 228.35 70.19 229.12 70.62C229.89 71.05 230.5 71.65 230.93 72.42C231.37 73.19 231.59 74.07 231.59 75.04C231.59 76.01 231.37 76.89 230.93 77.66C230.49 78.43 229.89 79.04 229.12 79.47C228.35 79.91 227.48 80.13 226.52 80.13C225.56 80.13 224.69 79.91 223.92 79.47ZM228.44 78.44C229 78.12 229.44 77.66 229.76 77.06C230.08 76.46 230.24 75.79 230.24 75.03C230.24 74.27 230.08 73.59 229.76 73C229.44 72.41 229 71.95 228.44 71.62C227.88 71.3 227.24 71.14 226.53 71.14C225.82 71.14 225.18 71.3 224.62 71.62C224.06 71.94 223.61 72.4 223.29 73C222.97 73.6 222.81 74.27 222.81 75.03C222.81 75.79 222.97 76.47 223.29 77.06C223.61 77.66 224.06 78.11 224.62 78.44C225.18 78.76 225.82 78.93 226.53 78.93C227.24 78.93 227.88 78.77 228.44 78.44Z" fill="#231F20"/>
<path d="M244.34 71.0499C245.08 71.7799 245.45 72.8399 245.45 74.2299V80.0199H244.1V74.3599C244.1 73.3199 243.84 72.5299 243.32 71.9799C242.8 71.4399 242.06 71.1599 241.1 71.1599C240.02 71.1599 239.17 71.4799 238.54 72.1199C237.91 72.7599 237.6 73.6399 237.6 74.7699V80.0099H236.25V70.0199H237.54V71.8599C237.91 71.2499 238.42 70.7799 239.07 70.4399C239.72 70.0999 240.48 69.9399 241.34 69.9399C242.59 69.9399 243.59 70.2999 244.33 71.0299L244.34 71.0499Z" fill="#231F20"/>
<path d="M259.11 78.81V80.03H249.78V79.06L255.31 73.64C256.01 72.96 256.48 72.36 256.73 71.86C256.98 71.36 257.1 70.86 257.1 70.35C257.1 69.56 256.83 68.95 256.29 68.52C255.75 68.08 254.98 67.86 253.98 67.86C252.42 67.86 251.21 68.35 250.35 69.34L249.38 68.5C249.9 67.89 250.56 67.42 251.37 67.09C252.17 66.76 253.08 66.6 254.1 66.6C255.45 66.6 256.53 66.92 257.32 67.56C258.11 68.2 258.51 69.08 258.51 70.19C258.51 70.87 258.36 71.53 258.05 72.17C257.75 72.8 257.17 73.53 256.32 74.35L251.8 78.8H259.12L259.11 78.81Z" fill="#231F20"/>
<g opacity="0.8">
<path d="M0.188802 62.8257C2.09315 39.1186 33.0756 0 42.9275 0C52.7793 0 83.9445 39.1127 85.6661 62.8257C88.4136 100.736 56.2638 103.141 42.9275 103.141C29.5912 103.141 -2.7591 99.5919 0.188802 62.8257Z" fill="#4378BC"/>
</g>
<path d="M84.0212 43.1043C82.1935 65.868 52.4433 103.43 42.9805 103.43C33.5177 103.43 3.59067 65.8739 1.93984 43.1043C-0.701477 6.70361 30.1689 4.39246 42.9805 4.39246C55.7921 4.39246 86.8512 7.80023 84.0212 43.1043Z" fill="#1B459C"/>
<path d="M42.2789 100.429C42.2789 100.429 42.2436 100.429 42.2259 100.429C41.8603 100.364 41.4594 100.252 41.0408 100.093C40.8875 100.034 40.8109 99.8632 40.8698 99.7158C40.9288 99.5625 41.0998 99.4859 41.2472 99.5448C41.6304 99.6922 41.9959 99.7924 42.332 99.8514C42.4912 99.8809 42.5973 100.034 42.5678 100.193C42.5442 100.335 42.4204 100.435 42.2789 100.435V100.429ZM44.5901 100.187C44.4663 100.187 44.3543 100.111 44.313 99.987C44.2599 99.8337 44.3425 99.6627 44.4958 99.6156C44.8259 99.5035 45.1856 99.3561 45.5511 99.1734C45.6985 99.1026 45.8754 99.1616 45.9461 99.309C46.0169 99.4564 45.9579 99.6332 45.8105 99.704C45.4214 99.8927 45.0382 100.052 44.6844 100.17C44.6549 100.182 44.6196 100.187 44.5901 100.187ZM39.0244 99.0437C38.9714 99.0437 38.9183 99.0319 38.8712 99.0024C38.541 98.8019 38.2049 98.5838 37.863 98.348C37.7274 98.2536 37.692 98.0709 37.7863 97.9411C37.8807 97.8055 38.0634 97.7761 38.199 97.8645C38.5351 98.0944 38.8653 98.3067 39.1836 98.5012C39.3251 98.5838 39.3664 98.7666 39.2839 98.9081C39.2308 99.0024 39.1306 99.0496 39.0303 99.0496L39.0244 99.0437ZM47.7325 98.5366C47.6382 98.5366 47.5439 98.4895 47.4849 98.4069C47.3965 98.2713 47.4319 98.0885 47.5675 98.0001C47.8799 97.7879 48.1983 97.5638 48.5285 97.3221C48.6582 97.2277 48.841 97.2513 48.9412 97.381C49.0355 97.5107 49.0119 97.6994 48.8763 97.7938C48.5403 98.0414 48.216 98.2713 47.8976 98.4836C47.8505 98.5189 47.7915 98.5307 47.7325 98.5307V98.5366ZM36.1237 96.9801C36.0589 96.9801 35.994 96.9565 35.9409 96.9153C35.6403 96.6735 35.3337 96.42 35.0212 96.1547C34.8974 96.0486 34.8797 95.8658 34.9858 95.742C35.0919 95.6182 35.2806 95.6064 35.4044 95.7066C35.711 95.9661 36.0117 96.2196 36.3124 96.4554C36.4362 96.5556 36.4598 96.7443 36.3596 96.8681C36.3006 96.9389 36.218 96.9801 36.1296 96.9801H36.1237ZM50.5625 96.3729C50.48 96.3729 50.3974 96.3375 50.3385 96.2667C50.2324 96.1429 50.2501 95.9543 50.3739 95.854C50.6687 95.6064 50.9635 95.347 51.2641 95.0817C51.3879 94.9756 51.5707 94.9815 51.6827 95.1053C51.7889 95.2291 51.7771 95.4118 51.6591 95.5239C51.3526 95.7951 51.0519 96.0545 50.7571 96.308C50.704 96.3552 50.6333 96.3788 50.5684 96.3788L50.5625 96.3729ZM33.4352 94.6395C33.3645 94.6395 33.2878 94.6159 33.2348 94.5628C32.9459 94.2975 32.6629 94.0204 32.3681 93.7374C32.2502 93.6254 32.2502 93.4368 32.3622 93.3188C32.4742 93.2009 32.6629 93.2009 32.7808 93.3129C33.0697 93.59 33.3527 93.8613 33.6357 94.1266C33.7536 94.2386 33.7595 94.4214 33.6475 94.5452C33.5885 94.61 33.5119 94.6395 33.4293 94.6395H33.4352ZM53.198 93.9792C53.1213 93.9792 53.0447 93.9497 52.9857 93.8907C52.8737 93.7728 52.8737 93.5841 52.9916 93.4721C53.2687 93.2009 53.5517 92.9238 53.8347 92.6467C53.9526 92.5288 54.1354 92.5288 54.2533 92.6467C54.3712 92.7646 54.3712 92.9474 54.2533 93.0653C53.9703 93.3483 53.6814 93.6313 53.4043 93.9025C53.3453 93.9556 53.2746 93.9851 53.198 93.9851V93.9792ZM30.8941 92.1338C30.8175 92.1338 30.7409 92.1043 30.6819 92.0453C30.4107 91.7624 30.1336 91.4735 29.8624 91.1846C29.7503 91.0667 29.7563 90.878 29.8742 90.766C29.9921 90.6539 30.1807 90.6598 30.2928 90.7778C30.564 91.0666 30.8411 91.3555 31.1064 91.6326C31.2184 91.7506 31.2184 91.9392 31.1005 92.0512C31.0415 92.1043 30.9708 92.1338 30.8941 92.1338ZM55.7037 91.444C55.6329 91.444 55.5563 91.4204 55.5032 91.3614C55.3853 91.2494 55.3794 91.0608 55.4914 90.9428C55.7567 90.6598 56.0279 90.3709 56.2991 90.0762C56.4112 89.9582 56.5939 89.9464 56.7178 90.0585C56.8357 90.1705 56.8475 90.3533 56.7354 90.4771C56.4642 90.7719 56.193 91.0667 55.9218 91.3496C55.8629 91.4086 55.7862 91.444 55.7096 91.444H55.7037ZM28.471 89.5219C28.3884 89.5219 28.3118 89.4866 28.2528 89.4217C27.9934 89.1269 27.7281 88.8321 27.4628 88.5256C27.3566 88.4017 27.3685 88.219 27.4923 88.1069C27.6161 88.0008 27.7988 88.0126 27.9109 88.1364C28.1703 88.4371 28.4356 88.7319 28.695 89.0267C28.8011 89.1505 28.7952 89.3333 28.6714 89.4453C28.6125 89.4925 28.5476 89.5219 28.4769 89.5219H28.471ZM58.0915 88.8027C58.0207 88.8027 57.9559 88.7791 57.8969 88.7319C57.7731 88.6258 57.7613 88.4371 57.8674 88.3133C58.1268 88.0185 58.3804 87.7178 58.6398 87.4171C58.7459 87.2933 58.9346 87.2815 59.0584 87.3818C59.1822 87.4879 59.1999 87.6707 59.0938 87.8004C58.8343 88.1069 58.5749 88.4076 58.3155 88.7024C58.2566 88.7673 58.174 88.8027 58.0915 88.8027ZM26.148 86.8276C26.0655 86.8276 25.977 86.7922 25.924 86.7214C25.6705 86.4208 25.4169 86.1142 25.1693 85.8017C25.0691 85.6779 25.0868 85.4892 25.2106 85.389C25.3344 85.2888 25.5231 85.3064 25.6233 85.4303C25.8768 85.7368 26.1244 86.0434 26.3779 86.3441C26.4841 86.4679 26.4664 86.6566 26.3426 86.7568C26.2895 86.804 26.2188 86.8276 26.1539 86.8276H26.148ZM60.3908 86.0788C60.326 86.0788 60.2611 86.0552 60.2022 86.0139C60.0783 85.9137 60.0548 85.725 60.1609 85.6012C60.4085 85.2947 60.6561 84.9881 60.9038 84.6815C61.004 84.5518 61.1927 84.5341 61.3165 84.6343C61.4462 84.7346 61.4639 84.9232 61.3636 85.047C61.116 85.3595 60.8625 85.6661 60.6149 85.9727C60.5559 86.0434 60.4734 86.0788 60.3849 86.0788H60.3908ZM23.9076 84.0506C23.8192 84.0506 23.7366 84.0094 23.6777 83.9386C23.436 83.6261 23.1883 83.3137 22.9466 83.0012C22.8464 82.8715 22.87 82.6887 22.9997 82.5885C23.1294 82.4883 23.3121 82.5118 23.4124 82.6415C23.6541 82.954 23.8958 83.2665 24.1376 83.579C24.2378 83.7087 24.2142 83.8915 24.0904 83.9917C24.0373 84.033 23.9725 84.0565 23.9076 84.0565V84.0506ZM62.6017 83.2842C62.5369 83.2842 62.4779 83.2665 62.4249 83.2252C62.2952 83.125 62.2716 82.9422 62.3718 82.8125C62.6136 82.5 62.8494 82.1876 63.0911 81.8692C63.1913 81.7395 63.3741 81.7159 63.5038 81.8102C63.6335 81.9105 63.6571 82.0932 63.5628 82.2229C63.321 82.5413 63.0852 82.8597 62.8435 83.1722C62.7845 83.2488 62.6961 83.2901 62.6077 83.2901L62.6017 83.2842ZM21.7498 81.2148C21.6613 81.2148 21.5729 81.1735 21.5139 81.0968C21.2781 80.7785 21.0422 80.4601 20.8123 80.1358C20.718 80.0061 20.7475 79.8175 20.8772 79.7231C21.0069 79.6288 21.1955 79.6583 21.2899 79.788C21.5257 80.1063 21.7556 80.4247 21.9915 80.7431C22.0858 80.8728 22.0622 81.0615 21.9266 81.1558C21.8736 81.1971 21.8146 81.2148 21.7498 81.2148ZM64.7301 80.4306C64.6712 80.4306 64.6063 80.4129 64.5592 80.3717C64.4295 80.2773 64.4 80.0946 64.4943 79.959C64.7243 79.6406 64.9542 79.3222 65.1841 78.9979C65.2784 78.8623 65.4612 78.8329 65.5968 78.9272C65.7265 79.0215 65.7619 79.2043 65.6676 79.3399C65.4376 79.6642 65.2077 79.9884 64.9719 80.3068C64.9129 80.3835 64.8245 80.4306 64.7301 80.4306ZM19.6744 78.3258C19.5801 78.3258 19.4917 78.2845 19.4327 78.202C19.2087 77.8777 18.9787 77.5535 18.7547 77.2233C18.6604 77.0877 18.6957 76.9049 18.8313 76.8165C18.9669 76.7281 19.1497 76.7575 19.244 76.8931C19.4681 77.2174 19.6921 77.5417 19.9162 77.8659C20.0105 78.0015 19.9751 78.1843 19.8454 78.2786C19.7923 78.314 19.7334 78.3317 19.6744 78.3317V78.3258ZM66.7819 77.5181C66.7229 77.5181 66.664 77.5004 66.6168 77.465C66.4812 77.3707 66.4458 77.1879 66.5401 77.0523C66.7642 76.7281 66.9823 76.3979 67.2064 76.0736C67.3007 75.938 67.4835 75.9026 67.6132 75.9911C67.7488 76.0795 67.7842 76.2623 67.6957 76.3979C67.4717 76.7281 67.2535 77.0582 67.0295 77.3825C66.9705 77.465 66.8821 77.5122 66.7878 77.5122L66.7819 77.5181ZM17.6816 75.3779C17.5873 75.3779 17.493 75.3308 17.434 75.2423C17.2159 74.9122 16.9977 74.582 16.7855 74.2459C16.6971 74.1103 16.7383 73.9275 16.8739 73.8391C17.0095 73.7507 17.1923 73.7919 17.2807 73.9275C17.493 74.2577 17.7111 74.5879 17.9234 74.918C18.0118 75.0536 17.9764 75.2364 17.8408 75.3249C17.7937 75.3602 17.7347 75.372 17.6816 75.372V75.3779ZM68.757 74.5525C68.7039 74.5525 68.645 74.5348 68.5978 74.5053C68.4622 74.4169 68.4209 74.2341 68.5094 74.0985C68.7216 73.7684 68.9338 73.4323 69.1461 73.1021C69.2345 72.9665 69.4173 72.9253 69.5529 73.0137C69.6885 73.1021 69.7298 73.2849 69.6472 73.4205C69.435 73.7566 69.2227 74.0926 69.0046 74.4228C68.9456 74.5112 68.8513 74.5584 68.757 74.5584V74.5525ZM15.7655 72.377C15.6653 72.377 15.571 72.3298 15.5179 72.2355C15.3056 71.8994 15.0993 71.5574 14.8929 71.2155C14.8104 71.074 14.8517 70.8971 14.9932 70.8087C15.1347 70.7261 15.3115 70.7674 15.4 70.9089C15.6063 71.245 15.8127 71.5869 16.019 71.923C16.1075 72.0586 16.0603 72.2414 15.9247 72.3298C15.8775 72.3593 15.8245 72.3711 15.7714 72.3711L15.7655 72.377ZM70.6495 71.528C70.5965 71.528 70.5434 71.5162 70.4962 71.4867C70.3547 71.4041 70.3135 71.2214 70.396 71.0799C70.6024 70.7438 70.8028 70.4019 71.0033 70.0658C71.0858 69.9243 71.2686 69.8771 71.4042 69.9656C71.5457 70.0481 71.5928 70.2309 71.5044 70.3724C71.304 70.7143 71.0976 71.0563 70.8912 71.3924C70.8382 71.4867 70.738 71.5339 70.6377 71.5339L70.6495 71.528ZM13.9319 69.317C13.8317 69.317 13.7315 69.264 13.6784 69.1696C13.4779 68.8277 13.2834 68.4798 13.0888 68.1379C13.0063 67.9964 13.0593 67.8136 13.2008 67.737C13.3423 67.6544 13.5192 67.7075 13.6018 67.849C13.7963 68.1909 13.9909 68.5329 14.1913 68.8748C14.2739 69.0163 14.2267 69.1932 14.0852 69.2758C14.038 69.3052 13.985 69.317 13.9378 69.317H13.9319ZM72.4477 68.4621C72.4006 68.4621 72.3475 68.4503 72.3003 68.4268C72.1588 68.3442 72.1058 68.1674 72.1883 68.0259C72.3829 67.6839 72.5775 67.3419 72.7661 66.9941C72.8428 66.8526 73.0255 66.7995 73.167 66.8762C73.3085 66.9528 73.3616 67.1356 73.2849 67.2771C73.0963 67.6249 72.9017 67.9669 72.7072 68.3088C72.6541 68.4032 72.5539 68.4562 72.4477 68.4562V68.4621ZM12.2044 66.2041C12.0983 66.2041 11.9981 66.1451 11.945 66.0508C11.7564 65.7029 11.5736 65.3492 11.3908 65.0013C11.3142 64.8598 11.3731 64.677 11.5146 64.6063C11.662 64.5296 11.8389 64.5886 11.9097 64.7301C12.0924 65.078 12.2752 65.4258 12.4639 65.7737C12.5405 65.9152 12.4874 66.0979 12.346 66.1746C12.2988 66.1982 12.2516 66.2099 12.2044 66.2099V66.2041ZM74.1516 65.3374C74.1045 65.3374 74.0573 65.3256 74.016 65.302C73.8745 65.2253 73.8156 65.0485 73.8922 64.907C74.075 64.5591 74.2578 64.2054 74.4346 63.8575C74.5054 63.7101 74.6882 63.6571 74.8297 63.7278C74.977 63.7986 75.0301 63.9813 74.9594 64.1228C74.7825 64.4766 74.5997 64.8303 74.411 65.1782C74.358 65.2784 74.2577 65.3374 74.1516 65.3374ZM10.5772 63.038C10.4711 63.038 10.365 62.979 10.3119 62.8729C10.135 62.5133 9.96405 62.1595 9.79307 61.7999C9.72232 61.6525 9.78718 61.4756 9.93457 61.4049C10.082 61.3341 10.2588 61.399 10.3296 61.5464C10.5006 61.9001 10.6715 62.2598 10.8425 62.6135C10.9133 62.7609 10.8543 62.9378 10.7069 63.0085C10.6656 63.0262 10.6185 63.038 10.5772 63.038ZM75.7494 62.1536C75.7081 62.1536 75.661 62.1418 75.6197 62.1242C75.4723 62.0534 75.4133 61.8765 75.4782 61.7291C75.6492 61.3695 75.8201 61.0157 75.9793 60.6561C76.0501 60.5087 76.2211 60.4438 76.3684 60.5146C76.5158 60.5853 76.5807 60.7563 76.5099 60.9037C76.3449 61.2634 76.1739 61.623 76.0029 61.9827C75.9498 62.0888 75.8496 62.1477 75.7376 62.1477L75.7494 62.1536ZM9.06789 59.8071C8.95587 59.8071 8.84384 59.7422 8.79668 59.6302C8.63749 59.2647 8.4783 58.8992 8.32501 58.5395C8.26016 58.3921 8.33091 58.2152 8.47831 58.1504C8.6257 58.0855 8.80257 58.1563 8.86742 58.3096C9.02071 58.6692 9.1799 59.0348 9.33909 59.3944C9.40394 59.5418 9.33909 59.7187 9.19169 59.7835C9.15042 59.8012 9.11505 59.8071 9.07378 59.8071H9.06789ZM77.2233 58.9109C77.1821 58.9109 77.1467 58.905 77.1054 58.8874C76.958 58.8225 76.8873 58.6515 76.9521 58.4982C77.1054 58.1327 77.2587 57.7731 77.412 57.4075C77.4769 57.2542 77.6478 57.1894 77.7952 57.2483C77.9426 57.3073 78.0193 57.4842 77.9544 57.6316C77.807 57.9971 77.6478 58.3626 77.4945 58.7282C77.4474 58.8402 77.3354 58.905 77.2233 58.905V58.9109ZM7.70596 56.5172C7.58804 56.5172 7.47602 56.4465 7.42886 56.3286C7.28736 55.9571 7.14585 55.5857 7.01025 55.2143C6.95719 55.061 7.03383 54.89 7.18713 54.8369C7.34042 54.7839 7.51139 54.8605 7.56446 55.0138C7.70006 55.3794 7.83566 55.7508 7.98305 56.1222C8.04201 56.2755 7.96537 56.4465 7.81208 56.5055C7.7767 56.5173 7.74133 56.5231 7.70596 56.5231V56.5172ZM78.5499 55.6034C78.5145 55.6034 78.4791 55.6034 78.4497 55.5857C78.2964 55.5267 78.2197 55.3617 78.2787 55.2084C78.4143 54.8369 78.5499 54.4655 78.6796 54.1C78.7327 53.9467 78.9036 53.8641 79.0569 53.9172C79.2102 53.9703 79.2928 54.1412 79.2397 54.2945C79.11 54.666 78.9744 55.0433 78.8329 55.4147C78.7857 55.5326 78.6737 55.6093 78.5558 55.6093L78.5499 55.6034ZM6.515 53.1625C6.39119 53.1625 6.27328 53.0859 6.23201 52.9562C6.1082 52.573 5.99028 52.1956 5.87826 51.8183C5.83109 51.665 5.91953 51.4999 6.07871 51.4528C6.2379 51.4056 6.39708 51.494 6.44425 51.6532C6.55627 52.0246 6.67419 52.402 6.79211 52.7793C6.83927 52.9326 6.75673 53.0977 6.60344 53.1507C6.57396 53.1625 6.54448 53.1625 6.515 53.1625ZM79.6937 52.231C79.6937 52.231 79.6347 52.231 79.6052 52.2192C79.4519 52.172 79.3635 52.007 79.4107 51.8537C79.5286 51.4763 79.6347 51.099 79.7408 50.7217C79.7821 50.5625 79.9472 50.4741 80.1064 50.5153C80.2656 50.5566 80.354 50.7217 80.3127 50.8809C80.2066 51.2582 80.0946 51.6414 79.9767 52.0246C79.9354 52.1544 79.8234 52.231 79.6937 52.231ZM5.54809 49.7371C5.41249 49.7371 5.29457 49.6486 5.2592 49.513C5.16486 49.1239 5.07643 48.7348 4.99389 48.3457C4.95851 48.1865 5.05874 48.0273 5.21793 47.9978C5.37712 47.9624 5.5363 48.0627 5.56578 48.2219C5.64832 48.6051 5.73676 48.9824 5.83109 49.3715C5.87236 49.5307 5.77213 49.6899 5.61295 49.7253C5.58936 49.7253 5.56577 49.7312 5.54219 49.7312L5.54809 49.7371ZM80.6075 48.7938C80.6075 48.7938 80.5662 48.7937 80.5427 48.7878C80.3835 48.7525 80.2833 48.5933 80.3186 48.4341C80.4071 48.045 80.4837 47.6618 80.5604 47.2785C80.5898 47.1193 80.749 47.0132 80.9082 47.0427C81.0674 47.0722 81.1735 47.2255 81.144 47.3905C81.0674 47.7797 80.9849 48.1688 80.8964 48.5638C80.8669 48.6994 80.7431 48.7938 80.6075 48.7938ZM4.85829 46.2468C4.71679 46.2468 4.58708 46.1406 4.56939 45.9932C4.51043 45.5923 4.46326 45.1973 4.42199 44.8082C4.40431 44.649 4.52222 44.5016 4.68141 44.4839C4.8347 44.4662 4.98799 44.5841 5.00568 44.7433C5.04695 45.1266 5.09412 45.5157 5.15308 45.9107C5.17666 46.0699 5.06464 46.2232 4.90545 46.2468C4.89366 46.2468 4.87597 46.2468 4.86418 46.2468H4.85829ZM81.2266 45.2857C81.2266 45.2857 81.203 45.2857 81.1912 45.2857C81.032 45.2681 80.9141 45.1207 80.9377 44.9556C80.9849 44.5606 81.0261 44.1714 81.0556 43.7882C81.0674 43.6231 81.2089 43.5052 81.374 43.517C81.5391 43.5288 81.657 43.6703 81.6452 43.8354C81.6157 44.2304 81.5744 44.6254 81.5214 45.0263C81.5037 45.1737 81.374 45.2857 81.2266 45.2857ZM4.53991 42.7034C4.38072 42.7034 4.25101 42.5796 4.24512 42.4204C4.22743 42.0195 4.20974 41.6245 4.19795 41.2294C4.19795 41.0644 4.32176 40.9287 4.48685 40.9287H4.49274C4.65193 40.9287 4.78163 41.0585 4.78753 41.2176C4.79932 41.6068 4.81111 42.0018 4.8347 42.3968C4.84059 42.5619 4.71678 42.6975 4.55759 42.7034H4.54581H4.53991ZM81.4801 41.7718C81.4801 41.7718 81.4742 41.7718 81.4683 41.7718C81.3032 41.7718 81.1794 41.6303 81.1853 41.4653C81.1971 41.0702 81.2089 40.6752 81.2148 40.2861C81.2148 40.1269 81.3504 39.9972 81.5096 39.9972C81.6747 39.9972 81.8044 40.1328 81.7985 40.2979C81.7985 40.6929 81.7867 41.0879 81.769 41.4889C81.769 41.648 81.6334 41.7718 81.4742 41.7718H81.4801ZM4.48095 39.1482C4.31587 39.1482 4.18616 39.0126 4.19206 38.8475C4.19795 38.4466 4.21564 38.0457 4.23332 37.6566C4.23922 37.4915 4.35124 37.3618 4.53991 37.3736C4.70499 37.3795 4.8288 37.521 4.8229 37.6802C4.80522 38.0693 4.79343 38.4584 4.78753 38.8593C4.78753 39.0185 4.65193 39.1482 4.49274 39.1482H4.48095ZM81.4801 38.2167C81.3209 38.2167 81.1912 38.0929 81.1853 37.9337C81.1676 37.5387 81.1499 37.1436 81.1205 36.7604C81.1087 36.5953 81.2325 36.4597 81.3917 36.4479C81.5449 36.4362 81.6923 36.56 81.7041 36.725C81.7277 37.1201 81.7513 37.5151 81.769 37.916C81.7749 38.0811 81.6452 38.2167 81.486 38.2226C81.486 38.2226 81.4801 38.2226 81.4742 38.2226L81.4801 38.2167ZM4.6932 35.5989C4.6932 35.5989 4.67551 35.5989 4.66372 35.5989C4.50454 35.5813 4.38073 35.4398 4.39841 35.2747C4.43968 34.8738 4.48095 34.4787 4.53401 34.0896C4.5576 33.9304 4.70499 33.8184 4.86418 33.8361C5.02336 33.8597 5.14128 34.0071 5.11769 34.1663C5.07053 34.5495 5.02336 34.9386 4.98209 35.3336C4.96441 35.4869 4.84059 35.5989 4.6873 35.5989H4.6932ZM81.1853 34.6733C81.0379 34.6733 80.9141 34.5672 80.8905 34.4139C80.8375 34.0189 80.7844 33.6356 80.7195 33.2524C80.696 33.0932 80.8021 32.9399 80.9613 32.9164C81.1264 32.8928 81.2738 32.9989 81.2973 33.1581C81.3622 33.5472 81.4152 33.9422 81.4683 34.3372C81.4919 34.4964 81.374 34.6438 81.2148 34.6674C81.203 34.6674 81.1912 34.6674 81.1735 34.6674L81.1853 34.6733ZM5.20024 32.085C5.20024 32.085 5.16486 32.085 5.14128 32.085C4.98209 32.0556 4.87597 31.9023 4.90545 31.7372C4.9821 31.3422 5.06464 30.9531 5.15308 30.5698C5.18845 30.4106 5.34763 30.3104 5.50682 30.3458C5.666 30.3812 5.76624 30.5403 5.73086 30.6995C5.64242 31.0769 5.56578 31.4601 5.48913 31.8492C5.45965 31.9907 5.33585 32.085 5.20024 32.085ZM80.5604 31.1771C80.4248 31.1771 80.3068 31.0828 80.2715 30.9472C80.183 30.5639 80.0887 30.1807 79.9826 29.8093C79.9413 29.6501 80.0297 29.4909 80.1889 29.4496C80.3481 29.4083 80.5073 29.5027 80.5486 29.656C80.6547 30.0333 80.749 30.4224 80.8434 30.8174C80.8787 30.9766 80.7844 31.1358 80.6252 31.1712C80.6016 31.1712 80.5781 31.1771 80.5604 31.1771ZM6.06103 28.6419C6.06103 28.6419 6.00207 28.6419 5.97259 28.6301C5.8193 28.5829 5.73086 28.4179 5.77803 28.2646C5.89595 27.8813 6.01976 27.4981 6.15536 27.1267C6.20842 26.9734 6.3794 26.8908 6.53269 26.9439C6.68598 26.997 6.76852 27.168 6.71546 27.3212C6.58575 27.6868 6.46194 28.0582 6.34992 28.4356C6.30865 28.5594 6.19663 28.6419 6.06692 28.6419H6.06103ZM79.5581 27.7752C79.4343 27.7752 79.3222 27.6986 79.281 27.5807C79.1454 27.2092 79.0098 26.8437 78.8624 26.4899C78.8034 26.3366 78.8742 26.1657 79.0216 26.1067C79.1748 26.0477 79.3458 26.1185 79.4048 26.2659C79.5522 26.6314 79.6996 27.0029 79.8352 27.3861C79.8882 27.5394 79.8116 27.7104 79.6583 27.7634C79.6229 27.7752 79.5935 27.7811 79.5581 27.7811V27.7752ZM7.31093 25.3167C7.26966 25.3167 7.2284 25.3108 7.18713 25.2931C7.03973 25.2282 6.97488 25.0514 7.03973 24.904C7.20481 24.5384 7.37579 24.1729 7.55266 23.825C7.62341 23.6776 7.80618 23.6187 7.94768 23.6953C8.09507 23.7661 8.14814 23.9429 8.07739 24.0903C7.90641 24.4382 7.73544 24.786 7.57625 25.1457C7.52908 25.2577 7.41706 25.3226 7.30504 25.3226L7.31093 25.3167ZM78.1431 24.5207C78.037 24.5207 77.9308 24.4618 77.8837 24.3615C77.7009 24.0137 77.5181 23.6658 77.3236 23.3298C77.241 23.1883 77.2941 23.0114 77.4297 22.9289C77.5712 22.8463 77.7481 22.8935 77.8306 23.0409C78.0252 23.3828 78.2197 23.7366 78.4025 24.0962C78.4792 24.2436 78.4202 24.4205 78.2728 24.4913C78.2315 24.5148 78.1844 24.5266 78.1372 24.5266L78.1431 24.5207ZM8.97355 22.1801C8.92049 22.1801 8.86743 22.1683 8.82026 22.1329C8.68466 22.0445 8.63749 21.8676 8.72593 21.7261C8.93818 21.3842 9.15632 21.0481 9.38036 20.7238C9.4747 20.5882 9.65746 20.5588 9.79307 20.6472C9.92867 20.7415 9.96405 20.9243 9.86972 21.0599C9.65157 21.3783 9.43932 21.7025 9.22707 22.0386C9.174 22.127 9.07378 22.1801 8.97944 22.1801H8.97355ZM76.3095 21.4785C76.2152 21.4785 76.1267 21.4372 76.0678 21.3547C75.8437 21.0304 75.6079 20.7179 75.3721 20.4114C75.2718 20.2817 75.2954 20.0989 75.4251 19.9987C75.5548 19.8984 75.7376 19.922 75.8378 20.0517C76.0796 20.3642 76.3154 20.6885 76.5512 21.0186C76.6455 21.1542 76.6102 21.337 76.4805 21.4313C76.4274 21.4667 76.3684 21.4844 76.3095 21.4844V21.4785ZM11.0548 19.3088C10.9899 19.3088 10.9192 19.2853 10.8661 19.2381C10.7423 19.132 10.7246 18.9492 10.8307 18.8254C11.0901 18.5188 11.3555 18.2181 11.6208 17.9233C11.7328 17.8054 11.9156 17.7936 12.0394 17.9056C12.1573 18.0177 12.1691 18.2004 12.0571 18.3242C11.7917 18.6072 11.5382 18.902 11.2847 19.2027C11.2257 19.2735 11.1432 19.3088 11.0607 19.3088H11.0548ZM74.075 18.7252C73.9983 18.7252 73.9158 18.6957 73.8568 18.6308C73.5915 18.3419 73.3144 18.0648 73.0373 17.7936C72.9194 17.6816 72.9194 17.4929 73.0373 17.375C73.1493 17.2571 73.338 17.2571 73.4559 17.375C73.7389 17.6521 74.0219 17.941 74.2931 18.2299C74.4052 18.3478 74.3993 18.5365 74.2754 18.6485C74.2165 18.7016 74.1457 18.7252 74.075 18.7252ZM13.5192 16.7501C13.4367 16.7501 13.36 16.7147 13.3011 16.6498C13.189 16.526 13.2008 16.3433 13.3247 16.2312C13.6253 15.96 13.926 15.7006 14.2326 15.4471C14.3564 15.341 14.5451 15.3587 14.6453 15.4884C14.7514 15.6122 14.7338 15.8008 14.604 15.9011C14.3034 16.1487 14.0086 16.4022 13.7197 16.6675C13.6607 16.7206 13.59 16.7442 13.5251 16.7442L13.5192 16.7501ZM71.4808 16.2961C71.416 16.2961 71.3511 16.2725 71.2922 16.2312C70.9915 15.9836 70.679 15.7419 70.3724 15.5061C70.2427 15.4058 70.2191 15.2231 70.3135 15.0933C70.4137 14.9636 70.5965 14.9401 70.7262 15.0344C71.0445 15.2761 71.357 15.5178 71.6695 15.7773C71.7933 15.8834 71.811 16.0662 71.7108 16.19C71.6518 16.2607 71.5693 16.2961 71.4808 16.2961ZM16.3138 14.5568C16.2195 14.5568 16.1252 14.5097 16.0721 14.4271C15.9778 14.2915 16.0131 14.1087 16.1487 14.0144C16.4789 13.7904 16.815 13.5663 17.151 13.3541C17.2866 13.2656 17.4694 13.3069 17.5578 13.4484C17.6463 13.584 17.605 13.7668 17.4635 13.8552C17.1333 14.0616 16.8032 14.2797 16.4848 14.4979C16.4317 14.5333 16.3728 14.5509 16.3197 14.5509L16.3138 14.5568ZM68.5978 14.2208C68.5447 14.2208 68.4917 14.209 68.4386 14.1736C68.1084 13.9614 67.7724 13.7609 67.4363 13.5663C67.2948 13.4838 67.2477 13.3069 67.3302 13.1654C67.4127 13.0239 67.5955 12.9768 67.7311 13.0593C68.0731 13.2598 68.415 13.4661 68.757 13.6784C68.8926 13.7668 68.9338 13.9496 68.8513 14.0852C68.7923 14.1736 68.698 14.2208 68.6037 14.2208H68.5978ZM19.3619 12.7232C19.2558 12.7232 19.1556 12.6643 19.1025 12.564C19.0259 12.4226 19.0848 12.2398 19.2263 12.169C19.5801 11.9863 19.9397 11.8035 20.2994 11.6325C20.4468 11.5618 20.6237 11.6266 20.6944 11.774C20.7652 11.9214 20.7003 12.0983 20.5529 12.169C20.1991 12.34 19.8513 12.511 19.5034 12.6938C19.4622 12.7173 19.415 12.7291 19.3679 12.7291L19.3619 12.7232ZM65.4907 12.4874C65.4494 12.4874 65.4023 12.4756 65.361 12.4579C65.0072 12.2869 64.6535 12.116 64.2938 11.9568C64.1464 11.8919 64.0816 11.7151 64.1464 11.5677C64.2113 11.4203 64.3882 11.3554 64.5356 11.4203C64.9011 11.5853 65.2608 11.7504 65.6204 11.9273C65.7678 11.9981 65.8268 12.1749 65.756 12.3223C65.7029 12.4284 65.6027 12.4874 65.4907 12.4874ZM22.5929 11.2434C22.4749 11.2434 22.3629 11.1726 22.3216 11.0547C22.2627 10.9014 22.3334 10.7305 22.4867 10.6715C22.8582 10.5241 23.2296 10.3826 23.6069 10.247C23.7602 10.188 23.9312 10.2706 23.9843 10.4239C24.0373 10.5772 23.9607 10.7481 23.8074 10.8012C23.4418 10.9368 23.0704 11.0724 22.7049 11.2198C22.6695 11.2316 22.6341 11.2434 22.5987 11.2434H22.5929ZM62.2244 11.0783C62.1891 11.0783 62.1537 11.0724 62.1183 11.0606C61.7527 10.9191 61.3813 10.7894 61.0099 10.6597C60.8566 10.6066 60.7741 10.4416 60.8271 10.2824C60.8802 10.1291 61.0453 10.0465 61.1985 10.0996C61.5759 10.2293 61.9473 10.3649 62.3246 10.5064C62.4779 10.5654 62.5546 10.7364 62.4956 10.8837C62.4485 11.0017 62.3364 11.0724 62.2185 11.0724L62.2244 11.0783ZM25.9594 10.0819C25.8296 10.0819 25.7117 9.99938 25.6763 9.86967C25.6292 9.71638 25.7176 9.55129 25.8768 9.50413C26.26 9.39211 26.6433 9.28009 27.0265 9.17986C27.1857 9.13859 27.3449 9.23292 27.3861 9.38621C27.4274 9.5454 27.3331 9.70459 27.1798 9.74586C26.8025 9.84609 26.4251 9.95221 26.0478 10.0642C26.0183 10.0701 25.9888 10.076 25.9653 10.076L25.9594 10.0819ZM58.8402 9.9699C58.8402 9.9699 58.7872 9.9699 58.7577 9.95811C58.3804 9.85198 57.9971 9.74586 57.6198 9.65152C57.4606 9.61025 57.3663 9.45107 57.4076 9.29188C57.4488 9.13269 57.608 9.03836 57.7672 9.07963C58.1504 9.17986 58.5337 9.28009 58.9228 9.39211C59.082 9.43928 59.1704 9.59846 59.1232 9.75765C59.0879 9.88735 58.9699 9.9699 58.8402 9.9699ZM29.4084 9.20934C29.2728 9.20934 29.149 9.115 29.1195 8.9735C29.0841 8.81432 29.1902 8.65513 29.3435 8.62565C29.7386 8.54311 30.1277 8.46647 30.5168 8.38982C30.6701 8.36034 30.8293 8.46647 30.8588 8.62565C30.8882 8.78484 30.7821 8.93813 30.6229 8.96761C30.2397 9.03836 29.8506 9.11501 29.4674 9.19755C29.4438 9.19755 29.4261 9.20344 29.4025 9.20344L29.4084 9.20934ZM55.3794 9.1268C55.3794 9.1268 55.3381 9.1268 55.3204 9.1209C54.9313 9.03836 54.5481 8.96761 54.1649 8.89686C54.0057 8.86738 53.8996 8.71409 53.929 8.5549C53.9585 8.39572 54.1118 8.2837 54.271 8.31907C54.6601 8.38982 55.0492 8.46647 55.4443 8.54901C55.6034 8.58439 55.7037 8.73767 55.6742 8.89686C55.6447 9.03836 55.5209 9.13269 55.3853 9.13269L55.3794 9.1268ZM32.9164 8.58438C32.7749 8.58438 32.6452 8.47826 32.6275 8.33086C32.6039 8.17168 32.7159 8.01839 32.8751 7.9948C33.2702 7.93585 33.6652 7.88278 34.0602 7.83561C34.2194 7.81203 34.3668 7.92995 34.3903 8.08913C34.408 8.24832 34.296 8.39572 34.1368 8.4193C33.7477 8.46647 33.3586 8.51953 32.9636 8.57849C32.9518 8.57849 32.9341 8.57849 32.9223 8.57849L32.9164 8.58438ZM51.8714 8.52543C51.8714 8.52543 51.8419 8.52543 51.8301 8.52543C51.4351 8.47236 51.046 8.4193 50.6569 8.37213C50.4977 8.35445 50.3798 8.20705 50.3975 8.04197C50.4151 7.88278 50.5684 7.76487 50.7276 7.78255C51.1167 7.82972 51.5117 7.88278 51.9127 7.93585C52.0718 7.95943 52.1839 8.10682 52.1662 8.26601C52.1426 8.41341 52.0188 8.51953 51.8773 8.51953L51.8714 8.52543ZM36.4598 8.18347C36.3065 8.18347 36.1768 8.06555 36.165 7.91226C36.1532 7.74718 36.2711 7.60568 36.4362 7.59389C36.8371 7.55851 37.238 7.52903 37.6271 7.50545C37.7745 7.49956 37.9278 7.61747 37.9396 7.78255C37.9514 7.94764 37.8276 8.08324 37.6625 8.09503C37.2734 8.11861 36.8843 8.14809 36.4834 8.18347C36.4775 8.18347 36.4657 8.18347 36.4598 8.18347ZM48.328 8.1363C48.328 8.1363 48.3103 8.1363 48.3044 8.1363C47.9035 8.10093 47.5085 8.07734 47.1253 8.05376C46.9602 8.04197 46.8364 7.90637 46.8482 7.74128C46.86 7.5762 47.0074 7.45829 47.1606 7.46418C47.5498 7.48776 47.9448 7.51724 48.3516 7.54672C48.5167 7.55851 48.6346 7.70001 48.6228 7.8651C48.611 8.01839 48.4813 8.1363 48.328 8.1363ZM40.0149 7.97122C39.8558 7.97122 39.726 7.84741 39.7201 7.68822C39.7201 7.52314 39.844 7.38754 40.0032 7.38164C40.41 7.36985 40.8109 7.35806 41.1941 7.34627C41.3769 7.34037 41.4889 7.47008 41.4948 7.63516C41.4948 7.80024 41.371 7.92995 41.2059 7.93585C40.8227 7.94174 40.4277 7.95353 40.0208 7.96532C40.0208 7.96532 40.0149 7.96532 40.009 7.96532L40.0149 7.97122ZM44.767 7.94764H44.7611C44.3543 7.93584 43.9592 7.92995 43.576 7.92405C43.4109 7.92405 43.2812 7.78845 43.2812 7.62926C43.2812 7.47008 43.4168 7.33447 43.576 7.33447C43.9592 7.33447 44.3601 7.34626 44.7729 7.35806C44.9379 7.35806 45.0617 7.49956 45.0617 7.65874C45.0617 7.81793 44.9261 7.94764 44.767 7.94764Z" fill="white"/>
<path fill-rule="evenodd" clip-rule="evenodd" d="M33.5708 64.4764C42.727 61.8941 50.1734 58.1443 53.4397 53.5987C55.2202 51.1107 54.442 49.0766 52.231 47.6852C48.3044 44.6724 49.9022 43.0452 54.6719 39.2306C64.7183 31.1652 68.1202 21.614 59.6715 14.5095C68.5978 22.3922 61.4756 33.6591 48.0273 39.0243C44.8082 40.3037 38.4172 40.0324 37.1378 37.8628C34.6026 33.5412 48.0273 29.7089 49.8314 29.2962C32.0025 32.7275 32.1617 38.5703 34.1427 42.5028C36.5187 47.2253 39.0775 47.2548 34.5083 52.8263C33.618 53.923 32.5037 55.0432 31.1771 56.1162C21.1307 64.1758 17.7288 73.7269 26.1539 80.8373C17.2925 72.2471 24.3734 61.6936 37.7981 56.3225C42.0667 54.6069 49.6958 54.1765 45.7633 58.7457C44.142 60.6147 40.0562 62.5839 33.5708 64.4823V64.4764Z" fill="#FFEC22"/>
<path fill-rule="evenodd" clip-rule="evenodd" d="M50.6038 33.7535C51.494 35.3512 49.5308 37.4737 46.2173 38.4819C42.9098 39.5078 39.502 39.0302 38.6176 37.4324C37.7274 35.8347 39.6907 33.7122 42.9982 32.6804C46.3116 31.6781 49.7076 32.1321 50.6038 33.7535Z" fill="#FFEC22"/>
<g opacity="0.7">
<path d="M21.791 43.3223L16.8621 44.6606V49.1474C16.6735 49.0412 16.4612 48.9823 16.2313 48.9823C15.5179 48.9823 14.9342 49.5601 14.9342 50.2793C14.9342 50.9986 15.512 51.5764 16.2313 51.5764C16.9506 51.5764 17.5284 50.9986 17.5284 50.2793C17.5284 50.1673 17.5166 50.0612 17.4871 49.9551V46.0167L21.0776 45.0085V47.8857C20.889 47.7795 20.6767 47.7206 20.4468 47.7206C19.7334 47.7206 19.1497 48.2984 19.1497 49.0176C19.1497 49.7369 19.7275 50.3147 20.4468 50.3147C21.1661 50.3147 21.7439 49.7369 21.7439 49.0176C21.7439 48.9764 21.7439 48.941 21.7439 48.8997L21.8028 48.9823V43.3164L21.791 43.3223Z" fill="#F7EA00"/>
</g>
<g opacity="0.7">
<path d="M39.6435 16.2017L35.7464 16.9917V19.6448C35.599 19.58 35.428 19.5446 35.2452 19.5446C34.6792 19.5446 34.2194 19.8865 34.2194 20.311C34.2194 20.7355 34.6792 21.0775 35.2452 21.0775C35.8112 21.0775 36.2711 20.7355 36.2711 20.311C36.2711 20.2462 36.2593 20.1813 36.2416 20.1224V17.7994L39.0775 17.2039V18.9019C38.9301 18.8371 38.7591 18.8017 38.5763 18.8017C38.0104 18.8017 37.5505 19.1437 37.5505 19.5682C37.5505 19.9927 38.0104 20.3346 38.5763 20.3346C39.1423 20.3346 39.6022 19.9927 39.6022 19.5682C39.6022 19.5446 39.6022 19.521 39.6022 19.4974L39.6494 19.5505V16.2017H39.6435Z" fill="#F7EA00"/>
</g>
<g opacity="0.7">
<path d="M65.1959 57.4723L62.2834 58.2623V60.9154C62.1714 60.8506 62.0476 60.8152 61.9061 60.8152C61.4816 60.8152 61.1396 61.1572 61.1396 61.5817C61.1396 62.0062 61.4816 62.3481 61.9061 62.3481C62.3306 62.3481 62.6725 62.0062 62.6725 61.5817C62.6725 61.5168 62.6666 61.452 62.6489 61.393V59.07L64.7714 58.4746V60.1726C64.6594 60.1077 64.5356 60.0723 64.4 60.0723C63.9755 60.0723 63.6335 60.4143 63.6335 60.8388C63.6335 61.2633 63.9755 61.6052 64.4 61.6052C64.8245 61.6052 65.1664 61.2633 65.1664 60.8388C65.1664 60.8152 65.1664 60.7916 65.1664 60.768L65.2018 60.8211V57.4723H65.1959Z" fill="#F7EA00"/>
</g>
<path d="M48.7997 86.739L46.0404 82.3348V80.3479H46.6713C46.9897 80.3479 47.2491 80.0885 47.2491 79.7701V77.8009C47.2491 77.4826 46.9897 77.2231 46.6713 77.2231H39.1777C38.8594 77.2231 38.5999 77.4826 38.5999 77.8009V79.7701C38.5999 80.0885 38.8594 80.3479 39.1777 80.3479H39.8086V82.3348L37.0494 86.739C36.8312 87.0809 36.8489 87.5231 37.0788 87.8533L42.108 94.9282C42.2082 95.0697 42.3379 95.1759 42.4735 95.2466V87.4583C42.2023 87.2991 42.0136 87.0102 42.0136 86.6741C42.0136 86.173 42.4204 85.7662 42.9216 85.7662C43.4227 85.7662 43.8295 86.173 43.8295 86.6741C43.8295 87.0102 43.6409 87.305 43.3696 87.4583V95.2466C43.5111 95.1759 43.6409 95.0697 43.7352 94.9282L48.7643 87.8533C49.0001 87.5231 49.0119 87.0809 48.7938 86.739H48.7997Z" fill="#FFF035"/>
<path d="M41.6716 67.3419C31.7785 67.4716 24.0432 68.7333 24.2672 70.2603C24.4913 71.7814 32.6334 73.0136 42.7506 73.0549C47.1017 73.0726 52.6909 73.1846 55.8864 72.8308C56.7413 72.7365 56.9653 72.2118 56.2048 72.0998L52.8265 71.7637C52.4197 71.7047 51.1757 71.6045 51.5117 71.5397L54.0293 71.0326C54.3948 70.9619 55.0846 70.9442 55.5798 70.9972L58.7695 71.3333C59.1586 71.3746 60.9273 71.2861 61.1278 71.2213C62.077 70.9088 62.2185 70.7319 62.3541 70.3782C63.0616 68.5623 53.758 67.1827 41.6834 67.3419H41.6716ZM30.0864 70.9501C28.4651 70.9501 27.1503 70.7673 27.1503 70.5374C27.1503 70.3074 28.4651 70.1247 30.0864 70.1247C31.7077 70.1247 33.0225 70.3074 33.0225 70.5374C33.0225 70.7673 31.7077 70.9501 30.0864 70.9501ZM36.8843 71.7755C35.2629 71.7755 33.9481 71.5927 33.9481 71.3628C33.9481 71.1329 35.2629 70.9501 36.8843 70.9501C38.5056 70.9501 39.8204 71.1329 39.8204 71.3628C39.8204 71.5927 38.5056 71.7755 36.8843 71.7755ZM44.1597 72.3061C42.5383 72.3061 41.2236 72.1233 41.2236 71.8934C41.2236 71.6635 42.5383 71.4807 44.1597 71.4807C45.781 71.4807 47.0958 71.6635 47.0958 71.8934C47.0958 72.1233 45.781 72.3061 44.1597 72.3061Z" fill="#FFF035"/>
</svg>
