<svg width="322" height="104" viewBox="0 0 322 104" fill="none" xmlns="http://www.w3.org/2000/svg">
<path d="M114.35 27.66H105V25.23H126.51V27.66H117.16V51.83H114.35V27.66Z" fill="white"/>
<path d="M157.75 44.72H142.93L139.74 51.83H136.81L148.97 25.23H151.74L163.9 51.83H160.94L157.75 44.72ZM156.72 42.45L150.34 28.16L143.96 42.45H156.73H156.72Z" fill="white"/>
<path d="M197.87 51.83L191.79 43.28C191.11 43.36 190.4 43.39 189.66 43.39H182.52V51.83H179.71V25.23H189.67C193.06 25.23 195.72 26.04 197.65 27.66C199.57 29.28 200.54 31.51 200.54 34.35C200.54 36.43 200.01 38.18 198.96 39.61C197.91 41.04 196.41 42.07 194.46 42.71L200.96 51.83H197.88H197.87ZM195.63 39.25C197.02 38.08 197.72 36.45 197.72 34.35C197.72 32.25 197.02 30.54 195.63 29.39C194.24 28.24 192.22 27.66 189.59 27.66H182.52V41H189.59C192.22 41 194.24 40.42 195.63 39.25Z" fill="white"/>
<path d="M235.27 44.72H220.45L217.26 51.83H214.33L226.49 25.23H229.26L241.42 51.83H238.46L235.27 44.72ZM234.24 42.45L227.86 28.16L221.48 42.45H234.25H234.24Z" fill="white"/>
<path d="M279.46 25.23V51.83H277.14L260.04 30.25V51.83H257.23V25.23H259.55L276.69 46.81V25.23H279.46Z" fill="white"/>
<path d="M318.26 38.53H320.96V48.68C319.72 49.77 318.25 50.61 316.55 51.19C314.85 51.77 313.07 52.06 311.19 52.06C308.53 52.06 306.14 51.48 304.01 50.31C301.88 49.14 300.21 47.53 298.99 45.46C297.77 43.4 297.17 41.08 297.17 38.53C297.17 35.98 297.78 33.66 298.99 31.59C300.21 29.53 301.88 27.91 304.01 26.75C306.14 25.58 308.54 25 311.23 25C313.26 25 315.12 25.32 316.82 25.97C318.52 26.62 319.95 27.57 321.11 28.84L319.36 30.63C317.26 28.55 314.58 27.51 311.34 27.51C309.19 27.51 307.24 27.99 305.51 28.94C303.77 29.89 302.41 31.21 301.43 32.89C300.44 34.58 299.95 36.46 299.95 38.53C299.95 40.6 300.44 42.48 301.43 44.15C302.42 45.82 303.77 47.14 305.5 48.1C307.23 49.06 309.16 49.54 311.31 49.54C314.05 49.54 316.36 48.86 318.26 47.49V38.52V38.53Z" fill="white"/>
<path d="M172.58 79.6699C171.67 79.3499 170.97 78.9399 170.48 78.4199L171.03 77.3399C171.51 77.8199 172.15 78.2099 172.95 78.5099C173.75 78.8099 174.57 78.9599 175.42 78.9599C176.61 78.9599 177.5 78.7399 178.1 78.2999C178.7 77.8599 178.99 77.2999 178.99 76.5999C178.99 76.0699 178.83 75.6399 178.51 75.3299C178.19 75.0099 177.79 74.7699 177.32 74.5999C176.85 74.4299 176.2 74.2399 175.36 74.0399C174.36 73.7899 173.56 73.5399 172.97 73.3099C172.37 73.0799 171.86 72.7199 171.44 72.2399C171.02 71.7599 170.8 71.1099 170.8 70.2799C170.8 69.6099 170.98 68.9999 171.33 68.4499C171.68 67.8999 172.23 67.4599 172.96 67.1299C173.69 66.7999 174.61 66.6399 175.7 66.6399C176.46 66.6399 177.2 66.7399 177.93 66.9499C178.66 67.1599 179.29 67.4499 179.82 67.8099L179.34 68.9299C178.78 68.5599 178.19 68.2899 177.55 68.0999C176.92 67.9199 176.3 67.8199 175.69 67.8199C174.52 67.8199 173.65 68.0399 173.06 68.4899C172.47 68.9399 172.18 69.5199 172.18 70.2299C172.18 70.7599 172.34 71.1899 172.66 71.5099C172.98 71.8299 173.39 72.0799 173.88 72.2499C174.37 72.4199 175.02 72.6099 175.85 72.8099C176.83 73.0499 177.61 73.2899 178.22 73.5199C178.82 73.7499 179.33 74.1099 179.75 74.5799C180.17 75.0499 180.38 75.6999 180.38 76.5099C180.38 77.1799 180.2 77.7899 179.84 78.3399C179.48 78.8899 178.92 79.3299 178.18 79.6499C177.43 79.9699 176.51 80.1299 175.43 80.1299C174.44 80.1299 173.49 79.9699 172.59 79.6499L172.58 79.6699Z" fill="white"/>
<path d="M193.75 75.45H185.39C185.47 76.49 185.87 77.33 186.59 77.97C187.31 78.61 188.22 78.93 189.33 78.93C189.95 78.93 190.52 78.82 191.04 78.6C191.56 78.38 192.01 78.05 192.39 77.62L193.15 78.49C192.71 79.02 192.15 79.43 191.49 79.71C190.82 79.99 190.09 80.13 189.3 80.13C188.27 80.13 187.36 79.91 186.57 79.47C185.78 79.03 185.16 78.43 184.72 77.66C184.28 76.89 184.05 76.0099 184.05 75.0399C184.05 74.0699 184.26 73.19 184.69 72.42C185.11 71.65 185.7 71.05 186.44 70.62C187.18 70.19 188.01 69.97 188.94 69.97C189.87 69.97 190.69 70.19 191.43 70.62C192.16 71.05 192.74 71.65 193.16 72.41C193.58 73.18 193.79 74.0499 193.79 75.0399L193.77 75.46L193.75 75.45ZM186.5 72.0399C185.85 72.6499 185.48 73.46 185.39 74.44H192.48C192.39 73.45 192.02 72.6499 191.37 72.0399C190.72 71.4299 189.9 71.12 188.93 71.12C187.96 71.12 187.16 71.4299 186.51 72.0399H186.5Z" fill="white"/>
<path d="M204.64 70.94C205.34 71.59 205.68 72.56 205.68 73.84V80.03H204.39V78.47C204.09 78.99 203.64 79.39 203.05 79.69C202.46 79.99 201.76 80.13 200.95 80.13C199.84 80.13 198.95 79.86 198.29 79.33C197.63 78.8 197.3 78.09 197.3 77.22C197.3 76.35 197.61 75.69 198.22 75.17C198.83 74.65 199.81 74.39 201.16 74.39H204.33V73.78C204.33 72.92 204.09 72.26 203.61 71.81C203.13 71.36 202.43 71.14 201.5 71.14C200.87 71.14 200.26 71.24 199.68 71.45C199.1 71.66 198.6 71.95 198.18 72.31L197.57 71.3C198.08 70.87 198.68 70.54 199.39 70.3C200.1 70.07 200.85 69.95 201.63 69.95C202.93 69.95 203.93 70.28 204.63 70.93L204.64 70.94ZM203.12 78.5399C203.66 78.1899 204.07 77.69 204.34 77.03V75.4H201.2C199.49 75.4 198.64 76 198.64 77.19C198.64 77.77 198.86 78.23 199.31 78.57C199.75 78.91 200.37 79.07 201.17 79.07C201.97 79.07 202.58 78.9 203.13 78.55L203.12 78.5399Z" fill="white"/>
<path d="M211.6 79.77C210.86 79.54 210.28 79.24 209.86 78.89L210.47 77.83C210.89 78.16 211.41 78.43 212.05 78.64C212.68 78.85 213.34 78.95 214.03 78.95C214.94 78.95 215.62 78.81 216.05 78.52C216.49 78.23 216.71 77.83 216.71 77.31C216.71 76.94 216.59 76.65 216.35 76.45C216.11 76.24 215.81 76.08 215.44 75.97C215.07 75.86 214.58 75.76 213.98 75.66C213.17 75.51 212.52 75.35 212.02 75.19C211.53 75.03 211.1 74.76 210.76 74.38C210.41 74 210.24 73.47 210.24 72.8C210.24 71.96 210.59 71.28 211.28 70.75C211.98 70.22 212.95 69.95 214.19 69.95C214.84 69.95 215.48 70.04 216.13 70.21C216.78 70.38 217.31 70.61 217.73 70.88L217.14 71.96C216.32 71.39 215.34 71.1 214.2 71.1C213.34 71.1 212.69 71.25 212.25 71.56C211.81 71.86 211.59 72.2599 211.59 72.7599C211.59 73.1399 211.71 73.44 211.96 73.67C212.21 73.9 212.51 74.07 212.88 74.17C213.25 74.28 213.75 74.39 214.4 74.5C215.2 74.65 215.84 74.8 216.32 74.96C216.8 75.11 217.21 75.37 217.55 75.74C217.89 76.11 218.06 76.6099 218.06 77.2599C218.06 78.1299 217.7 78.83 216.97 79.34C216.24 79.85 215.23 80.11 213.94 80.11C213.13 80.11 212.35 79.9899 211.61 79.7599L211.6 79.77Z" fill="white"/>
<path d="M223.92 79.47C223.15 79.03 222.54 78.43 222.1 77.66C221.66 76.89 221.43 76.0099 221.43 75.0399C221.43 74.0699 221.65 73.19 222.1 72.42C222.55 71.65 223.15 71.05 223.92 70.62C224.69 70.19 225.56 69.97 226.52 69.97C227.48 69.97 228.35 70.19 229.12 70.62C229.89 71.05 230.5 71.65 230.93 72.42C231.37 73.19 231.59 74.0699 231.59 75.0399C231.59 76.0099 231.37 76.89 230.93 77.66C230.49 78.43 229.89 79.04 229.12 79.47C228.35 79.91 227.48 80.13 226.52 80.13C225.56 80.13 224.69 79.91 223.92 79.47ZM228.43 78.44C228.99 78.12 229.43 77.66 229.75 77.06C230.07 76.46 230.23 75.79 230.23 75.03C230.23 74.27 230.07 73.59 229.75 73C229.43 72.41 228.99 71.95 228.43 71.62C227.87 71.3 227.23 71.14 226.52 71.14C225.81 71.14 225.17 71.3 224.61 71.62C224.05 71.94 223.6 72.4 223.28 73C222.96 73.6 222.8 74.27 222.8 75.03C222.8 75.79 222.96 76.47 223.28 77.06C223.6 77.66 224.05 78.11 224.61 78.44C225.17 78.76 225.81 78.93 226.52 78.93C227.23 78.93 227.87 78.77 228.43 78.44Z" fill="white"/>
<path d="M244.34 71.0499C245.08 71.7799 245.45 72.8399 245.45 74.2299V80.0199H244.1V74.3599C244.1 73.3199 243.84 72.5299 243.32 71.9799C242.8 71.4399 242.06 71.1599 241.1 71.1599C240.02 71.1599 239.17 71.4799 238.54 72.1199C237.91 72.7599 237.6 73.6399 237.6 74.7699V80.0099H236.25V70.0199H237.54V71.8599C237.91 71.2499 238.42 70.7799 239.07 70.4399C239.72 70.0999 240.48 69.9399 241.34 69.9399C242.59 69.9399 243.59 70.2999 244.33 71.0299L244.34 71.0499Z" fill="white"/>
<path d="M259.11 78.81V80.03H249.78V79.06L255.31 73.64C256.01 72.96 256.48 72.36 256.73 71.86C256.98 71.36 257.1 70.86 257.1 70.35C257.1 69.56 256.83 68.95 256.29 68.52C255.75 68.08 254.98 67.86 253.98 67.86C252.42 67.86 251.21 68.35 250.35 69.34L249.38 68.5C249.9 67.89 250.56 67.42 251.37 67.09C252.17 66.76 253.08 66.6 254.1 66.6C255.45 66.6 256.53 66.92 257.32 67.56C258.11 68.2 258.51 69.08 258.51 70.19C258.51 70.87 258.36 71.53 258.05 72.17C257.75 72.8 257.17 73.53 256.32 74.35L251.8 78.8H259.12L259.11 78.81Z" fill="white"/>
<path d="M84.0196 43.104C82.1919 65.8672 52.4423 103.429 42.9797 103.429C33.5172 103.429 3.59071 65.8731 1.93992 43.104C-0.701342 6.70405 30.1684 4.39294 42.9797 4.39294C55.7852 4.39294 86.8495 7.80065 84.0196 43.104Z" fill="#F7EA00"/>
<g opacity="0.8">
<path d="M0.188798 62.8244C2.0931 39.1179 33.0749 0 42.9266 0C52.7783 0 83.9428 39.112 85.6643 62.8244C88.4117 100.734 56.2626 103.139 42.9266 103.139C29.5905 103.139 -2.75904 99.5899 0.188798 62.8244Z" fill="#F7EA00"/>
</g>
<path d="M42.272 100.421C42.272 100.421 42.2366 100.421 42.2189 100.421C41.8534 100.356 41.4525 100.244 41.0339 100.085C40.8806 100.026 40.804 99.8552 40.8629 99.7078C40.9219 99.5545 41.087 99.4778 41.2402 99.5368C41.6235 99.6842 41.989 99.7844 42.3251 99.8434C42.4842 99.8728 42.5904 100.026 42.5609 100.185C42.5373 100.327 42.4135 100.427 42.272 100.427V100.421ZM44.589 100.185C44.4652 100.185 44.3532 100.109 44.3119 99.9849C44.2588 99.8316 44.3414 99.6606 44.4947 99.6134C44.8248 99.5014 45.1844 99.354 45.55 99.1713C45.6974 99.1005 45.8742 99.1595 45.945 99.3069C46.0157 99.4543 45.9568 99.6311 45.8094 99.7019C45.4203 99.8905 45.0371 100.05 44.6833 100.168C44.6539 100.179 44.6185 100.185 44.589 100.185ZM39.0176 99.0416C38.9645 99.0416 38.9114 99.0298 38.8643 99.0003C38.5341 98.7998 38.1981 98.5817 37.8561 98.3459C37.7205 98.2515 37.6851 98.0688 37.7795 97.9391C37.8738 97.8035 38.0566 97.7681 38.1922 97.8624C38.5282 98.0924 38.8584 98.3046 39.1768 98.4992C39.3182 98.5817 39.3595 98.7645 39.277 98.906C39.2239 99.0003 39.1237 99.0474 39.0235 99.0474L39.0176 99.0416ZM47.7255 98.5345C47.6312 98.5345 47.5368 98.4874 47.4779 98.4048C47.3894 98.2692 47.4248 98.0865 47.5604 97.998C47.8729 97.7858 48.1912 97.5617 48.5214 97.32C48.6511 97.2257 48.8339 97.2493 48.9341 97.379C49.0284 97.5087 49.0048 97.6974 48.8692 97.7917C48.5332 98.0393 48.2089 98.2692 47.8906 98.4815C47.8434 98.5168 47.7844 98.5286 47.7255 98.5286V98.5345ZM36.1169 96.9722C36.052 96.9722 35.9872 96.9486 35.9341 96.9073C35.6334 96.6656 35.3269 96.4121 35.0144 96.1468C34.8906 96.0407 34.8729 95.8579 34.979 95.7341C35.0852 95.6103 35.2738 95.5985 35.3976 95.6987C35.7042 95.9581 36.0049 96.2116 36.3056 96.4475C36.4294 96.5477 36.453 96.7363 36.3527 96.8602C36.2938 96.9309 36.2112 96.9722 36.1228 96.9722H36.1169ZM50.5613 96.3708C50.4788 96.3708 50.3962 96.3354 50.3373 96.2647C50.2312 96.1409 50.2488 95.9522 50.3727 95.8461C50.6674 95.5985 50.9622 95.3391 51.2629 95.0738C51.3867 94.9676 51.5695 94.9735 51.6815 95.0974C51.7876 95.2212 51.7758 95.4039 51.6579 95.5159C51.3513 95.7871 51.0507 96.0466 50.7559 96.3001C50.7028 96.3472 50.6321 96.3708 50.5672 96.3708H50.5613ZM33.4344 94.6316C33.3636 94.6316 33.287 94.608 33.2339 94.5549C32.945 94.2896 32.662 94.0125 32.3673 93.7295C32.2493 93.6175 32.2493 93.4289 32.3614 93.311C32.4734 93.193 32.662 93.193 32.78 93.3051C33.0688 93.5822 33.3518 93.8534 33.6348 94.1187C33.7527 94.2307 33.7586 94.4134 33.6466 94.5373C33.5877 94.6021 33.511 94.6316 33.4285 94.6316H33.4344ZM53.1967 93.9772C53.12 93.9772 53.0434 93.9477 52.9844 93.8887C52.8724 93.7708 52.8724 93.5822 52.9903 93.4701C53.2674 93.1989 53.5504 92.9218 53.8334 92.6447C53.9513 92.5268 54.1341 92.5268 54.252 92.6447C54.3699 92.7627 54.3699 92.9454 54.252 93.0633C53.969 93.3463 53.6801 93.6293 53.403 93.9005C53.3441 93.9536 53.2733 93.9831 53.1967 93.9831V93.9772ZM30.8933 92.1318C30.8167 92.1318 30.7401 92.1023 30.6811 92.0434C30.4099 91.7604 30.1328 91.4715 29.8616 91.1826C29.7496 91.0647 29.7555 90.876 29.8734 90.764C29.9913 90.652 30.18 90.6579 30.292 90.7758C30.5632 91.0647 30.8403 91.3536 31.1056 91.6307C31.2176 91.7486 31.2176 91.9373 31.0997 92.0493C31.0407 92.1023 30.97 92.1318 30.8933 92.1318ZM55.6964 91.4361C55.6257 91.4361 55.5491 91.4125 55.496 91.3536C55.3781 91.2416 55.3722 91.0529 55.4842 90.935C55.7495 90.652 56.0207 90.3631 56.2919 90.0683C56.4039 89.9504 56.5867 89.9386 56.7105 90.0506C56.8284 90.1626 56.8402 90.3454 56.7282 90.4692C56.457 90.764 56.1858 91.0588 55.9146 91.3418C55.8556 91.4007 55.779 91.4361 55.7023 91.4361H55.6964ZM28.4702 89.52C28.3877 89.52 28.311 89.4847 28.2521 89.4198C27.9927 89.125 27.7274 88.8302 27.462 88.5237C27.3559 88.3998 27.3677 88.2171 27.4915 88.1051C27.6153 87.9989 27.7981 88.0107 27.9101 88.1345C28.1695 88.4352 28.4348 88.73 28.6942 89.0248C28.8004 89.1486 28.7945 89.3314 28.6707 89.4434C28.6117 89.4905 28.5469 89.52 28.4761 89.52H28.4702ZM58.0901 88.7949C58.0193 88.7949 57.9545 88.7713 57.8955 88.7241C57.7717 88.618 57.7599 88.4293 57.8661 88.3055C58.1255 88.0107 58.379 87.7101 58.6384 87.4094C58.7445 87.2856 58.9332 87.2738 59.057 87.374C59.1808 87.4801 59.1985 87.6629 59.0923 87.7926C58.8329 88.0992 58.5735 88.3998 58.3141 88.6946C58.2552 88.7595 58.1726 88.7949 58.0901 88.7949ZM26.1473 86.8198C26.0648 86.8198 25.9763 86.7844 25.9233 86.7137C25.6698 86.413 25.4163 86.1064 25.1686 85.794C25.0684 85.6702 25.0861 85.4815 25.2099 85.3813C25.3337 85.281 25.5224 85.2987 25.6226 85.4225C25.8761 85.7291 26.1237 86.0357 26.3772 86.3364C26.4834 86.4602 26.4657 86.6488 26.3419 86.7491C26.2888 86.7962 26.2181 86.8198 26.1532 86.8198H26.1473ZM60.3894 86.071C60.3245 86.071 60.2597 86.0475 60.2007 86.0062C60.0769 85.906 60.0534 85.7173 60.1595 85.5935C60.4071 85.2869 60.6547 84.9803 60.9023 84.6738C61.0025 84.55 61.1912 84.5264 61.315 84.6266C61.4447 84.7268 61.4624 84.9155 61.3622 85.0393C61.1146 85.3518 60.8611 85.6584 60.6134 85.9649C60.5545 86.0357 60.4719 86.071 60.3835 86.071H60.3894ZM23.907 84.0488C23.8185 84.0488 23.736 84.0076 23.677 83.9368C23.4353 83.6243 23.1877 83.3119 22.946 82.9994C22.8457 82.8697 22.8693 82.6869 22.999 82.5867C23.1287 82.4865 23.3115 82.5101 23.4117 82.6398C23.6534 82.9522 23.8952 83.2647 24.1369 83.5772C24.2371 83.7069 24.2135 83.8896 24.0897 83.9899C24.0367 84.0311 23.9718 84.0547 23.907 84.0547V84.0488ZM62.6003 83.2824C62.5354 83.2824 62.4765 83.2647 62.4234 83.2234C62.2937 83.1232 62.2701 82.9404 62.3704 82.8107C62.6121 82.4983 62.8479 82.1858 63.0896 81.8674C63.1898 81.7377 63.3726 81.7141 63.5023 81.8085C63.632 81.9087 63.6556 82.0915 63.5613 82.2212C63.3196 82.5395 63.0837 82.8579 62.842 83.1704C62.783 83.247 62.6946 83.2883 62.6062 83.2883L62.6003 83.2824ZM21.7491 81.213C21.6607 81.213 21.5723 81.1717 21.5133 81.0951C21.2775 80.7767 21.0417 80.4584 20.8117 80.1341C20.7174 80.0044 20.7469 79.8157 20.8766 79.7214C21.0063 79.6271 21.1949 79.6566 21.2893 79.7863C21.5251 80.1046 21.755 80.423 21.9909 80.7414C22.0852 80.8711 22.0616 81.0597 21.926 81.1541C21.873 81.1953 21.814 81.213 21.7491 81.213ZM64.7286 80.4289C64.6697 80.4289 64.6048 80.4112 64.5576 80.3699C64.4279 80.2756 64.3985 80.0928 64.4928 79.9572C64.7227 79.6389 64.9527 79.3205 65.1826 78.9962C65.2769 78.8665 65.4597 78.8312 65.5953 78.9255C65.725 79.0198 65.7604 79.2026 65.666 79.3382C65.4361 79.6624 65.2062 79.9867 64.9703 80.3051C64.9114 80.3817 64.823 80.4289 64.7286 80.4289ZM19.6739 78.3182C19.5795 78.3182 19.4911 78.277 19.4321 78.1944C19.2081 77.8702 18.9782 77.5459 18.7541 77.2157C18.6598 77.0801 18.6952 76.8974 18.8308 76.8089C18.9664 76.7205 19.1491 76.75 19.2435 76.8856C19.4675 77.2098 19.6916 77.5341 19.9156 77.8584C20.0099 77.994 19.9745 78.1767 19.8448 78.2711C19.7918 78.3064 19.7328 78.3241 19.6739 78.3241V78.3182ZM66.7803 77.5164C66.7214 77.5164 66.6624 77.4987 66.6152 77.4634C66.4796 77.369 66.4443 77.1863 66.5386 77.0507C66.7626 76.7264 66.9808 76.3962 67.2048 76.072C67.2991 75.9364 67.4819 75.901 67.6116 75.9894C67.7472 76.0779 67.7826 76.2606 67.6942 76.3962C67.4701 76.7264 67.252 77.0566 67.0279 77.3808C66.969 77.4634 66.8805 77.5105 66.7862 77.5105L66.7803 77.5164ZM17.6811 75.3763C17.5868 75.3763 17.4925 75.3291 17.4335 75.2407C17.2154 74.9105 16.9972 74.5804 16.785 74.2443C16.6966 74.1087 16.7378 73.9259 16.8734 73.8375C17.009 73.7491 17.1918 73.7904 17.2802 73.926C17.4925 74.2561 17.7106 74.5863 17.9228 74.9164C18.0113 75.052 17.9759 75.2348 17.8403 75.3232C17.7931 75.3586 17.7342 75.3704 17.6811 75.3704V75.3763ZM68.7554 74.5509C68.7023 74.5509 68.6434 74.5332 68.5962 74.5037C68.4606 74.4153 68.4193 74.2325 68.5077 74.0969C68.72 73.7668 68.9322 73.4307 69.1445 73.1006C69.2329 72.965 69.4157 72.9237 69.5513 73.0121C69.6869 73.1006 69.7282 73.2833 69.6456 73.4189C69.4334 73.755 69.2211 74.091 69.003 74.4212C68.944 74.5096 68.8497 74.5568 68.7554 74.5568V74.5509ZM15.765 72.3754C15.6648 72.3754 15.5705 72.3282 15.5174 72.2339C15.3052 71.8978 15.0988 71.5559 14.8925 71.2139C14.8099 71.0724 14.8512 70.8956 14.9927 70.8071C15.1342 70.7246 15.3111 70.7659 15.3995 70.9074C15.6058 71.2434 15.8122 71.5854 16.0185 71.9214C16.107 72.057 16.0598 72.2398 15.9242 72.3282C15.877 72.3577 15.824 72.3695 15.7709 72.3695L15.765 72.3754ZM70.6479 71.5264C70.5948 71.5264 70.5418 71.5146 70.4946 71.4851C70.3531 71.4026 70.3118 71.2198 70.3944 71.0783C70.6007 70.7423 70.8012 70.4003 71.0016 70.0643C71.0842 69.9228 71.2669 69.8756 71.4025 69.9641C71.544 70.0466 71.5912 70.2294 71.5028 70.3709C71.3023 70.7128 71.0959 71.0548 70.8896 71.3908C70.8365 71.4851 70.7363 71.5323 70.6361 71.5323L70.6479 71.5264ZM13.9315 69.3155C13.8312 69.3155 13.731 69.2625 13.678 69.1681C13.4775 68.8262 13.283 68.4783 13.0884 68.1364C13.0059 67.9949 13.0589 67.8121 13.2004 67.7355C13.3419 67.6588 13.5188 67.706 13.6013 67.8475C13.7959 68.1895 13.9904 68.5314 14.1909 68.8733C14.2734 69.0148 14.2263 69.1917 14.0848 69.2743C14.0376 69.3037 13.9845 69.3155 13.9374 69.3155H13.9315ZM72.4461 68.4548C72.3989 68.4548 72.3458 68.443 72.2987 68.4194C72.1572 68.3368 72.1041 68.16 72.1867 68.0185C72.3812 67.6765 72.5758 67.3346 72.7644 66.9867C72.8411 66.8452 73.0238 66.7922 73.1653 66.8688C73.3068 66.9455 73.3599 67.1282 73.2832 67.2697C73.0946 67.6176 72.9 67.9595 72.7055 68.3015C72.6524 68.3958 72.5522 68.4489 72.4461 68.4489V68.4548ZM12.1981 66.2026C12.092 66.2026 11.9918 66.1437 11.9387 66.0493C11.7501 65.7015 11.5673 65.3477 11.3845 64.9999C11.3079 64.8584 11.3669 64.6756 11.5083 64.6049C11.6498 64.5282 11.8326 64.5872 11.9034 64.7287C12.0861 65.0765 12.2689 65.4244 12.4576 65.7722C12.5342 65.9137 12.4811 66.0965 12.3396 66.1731C12.2925 66.1967 12.2453 66.2085 12.1981 66.2085V66.2026ZM74.1499 65.3359C74.1027 65.3359 74.0556 65.3242 74.0143 65.3006C73.8728 65.2239 73.8139 65.0471 73.8905 64.9056C74.0733 64.5577 74.256 64.204 74.4329 63.8561C74.5037 63.7087 74.6864 63.6557 74.8279 63.7264C74.9753 63.7972 75.0284 63.9799 74.9576 64.1214C74.7807 64.4752 74.598 64.8289 74.4093 65.1768C74.3563 65.277 74.256 65.3359 74.1499 65.3359ZM10.5709 63.0307C10.4648 63.0307 10.3587 62.9718 10.3056 62.8656C10.1288 62.506 9.95779 62.1523 9.78681 61.7926C9.71606 61.6452 9.78092 61.4684 9.92831 61.3976C10.0757 61.3269 10.2526 61.3917 10.3233 61.5391C10.4943 61.8929 10.6653 62.2525 10.8362 62.6062C10.907 62.7536 10.848 62.9305 10.7006 63.0013C10.6594 63.0189 10.6122 63.0307 10.5709 63.0307ZM75.7476 62.1523C75.7064 62.1523 75.6592 62.1405 75.6179 62.1228C75.4705 62.052 75.4116 61.8752 75.4764 61.7278C75.6474 61.3681 75.8184 61.0144 75.9776 60.6548C76.0483 60.5074 76.2193 60.4425 76.3667 60.5133C76.5141 60.584 76.5789 60.755 76.5082 60.9024C76.3431 61.262 76.1721 61.6217 76.0012 61.9813C75.9481 62.0874 75.8479 62.1464 75.7358 62.1464L75.7476 62.1523ZM9.06754 59.8058C8.95552 59.8058 8.84351 59.7409 8.79634 59.6289C8.63716 59.2634 8.47797 58.8979 8.32469 58.5382C8.25983 58.3908 8.33058 58.214 8.47797 58.1491C8.62536 58.0843 8.80224 58.155 8.86709 58.3083C9.02038 58.6679 9.17956 59.0335 9.33874 59.3931C9.4036 59.5405 9.33874 59.7174 9.19135 59.7822C9.15008 59.7999 9.11471 59.8058 9.07344 59.8058H9.06754ZM77.2215 58.9097C77.1803 58.9097 77.1449 58.9038 77.1036 58.8861C76.9563 58.8212 76.8855 58.6502 76.9504 58.497C77.1036 58.1314 77.2569 57.7718 77.4102 57.4063C77.4751 57.253 77.646 57.1881 77.7934 57.2471C77.9408 57.306 78.0175 57.4829 77.9526 57.6303C77.8052 57.9958 77.646 58.3614 77.4928 58.7269C77.4456 58.8389 77.3336 58.9038 77.2215 58.9038V58.9097ZM7.70564 56.516C7.58773 56.516 7.47571 56.4453 7.42854 56.3273C7.28705 55.9559 7.14555 55.5845 7.00995 55.2131C6.95689 55.0598 7.03353 54.8888 7.18682 54.8357C7.3401 54.7827 7.51108 54.8593 7.56414 55.0126C7.69974 55.3781 7.83534 55.7496 7.98274 56.121C8.04169 56.2743 7.96505 56.4453 7.81177 56.5042C7.77639 56.516 7.74101 56.5219 7.70564 56.5219V56.516ZM78.5481 55.6022C78.5127 55.6022 78.4773 55.6022 78.4479 55.5845C78.2946 55.5255 78.2179 55.3605 78.2769 55.2072C78.4125 54.8357 78.5481 54.4643 78.6778 54.0988C78.7308 53.9455 78.9018 53.8629 79.0551 53.916C79.2084 53.9691 79.2909 54.14 79.2379 54.2933C79.1082 54.6648 78.9726 55.0421 78.8311 55.4135C78.7839 55.5314 78.6719 55.6081 78.554 55.6081L78.5481 55.6022ZM6.51471 53.1614C6.3909 53.1614 6.27299 53.0847 6.23172 52.955C6.10791 52.5718 5.99 52.1945 5.87798 51.8171C5.83082 51.6639 5.91925 51.4988 6.07844 51.4516C6.23762 51.4045 6.3968 51.4929 6.44396 51.6521C6.55598 52.0235 6.67389 52.4008 6.79181 52.7781C6.83897 52.9314 6.75644 53.0965 6.60315 53.1496C6.57367 53.1614 6.54419 53.1614 6.51471 53.1614ZM79.6918 52.2298C79.6918 52.2298 79.6329 52.2298 79.6034 52.218C79.4501 52.1709 79.3617 52.0058 79.4089 51.8525C79.5268 51.4752 79.6329 51.0979 79.739 50.7206C79.7803 50.5614 79.9454 50.4729 80.1045 50.5142C80.2637 50.5555 80.3522 50.7206 80.3109 50.8797C80.2048 51.2571 80.0927 51.6403 79.9748 52.0235C79.9336 52.1532 79.8215 52.2298 79.6918 52.2298ZM5.54193 49.736C5.40633 49.736 5.28841 49.6475 5.25304 49.5119C5.1587 49.1228 5.07027 48.7337 4.98773 48.3446C4.95236 48.1854 5.05259 48.0262 5.21177 47.9967C5.37685 47.9614 5.53013 48.0616 5.55961 48.2208C5.64215 48.604 5.73059 48.9813 5.82492 49.3704C5.86619 49.5296 5.76596 49.6888 5.60678 49.7242C5.5832 49.7242 5.55962 49.7301 5.53603 49.7301L5.54193 49.736ZM80.6057 48.7927C80.6057 48.7927 80.5644 48.7927 80.5408 48.7868C80.3816 48.7514 80.2814 48.5922 80.3168 48.433C80.4052 48.0439 80.4819 47.6607 80.5585 47.2775C80.588 47.1183 80.7472 47.0122 80.9063 47.0416C81.0655 47.0711 81.1717 47.2244 81.1422 47.3895C81.0655 47.7786 80.983 48.1677 80.8946 48.5627C80.8651 48.6983 80.7413 48.7927 80.6057 48.7927ZM4.85803 46.2398C4.71653 46.2398 4.58683 46.1337 4.56914 45.9863C4.51019 45.5854 4.46302 45.1904 4.42175 44.8013C4.40406 44.6421 4.52197 44.4947 4.68115 44.477C4.83444 44.4593 4.98773 44.5772 5.00542 44.7364C5.04669 45.1196 5.09385 45.5088 5.15281 45.9038C5.17639 46.063 5.06438 46.2162 4.90519 46.2398C4.8934 46.2398 4.87572 46.2398 4.86393 46.2398H4.85803ZM81.2188 45.2847C81.2188 45.2847 81.1952 45.2847 81.1834 45.2847C81.0243 45.267 80.9063 45.1197 80.9299 44.9546C80.9771 44.5596 81.0184 44.1705 81.0478 43.7872C81.0596 43.6222 81.207 43.5042 81.3662 43.516C81.5313 43.5278 81.6492 43.6693 81.6374 43.8344C81.6079 44.2294 81.5667 44.6244 81.5136 45.0253C81.4959 45.1727 81.3662 45.2847 81.2188 45.2847ZM4.53376 42.7024C4.37458 42.7024 4.24487 42.5786 4.23898 42.4194C4.22129 42.0185 4.20361 41.6235 4.19182 41.2285C4.19182 41.0634 4.31562 40.9278 4.4807 40.9278H4.4866C4.64579 40.9278 4.77549 41.0575 4.78139 41.2167C4.79318 41.6058 4.80496 42.0008 4.82855 42.3959C4.83444 42.5609 4.71064 42.6965 4.55146 42.7024H4.53966H4.53376ZM81.4782 41.7709C81.4782 41.7709 81.4723 41.7709 81.4664 41.7709C81.3014 41.7709 81.1775 41.6294 81.1834 41.4643C81.1952 41.0693 81.207 40.6743 81.2129 40.2852C81.2129 40.126 81.3485 39.9963 81.5077 39.9963C81.6728 39.9963 81.8025 40.1319 81.7966 40.297C81.7966 40.692 81.7848 41.087 81.7671 41.4879C81.7671 41.6471 81.6315 41.7709 81.4723 41.7709H81.4782ZM4.4807 39.1414C4.31562 39.1414 4.18593 39.0058 4.19182 38.8407C4.19772 38.4398 4.2154 38.0389 4.23309 37.6498C4.23898 37.4847 4.3569 37.355 4.53966 37.3668C4.70474 37.3727 4.82855 37.5142 4.82265 37.6734C4.80497 38.0625 4.79318 38.4516 4.78728 38.8525C4.78728 39.0117 4.65168 39.1414 4.4925 39.1414H4.4807ZM81.4782 38.2158C81.319 38.2158 81.1893 38.092 81.1834 37.9328C81.1658 37.5378 81.1481 37.1428 81.1186 36.7596C81.1068 36.5945 81.2306 36.4589 81.3898 36.4471C81.549 36.4353 81.6905 36.5591 81.7023 36.7242C81.7258 37.1192 81.7494 37.5142 81.7671 37.9151C81.773 38.0802 81.6433 38.2158 81.4841 38.2217C81.4841 38.2217 81.4782 38.2217 81.4723 38.2217L81.4782 38.2158ZM4.68706 35.5981C4.68706 35.5981 4.66937 35.5981 4.65758 35.5981C4.49839 35.5804 4.37458 35.4389 4.39227 35.2739C4.43354 34.873 4.47481 34.4779 4.52787 34.0888C4.55145 33.9296 4.69884 33.8176 4.85803 33.8353C5.01721 33.8589 5.13513 34.0063 5.11154 34.1655C5.06438 34.5487 5.01721 34.9378 4.97594 35.3328C4.95825 35.4861 4.83444 35.5981 4.68115 35.5981H4.68706ZM81.1834 34.6725C81.036 34.6725 80.9122 34.5664 80.8887 34.4131C80.8356 34.0181 80.7825 33.6349 80.7177 33.2516C80.6941 33.0925 80.8002 32.9392 80.9594 32.9156C81.1245 32.8861 81.2719 32.9981 81.2955 33.1573C81.3603 33.5464 81.4134 33.9414 81.4664 34.3364C81.49 34.4956 81.3721 34.643 81.2129 34.6666C81.2011 34.6666 81.1893 34.6666 81.1717 34.6666L81.1834 34.6725ZM5.19998 32.0843C5.19998 32.0843 5.16461 32.0843 5.14102 32.0843C4.98184 32.0548 4.87571 31.9015 4.90519 31.7365C4.98184 31.3414 5.06437 30.9523 5.15281 30.5691C5.18818 30.4099 5.34737 30.3097 5.50655 30.3451C5.66574 30.3805 5.76597 30.5396 5.73059 30.6988C5.64216 31.0761 5.56551 31.4594 5.48887 31.8485C5.45939 31.99 5.33558 32.0843 5.19998 32.0843ZM80.5585 31.1764C80.4229 31.1764 80.305 31.082 80.2696 30.9464C80.1812 30.5632 80.0869 30.18 79.9807 29.8086C79.9395 29.6494 80.0279 29.4902 80.1871 29.4489C80.3463 29.4077 80.5054 29.502 80.5467 29.6553C80.6528 30.0326 80.7472 30.4217 80.8415 30.8167C80.8769 30.9759 80.7825 31.1351 80.6234 31.1705C80.5998 31.1705 80.5762 31.1764 80.5585 31.1764ZM6.05485 28.6353C6.05485 28.6353 5.99589 28.6353 5.96642 28.6235C5.81313 28.5764 5.72469 28.4113 5.77186 28.258C5.88977 27.8748 6.01358 27.4916 6.14918 27.1201C6.20224 26.9669 6.37322 26.8843 6.5265 26.9374C6.67979 26.9904 6.76233 27.1614 6.70927 27.3147C6.57956 27.6802 6.45576 28.0517 6.34374 28.429C6.30247 28.5528 6.19045 28.6353 6.06075 28.6353H6.05485ZM79.5562 27.7746C79.4324 27.7746 79.3204 27.6979 79.2792 27.58C79.1436 27.2086 79.0079 26.843 78.8605 26.4893C78.8016 26.336 78.8723 26.165 79.0197 26.1061C79.1671 26.0471 79.344 26.1179 79.403 26.2653C79.5503 26.6308 79.6977 27.0022 79.8333 27.3854C79.8864 27.5387 79.8097 27.7097 79.6565 27.7628C79.6211 27.7746 79.5916 27.7805 79.5562 27.7805V27.7746ZM7.30474 25.3161C7.26347 25.3161 7.22219 25.3102 7.18092 25.2925C7.03353 25.2276 6.96868 25.0507 7.03353 24.9034C7.19861 24.5378 7.36958 24.1723 7.54645 23.8245C7.6172 23.6771 7.79408 23.6181 7.94147 23.6947C8.08886 23.7655 8.14781 23.9424 8.07117 24.0898C7.90019 24.4376 7.72922 24.7854 7.57004 25.1451C7.52288 25.2571 7.41085 25.322 7.29884 25.322L7.30474 25.3161ZM78.1413 24.5201C78.0352 24.5201 77.929 24.4612 77.8819 24.361C77.6991 24.0131 77.5163 23.6653 77.3218 23.3292C77.2392 23.1877 77.2923 23.0108 77.4279 22.9283C77.5694 22.8458 77.7522 22.8929 77.8288 23.0403C78.0234 23.3823 78.2179 23.736 78.4007 24.0957C78.4773 24.243 78.4184 24.4199 78.271 24.4907C78.2297 24.5142 78.1826 24.526 78.1354 24.526L78.1413 24.5201ZM8.97321 22.1796C8.92015 22.1796 8.86709 22.1678 8.81992 22.1324C8.68432 22.044 8.63715 21.8671 8.72559 21.7256C8.93783 21.3836 9.15597 21.0476 9.38001 20.7233C9.47434 20.5877 9.65711 20.5524 9.79271 20.6467C9.92831 20.741 9.96368 20.9238 9.86935 21.0594C9.65121 21.3777 9.43897 21.702 9.22672 22.0381C9.17366 22.1265 9.07344 22.1796 8.97911 22.1796H8.97321ZM76.3077 21.478C76.2134 21.478 76.125 21.4367 76.066 21.3542C75.842 21.0299 75.6061 20.7174 75.3703 20.4108C75.2701 20.2811 75.2937 20.0984 75.4234 19.9982C75.5531 19.8979 75.7359 19.9215 75.8361 20.0512C76.0778 20.3637 76.3136 20.6879 76.5495 21.0181C76.6438 21.1537 76.6084 21.3365 76.4787 21.4308C76.4256 21.4662 76.3667 21.4839 76.3077 21.4839V21.478ZM11.0544 19.3084C10.9895 19.3084 10.9188 19.2848 10.8657 19.2376C10.7419 19.1315 10.7242 18.9487 10.8303 18.8249C11.0898 18.5183 11.3551 18.2177 11.6204 17.9229C11.7324 17.805 11.9152 17.7932 12.039 17.9052C12.1569 18.0172 12.1687 18.2 12.0567 18.3238C11.7913 18.6068 11.5378 18.9016 11.2843 19.2022C11.2254 19.273 11.1428 19.3084 11.0603 19.3084H11.0544ZM74.0674 18.7247C73.9907 18.7247 73.9082 18.6952 73.8492 18.6304C73.5839 18.3415 73.3068 18.0644 73.0297 17.7932C72.9118 17.6811 72.9118 17.4925 73.0297 17.3746C73.1417 17.2567 73.3304 17.2567 73.4483 17.3746C73.7313 17.6517 74.0143 17.9406 74.2855 18.2353C74.3975 18.3533 74.3916 18.5419 74.2678 18.6539C74.2089 18.707 74.1381 18.7306 74.0674 18.7306V18.7247ZM13.5188 16.7496C13.4362 16.7496 13.3596 16.7143 13.3006 16.6494C13.1886 16.5256 13.2004 16.3428 13.3242 16.2308C13.6249 15.9596 13.9256 15.7002 14.2322 15.4467C14.356 15.3406 14.5446 15.3583 14.6449 15.488C14.751 15.6118 14.7333 15.8004 14.6036 15.9007C14.3029 16.1483 14.0081 16.4018 13.7192 16.6671C13.6603 16.7202 13.5895 16.7437 13.5247 16.7437L13.5188 16.7496ZM71.4792 16.2957C71.4143 16.2957 71.3495 16.2721 71.2905 16.2308C70.9898 15.9832 70.6774 15.7415 70.3708 15.5056C70.2411 15.4054 70.2175 15.2227 70.3118 15.0929C70.4061 14.9632 70.5948 14.9397 70.7245 15.034C71.0429 15.2757 71.3554 15.5174 71.6678 15.7768C71.7916 15.883 71.8093 16.0657 71.7091 16.1895C71.6501 16.2603 71.5676 16.2957 71.4792 16.2957ZM16.3074 14.5564C16.2131 14.5564 16.1188 14.5093 16.0657 14.4267C15.9714 14.2911 16.0067 14.1084 16.1423 14.014C16.4725 13.79 16.8086 13.566 17.1446 13.3537C17.2802 13.2653 17.463 13.3066 17.5514 13.4481C17.6399 13.5837 17.5986 13.7664 17.4571 13.8549C17.1269 14.0612 16.7968 14.2793 16.4784 14.4975C16.4253 14.5329 16.3664 14.5505 16.3133 14.5505L16.3074 14.5564ZM68.5962 14.2145C68.5431 14.2145 68.4901 14.2027 68.437 14.1673C68.1068 13.9551 67.7708 13.7546 67.4347 13.5601C67.2932 13.4775 67.2461 13.3007 67.3286 13.1592C67.4111 13.0177 67.5939 12.9705 67.7295 13.053C68.0715 13.2535 68.4134 13.4598 68.7554 13.6721C68.891 13.7605 68.9322 13.9433 68.8497 14.0789C68.7907 14.1673 68.6964 14.2145 68.6021 14.2145H68.5962ZM19.3555 12.7229C19.2494 12.7229 19.1491 12.6639 19.0961 12.5637C19.0194 12.4222 19.0784 12.2394 19.2199 12.1687C19.5736 11.9859 19.9333 11.8032 20.2929 11.6322C20.4403 11.5614 20.6172 11.6263 20.6879 11.7737C20.7587 11.9211 20.6938 12.0979 20.5464 12.1687C20.1927 12.3397 19.8448 12.5106 19.497 12.6934C19.4557 12.717 19.4086 12.7288 19.3614 12.7288L19.3555 12.7229ZM65.4892 12.4871C65.4479 12.4871 65.4007 12.4753 65.3595 12.4576C65.0057 12.2866 64.652 12.1156 64.2923 11.9564C64.1449 11.8916 64.0801 11.7147 64.1449 11.5673C64.2098 11.4199 64.3867 11.3551 64.5341 11.4199C64.8996 11.585 65.2592 11.7501 65.6189 11.927C65.7663 11.9977 65.8252 12.1746 65.7545 12.322C65.7014 12.4281 65.6012 12.4871 65.4892 12.4871ZM22.5922 11.2431C22.4743 11.2431 22.3623 11.1723 22.321 11.0544C22.2621 10.9011 22.3328 10.7301 22.4861 10.6712C22.8575 10.5238 23.229 10.3823 23.6063 10.2467C23.7537 10.1936 23.9305 10.2703 23.9836 10.4236C24.0367 10.5769 23.96 10.7478 23.8067 10.8009C23.4412 10.9365 23.0698 11.0721 22.7042 11.2195C22.6689 11.2313 22.6335 11.2431 22.5981 11.2431H22.5922ZM62.2171 11.078C62.1817 11.078 62.1463 11.0721 62.1109 11.0603C61.7454 10.9188 61.374 10.7891 61.0026 10.6594C60.8493 10.6063 60.7667 10.4413 60.8198 10.2821C60.8729 10.1288 61.0379 10.0462 61.1912 10.0993C61.5685 10.229 61.94 10.3646 62.3173 10.5061C62.4706 10.5651 62.5472 10.736 62.4883 10.8834C62.4411 11.0013 62.3291 11.0721 62.2112 11.0721L62.2171 11.078ZM25.9587 10.0816C25.829 10.0816 25.711 9.99908 25.6757 9.86937C25.6285 9.71609 25.7169 9.551 25.8761 9.50384C26.2593 9.39182 26.6426 9.27981 27.0258 9.17958C27.185 9.13831 27.3441 9.23264 27.3854 9.38593C27.4267 9.54511 27.3324 9.70429 27.1791 9.74556C26.8017 9.84579 26.4244 9.95191 26.0471 10.0639C26.0176 10.0698 25.9881 10.0757 25.9646 10.0757L25.9587 10.0816ZM58.8388 9.9696C58.8388 9.9696 58.7858 9.9696 58.7563 9.95781C58.379 9.85169 57.9957 9.74556 57.6184 9.65123C57.4592 9.60996 57.3649 9.45078 57.4062 9.29159C57.4475 9.13241 57.6066 9.03808 57.7658 9.07935C58.149 9.17958 58.5323 9.27981 58.9214 9.39182C59.0806 9.43899 59.169 9.59817 59.1218 9.75735C59.0865 9.88706 58.9685 9.9696 58.8388 9.9696ZM29.4076 9.20316C29.272 9.20316 29.1482 9.10883 29.1187 8.96733C29.0834 8.80815 29.1895 8.64897 29.3428 8.61949C29.7378 8.53695 30.1269 8.4603 30.516 8.38366C30.6752 8.35418 30.8285 8.4603 30.858 8.61949C30.8874 8.77867 30.7813 8.93196 30.6221 8.96144C30.2389 9.03219 29.8498 9.10883 29.4666 9.19137C29.443 9.19137 29.4253 9.19727 29.4017 9.19727L29.4076 9.20316ZM55.3781 9.12652C55.3781 9.12652 55.3368 9.12651 55.3191 9.12062C54.93 9.03808 54.5468 8.96733 54.1636 8.89658C54.0044 8.86711 53.8983 8.71382 53.9277 8.55463C53.9572 8.39545 54.1105 8.28344 54.2697 8.31881C54.6588 8.38956 55.0479 8.4662 55.4429 8.54874C55.6021 8.58412 55.7023 8.7374 55.6729 8.89658C55.6434 9.03808 55.5196 9.13241 55.384 9.13241L55.3781 9.12652ZM32.9155 8.58411C32.774 8.58411 32.6444 8.47799 32.6267 8.3306C32.6031 8.17142 32.7151 8.01813 32.8743 7.99455C33.2693 7.93559 33.6643 7.88253 34.0593 7.83536C34.2185 7.81178 34.3659 7.92969 34.3895 8.09477C34.4072 8.25396 34.2951 8.40135 34.1301 8.42493C33.7409 8.47209 33.3518 8.52516 32.9568 8.58411C32.945 8.58411 32.9273 8.58411 32.9155 8.58411ZM51.8643 8.52516C51.8643 8.52516 51.8348 8.52516 51.823 8.52516C51.428 8.4721 51.0389 8.41904 50.6497 8.37187C50.4906 8.35418 50.3727 8.20679 50.3903 8.04171C50.408 7.88253 50.5613 7.76461 50.7205 7.7823C51.1096 7.82947 51.5046 7.88253 51.9055 7.93559C52.0647 7.95917 52.1767 8.10656 52.159 8.26575C52.1355 8.41314 52.0116 8.51926 51.8701 8.51926L51.8643 8.52516ZM36.453 8.18321C36.2997 8.18321 36.17 8.06529 36.1582 7.91201C36.1464 7.74693 36.2643 7.60543 36.4294 7.59364C36.8303 7.55827 37.2312 7.52879 37.6203 7.5052C37.7677 7.49931 37.921 7.61722 37.9328 7.7823C37.9446 7.94738 37.8208 8.08298 37.6557 8.09477C37.2666 8.11835 36.8774 8.14783 36.4765 8.18321C36.4706 8.18321 36.4588 8.18321 36.453 8.18321ZM48.3269 8.13604C48.3269 8.13604 48.3092 8.13604 48.3033 8.13604C47.9024 8.10067 47.5073 8.07709 47.1241 8.0535C46.9591 8.04171 46.8352 7.90611 46.847 7.74103C46.8588 7.57595 47.0003 7.45804 47.1595 7.46393C47.5486 7.48752 47.9436 7.51699 48.3504 7.54647C48.5155 7.55826 48.6334 7.69976 48.6216 7.86484C48.6098 8.01813 48.4801 8.13604 48.3269 8.13604ZM40.0139 7.97096C39.8548 7.97096 39.7251 7.84715 39.7192 7.68797C39.7192 7.52289 39.843 7.38729 40.0022 7.3814C40.409 7.3696 40.8099 7.35781 41.1931 7.34602C41.3641 7.34013 41.4879 7.46983 41.4938 7.63491C41.4938 7.79999 41.3699 7.92969 41.2049 7.93559C40.8216 7.94149 40.4266 7.95327 40.0198 7.96507C40.0198 7.96507 40.0139 7.96507 40.008 7.96507L40.0139 7.97096ZM44.7659 7.94738H44.76C44.3532 7.93559 43.9582 7.92969 43.5749 7.9238C43.4099 7.9238 43.2802 7.7882 43.2802 7.62901C43.2802 7.46983 43.4158 7.33423 43.5749 7.33423C43.9582 7.33423 44.3591 7.34602 44.7718 7.35781C44.9368 7.35781 45.0606 7.49931 45.0606 7.65849C45.0606 7.81768 44.925 7.94738 44.7659 7.94738Z" fill="white"/>
<path fill-rule="evenodd" clip-rule="evenodd" d="M33.5642 64.4745C42.7202 61.8922 50.1665 58.1426 53.4327 53.597C55.2132 51.109 54.4349 49.075 52.224 47.6836C48.2975 44.671 49.8953 43.0437 54.6649 39.2292C64.7111 31.164 68.1129 21.613 59.6644 14.5087C68.5904 22.3912 61.4685 33.6578 48.0204 39.0229C44.8014 40.3023 38.4105 40.0311 37.1311 37.8615C34.596 33.5399 48.0204 29.7077 49.8245 29.295C31.996 32.7263 32.1552 38.5689 34.1361 42.5013C36.5121 47.2238 39.0708 47.2533 34.5017 52.8247C33.6114 53.9213 32.4971 55.0415 31.1706 56.1145C21.1244 64.1739 17.7226 73.7249 26.1475 80.8351C17.2863 72.2451 24.367 61.6918 37.7915 56.3208C42.0599 54.6052 49.6889 54.1748 45.7565 58.7439C44.1352 60.6129 40.0495 62.582 33.5642 64.4804V64.4745Z" fill="#1B459C"/>
<path fill-rule="evenodd" clip-rule="evenodd" d="M50.5968 33.7467C51.487 35.3444 49.5238 37.4669 46.2104 38.4751C42.9029 39.5009 39.4952 39.0234 38.6109 37.4256C37.7206 35.8279 39.6839 33.7055 42.9914 32.6737C46.3047 31.6714 49.7007 32.1254 50.5968 33.7467Z" fill="#1B459C"/>
<g opacity="0.4">
<path d="M21.7905 43.3223L16.8617 44.6606V49.1472C16.6731 49.0411 16.4608 48.9822 16.2309 48.9822C15.5175 48.9822 14.9338 49.5599 14.9338 50.2792C14.9338 50.9985 15.5116 51.5763 16.2309 51.5763C16.9502 51.5763 17.5279 50.9985 17.5279 50.2792C17.5279 50.1672 17.5161 50.0611 17.4867 49.9549V46.0166L21.0771 45.0085V47.8856C20.8885 47.7794 20.6762 47.7205 20.4463 47.7205C19.7329 47.7205 19.1492 48.2983 19.1492 49.0175C19.1492 49.7368 19.727 50.3146 20.4463 50.3146C21.1656 50.3146 21.7433 49.7368 21.7433 49.0175C21.7433 48.9763 21.7433 48.9409 21.7433 48.8996L21.8023 48.9822V43.3164L21.7905 43.3223Z" fill="#1B459C"/>
</g>
<g opacity="0.4">
<path d="M39.6426 16.2025L35.7456 16.9925V19.6456C35.5982 19.5807 35.4272 19.5454 35.2445 19.5454C34.6785 19.5454 34.2186 19.8873 34.2186 20.3118C34.2186 20.7363 34.6785 21.0782 35.2445 21.0782C35.8104 21.0782 36.2703 20.7363 36.2703 20.3118C36.2703 20.247 36.2585 20.1821 36.2408 20.1231V17.8002L39.0766 17.2048V18.9027C38.9293 18.8379 38.7583 18.8025 38.5755 18.8025C38.0095 18.8025 37.5497 19.1445 37.5497 19.569C37.5497 19.9934 38.0095 20.3354 38.5755 20.3354C39.1415 20.3354 39.6014 19.9934 39.6014 19.569C39.6014 19.5454 39.6014 19.5218 39.6014 19.4982L39.6485 19.5513V16.2025H39.6426Z" fill="#1B459C"/>
</g>
<g opacity="0.4">
<path d="M65.1946 57.472L62.2821 58.2621V60.9151C62.1701 60.8503 62.0463 60.8149 61.9048 60.8149C61.4803 60.8149 61.1383 61.1568 61.1383 61.5813C61.1383 62.0058 61.4803 62.3478 61.9048 62.3478C62.3293 62.3478 62.6712 62.0058 62.6712 61.5813C62.6712 61.5165 62.6653 61.4516 62.6476 61.3927V59.0698L64.7701 58.4743V60.1723C64.6581 60.1074 64.5342 60.072 64.3986 60.072C63.9742 60.072 63.6322 60.414 63.6322 60.8385C63.6322 61.263 63.9742 61.6049 64.3986 61.6049C64.8231 61.6049 65.1651 61.263 65.1651 60.8385C65.1651 60.8149 65.1651 60.7913 65.1651 60.7677L65.2005 60.8208V57.472H65.1946Z" fill="#1B459C"/>
</g>
<path d="M48.7927 86.7306L46.0335 82.3265V80.3397H46.6643C46.9827 80.3397 47.2421 80.0803 47.2421 79.7619V77.7927C47.2421 77.4744 46.9827 77.215 46.6643 77.215H39.1709C38.8526 77.215 38.5931 77.4744 38.5931 77.7927V79.7619C38.5931 80.0803 38.8526 80.3397 39.1709 80.3397H39.8018V82.3265L37.0426 86.7306C36.8244 87.0725 36.8421 87.5147 37.0721 87.8449L42.1011 94.9197C42.2013 95.0612 42.331 95.1673 42.4666 95.238V87.4499C42.1954 87.2907 42.0068 87.0018 42.0068 86.6657C42.0068 86.1646 42.4136 85.7578 42.9147 85.7578C43.4158 85.7578 43.8226 86.1646 43.8226 86.6657C43.8226 87.0018 43.634 87.2966 43.3628 87.4499V95.238C43.5042 95.1673 43.6339 95.0612 43.7283 94.9197L48.7573 87.8449C48.9931 87.5147 49.0049 87.0725 48.7868 86.7306H48.7927Z" fill="#1B459C"/>
<path d="M41.6708 67.3343C31.7778 67.464 24.0427 68.7257 24.2667 70.2527C24.4908 71.7737 32.6327 73.0059 42.7497 73.0472C47.1007 73.0649 52.6898 73.1769 55.8853 72.8232C56.7401 72.7288 56.9642 72.2041 56.2036 72.0921L52.8254 71.756C52.4186 71.6971 51.1746 71.5969 51.5107 71.532L54.0281 71.025C54.3937 70.9542 55.0834 70.9366 55.5787 70.9896L58.7683 71.3257C59.1574 71.3669 60.9261 71.2785 61.1265 71.2136C62.0757 70.9012 62.2172 70.7243 62.3528 70.3706C63.0603 68.5547 53.7569 67.1751 41.6826 67.3343H41.6708ZM30.0799 70.9483C28.4585 70.9483 27.1438 70.7656 27.1438 70.5356C27.1438 70.3057 28.4585 70.1229 30.0799 70.1229C31.7012 70.1229 33.0159 70.3057 33.0159 70.5356C33.0159 70.7656 31.7012 70.9483 30.0799 70.9483ZM36.8776 71.7737C35.2563 71.7737 33.9415 71.591 33.9415 71.361C33.9415 71.1311 35.2563 70.9483 36.8776 70.9483C38.4989 70.9483 39.8136 71.1311 39.8136 71.361C39.8136 71.591 38.4989 71.7737 36.8776 71.7737ZM44.1528 72.3044C42.5315 72.3044 41.2168 72.1216 41.2168 71.8917C41.2168 71.6617 42.5315 71.479 44.1528 71.479C45.7742 71.479 47.0889 71.6617 47.0889 71.8917C47.0889 72.1216 45.7742 72.3044 44.1528 72.3044Z" fill="#1B459C"/>
</svg>
