<svg width="203" height="203" viewBox="0 0 203 203" fill="none" xmlns="http://www.w3.org/2000/svg">
<circle cx="101.5" cy="101.5" r="101.5" fill="url(#paint0_linear_265_406)"/>
<path d="M78.3803 89.032C78.8923 85.544 79.8683 82.504 81.3083 79.912C82.7803 77.32 84.5883 75.16 86.7323 73.432C88.9083 71.704 91.3883 70.424 94.1723 69.592C96.9563 68.728 99.9483 68.296 103.148 68.296C106.604 68.296 109.676 68.792 112.364 69.784C115.052 70.744 117.324 72.056 119.18 73.72C121.036 75.384 122.444 77.32 123.404 79.528C124.364 81.704 124.844 84.008 124.844 86.44C124.844 88.648 124.62 90.6 124.172 92.296C123.724 93.96 123.052 95.416 122.156 96.664C121.292 97.88 120.204 98.92 118.892 99.784C117.612 100.616 116.14 101.32 114.476 101.896C122.22 104.616 126.092 109.896 126.092 117.736C126.092 121.448 125.42 124.68 124.076 127.432C122.732 130.184 120.924 132.472 118.652 134.296C116.412 136.12 113.804 137.496 110.828 138.424C107.852 139.32 104.748 139.768 101.516 139.768C98.1883 139.768 95.2283 139.416 92.6363 138.712C90.0443 137.976 87.7403 136.856 85.7243 135.352C83.7083 133.816 81.9323 131.864 80.3963 129.496C78.8923 127.128 77.5803 124.312 76.4603 121.048L83.0843 118.36C84.8123 117.688 86.4123 117.512 87.8843 117.832C89.3563 118.152 90.4123 118.888 91.0523 120.04C92.4923 122.696 94.0123 124.632 95.6123 125.848C97.2443 127.032 99.1483 127.624 101.324 127.624C102.988 127.624 104.428 127.352 105.644 126.808C106.892 126.232 107.916 125.512 108.716 124.648C109.548 123.752 110.172 122.744 110.588 121.624C111.004 120.504 111.212 119.368 111.212 118.216C111.212 116.712 111.1 115.368 110.876 114.184C110.684 112.968 110.108 111.928 109.148 111.064C108.188 110.2 106.732 109.544 104.78 109.096C102.86 108.616 100.172 108.376 96.7163 108.376V98.104C99.6283 98.104 101.98 97.88 103.772 97.432C105.564 96.984 106.94 96.376 107.9 95.608C108.892 94.808 109.548 93.848 109.868 92.728C110.188 91.608 110.348 90.376 110.348 89.032C110.348 86.28 109.676 84.168 108.332 82.696C107.02 81.192 105.004 80.44 102.284 80.44C100.076 80.44 98.2043 81.032 96.6683 82.216C95.1643 83.368 94.1243 84.808 93.5483 86.536C92.8763 88.296 91.9963 89.464 90.9083 90.04C89.8203 90.616 88.2683 90.744 86.2523 90.424L78.3803 89.032Z" fill="white"/>
<defs>
<linearGradient id="paint0_linear_265_406" x1="182.5" y1="25.5" x2="58.5" y2="203" gradientUnits="userSpaceOnUse">
<stop stop-color="#1B459C"/>
<stop offset="1" stop-color="#091836"/>
</linearGradient>
</defs>
</svg>
