<svg width="203" height="203" viewBox="0 0 203 203" fill="none" xmlns="http://www.w3.org/2000/svg">
<circle cx="101.5" cy="101.5" r="101.5" fill="url(#paint0_linear_265_403)"/>
<path d="M121.004 125.56C122.604 125.56 123.868 126.008 124.796 126.904C125.724 127.768 126.188 128.92 126.188 130.36V139H77.0363V134.2C77.0363 133.272 77.2283 132.28 77.6123 131.224C77.9963 130.168 78.6683 129.208 79.6283 128.344L99.7883 108.04C101.516 106.312 103.02 104.664 104.3 103.096C105.58 101.528 106.636 99.992 107.468 98.488C108.3 96.952 108.924 95.432 109.34 93.928C109.756 92.392 109.964 90.776 109.964 89.08C109.964 86.296 109.292 84.168 107.948 82.696C106.636 81.192 104.62 80.44 101.9 80.44C99.6923 80.44 97.8203 81.032 96.2843 82.216C94.7803 83.368 93.7403 84.808 93.1643 86.536C92.4923 88.296 91.6123 89.464 90.5243 90.04C89.4363 90.616 87.8843 90.744 85.8683 90.424L77.9963 89.032C78.5083 85.544 79.4843 82.504 80.9243 79.912C82.3963 77.32 84.2043 75.16 86.3483 73.432C88.5243 71.704 91.0043 70.424 93.7883 69.592C96.5723 68.728 99.5643 68.296 102.764 68.296C106.22 68.296 109.324 68.808 112.076 69.832C114.86 70.824 117.228 72.216 119.18 74.008C121.132 75.8 122.62 77.944 123.644 80.44C124.7 82.904 125.228 85.624 125.228 88.6C125.228 91.16 124.86 93.528 124.124 95.704C123.42 97.88 122.444 99.96 121.196 101.944C119.948 103.896 118.492 105.8 116.828 107.656C115.196 109.48 113.452 111.336 111.596 113.224L97.9163 127.24C99.6763 126.696 101.42 126.28 103.148 125.992C104.876 125.704 106.476 125.56 107.948 125.56H121.004Z" fill="white"/>
<defs>
<linearGradient id="paint0_linear_265_403" x1="182.5" y1="25.5" x2="58.5" y2="203" gradientUnits="userSpaceOnUse">
<stop stop-color="#1B459C"/>
<stop offset="1" stop-color="#091836"/>
</linearGradient>
</defs>
</svg>
