<svg xmlns="http://www.w3.org/2000/svg" xmlns:xlink="http://www.w3.org/1999/xlink" width="149.311" height="41.323" viewBox="0 0 149.311 41.323">
  <defs>
    <linearGradient id="linear-gradient" x1="0.593" y1="0.005" x2="0.407" y2="0.995" gradientUnits="objectBoundingBox">
      <stop offset="0" stop-color="#3d3d3d"/>
      <stop offset="1" stop-color="#606060"/>
    </linearGradient>
    <linearGradient id="linear-gradient-2" x1="0.648" y1="0.019" x2="0.333" y2="1.043" xlink:href="#linear-gradient"/>
    <linearGradient id="linear-gradient-3" x1="0.647" y1="-0.053" x2="0.353" y2="1.053" xlink:href="#linear-gradient"/>
    <linearGradient id="linear-gradient-5" x1="0.601" y1="0.017" x2="0.381" y2="1.073" xlink:href="#linear-gradient"/>
    <linearGradient id="linear-gradient-6" x1="0.596" y1="0.003" x2="0.408" y2="0.996" xlink:href="#linear-gradient"/>
    <linearGradient id="linear-gradient-7" x1="0.463" y1="0.313" x2="0.254" y2="0.937" gradientUnits="objectBoundingBox">
      <stop offset="0" stop-color="#feb478"/>
      <stop offset="1" stop-color="#ff1c4b"/>
    </linearGradient>
    <linearGradient id="linear-gradient-8" x1="0.724" y1="-0.086" x2="0.271" y2="0.992" xlink:href="#linear-gradient-7"/>
    <linearGradient id="linear-gradient-9" x1="0.593" y1="0.005" x2="0.407" y2="0.995" xlink:href="#linear-gradient"/>
    <linearGradient id="linear-gradient-10" x1="0.177" y1="0.457" x2="0.735" y2="0.658" xlink:href="#linear-gradient"/>
    <linearGradient id="linear-gradient-11" x1="0" y1="0.5" x2="1" y2="0.5" xlink:href="#linear-gradient"/>
  </defs>
  <g id="voleegro-logo" transform="translate(-231.908 -86.575)">
    <path id="Path_1" data-name="Path 1" d="M341.182,120.175a1.652,1.652,0,1,0,1.653,1.652A1.654,1.654,0,0,0,341.182,120.175Z" fill="none"/>
    <path id="Path_2" data-name="Path 2" d="M354.033,120.175a1.652,1.652,0,1,0,1.653,1.652A1.654,1.654,0,0,0,354.033,120.175Z" fill="none"/>
    <path id="Path_3" data-name="Path 3" d="M265.641,102.646c-2.411,0-4.892,1.271-4.892,4.59a4.6,4.6,0,0,0,4.892,4.565c2.435,0,4.705-1.323,4.705-4.565A4.539,4.539,0,0,0,265.641,102.646Z" fill="none"/>
    <path id="Path_4" data-name="Path 4" d="M370.653,111.8c2.435,0,4.7-1.323,4.7-4.565a4.539,4.539,0,0,0-4.7-4.59c-2.411,0-4.892,1.271-4.892,4.59A4.6,4.6,0,0,0,370.653,111.8Z" fill="none"/>
    <path id="Path_5" data-name="Path 5" d="M327.812,102.594h-.6v3.164h.6c1.115,0,2.126-.467,2.152-1.634C329.964,103.061,328.875,102.542,327.812,102.594Z" fill="none"/>
    <path id="Path_6" data-name="Path 6" d="M370.653,117.143a9.627,9.627,0,0,0,10.557-9.881c.257-6.458-5.15-10.192-10.557-9.985a9.735,9.735,0,0,0-10.744,9.933C359.629,113.772,365.223,117.377,370.653,117.143Zm0-14.5a4.539,4.539,0,0,1,4.7,4.59c0,3.242-2.27,4.565-4.7,4.565a4.6,4.6,0,0,1-4.892-4.565C365.761,103.917,368.242,102.646,370.653,102.646Z" fill="url(#linear-gradient)"/>
    <path id="Path_7" data-name="Path 7" d="M283.512,97.9h-6.147v18.673h12.164v-5.057h-6.017Z" fill="url(#linear-gradient-2)"/>
    <path id="Path_8" data-name="Path 8" d="M304.754,111.7l-7.91-.026v-2h7.392l-.026-4.668h-7.366v-2.1l7.91.026V97.9H290.723v18.673h14.031Z" fill="url(#linear-gradient-3)"/>
    <path id="Path_9" data-name="Path 9" d="M319.926,111.7l-7.91-.026v-2h7.392l-.026-4.668h-7.366v-2.1l7.91.026V97.9H305.9v18.673h14.031Z" fill="url(#linear-gradient-3)"/>
    <path id="Path_10" data-name="Path 10" d="M332.661,109.13c2.542-.934,3.865-2.724,3.865-5.006,0-4.305-3.372-6.224-7.444-6.224h-8.014v18.673h6.147V111.23l3.916,5.343h7.859Zm-4.849-3.372h-.6v-3.164h.6c1.063-.052,2.152.467,2.152,1.53C329.938,105.291,328.927,105.758,327.812,105.758Z" fill="url(#linear-gradient-5)"/>
    <path id="Path_11" data-name="Path 11" d="M347.321,105.784v4.694l3.943-.026c-.467,1.271-1.66,1.945-3.45,1.945a3.724,3.724,0,0,1-3.034-1.4,5.109,5.109,0,0,1-1.193-3.527,5.376,5.376,0,0,1,1.141-3.657,3.714,3.714,0,0,1,3.034-1.427,4.059,4.059,0,0,1,2.36.752,3.719,3.719,0,0,1,1.479,2.257l5.783-2.36a9.524,9.524,0,0,0-9.285-5.784,11.535,11.535,0,0,0-7.365,2.334,9.126,9.126,0,0,0-3.527,7.677c0,3.372,1.089,5.939,3.267,7.677a11.267,11.267,0,0,0,7.288,2.23,11.43,11.43,0,0,0,7.392-2.256c2.179-1.815,3.19-4.487,3.06-7.962l-.026-1.141Z" fill="url(#linear-gradient-6)"/>
    <path id="Path_23" data-name="Path 23" d="M240.312,110.962a6.3,6.3,0,0,1-3.61-2.887l7.417,19.823,12.452-33.1C251.843,105.532,245.392,112.314,240.312,110.962Z" fill="url(#linear-gradient-7)"/>
    <path id="Path_24" data-name="Path 24" d="M240.312,110.962c5.08,1.352,11.531-5.43,16.259-16.167a71.736,71.736,0,0,0,2.692-7.157l.4-1.063h-7.715l-7.369,19.463-.448,1.184-.012.031,0,0c-.015.03-.031.057-.047.086a4.254,4.254,0,0,1-2,2.084,3.768,3.768,0,0,1-1.778.452A4.3,4.3,0,0,1,236.675,108l.027.07A6.3,6.3,0,0,0,240.312,110.962Z" fill="url(#linear-gradient-8)"/>
    <path id="Path_25" data-name="Path 25" d="M268.787,97.605a11.214,11.214,0,0,0-3.146-.328A9.735,9.735,0,0,0,254.9,107.21c-.28,6.562,5.314,10.167,10.744,9.933.281.023.56.031.838.03a9.6,9.6,0,0,0,9.719-9.911A9.353,9.353,0,0,0,268.787,97.605Zm-3.146,14.2a4.6,4.6,0,0,1-4.892-4.565c0-3.319,2.481-4.59,4.892-4.59a4.539,4.539,0,0,1,4.705,4.59C270.346,110.478,268.076,111.8,265.641,111.8Z" fill="url(#linear-gradient-9)"/>
    <path id="Path_26" data-name="Path 26" d="M240.074,109.32h.032a3.975,3.975,0,0,0,1.036-.147c.053-.015.108-.03.161-.048l.022-.008a4.3,4.3,0,0,0,1.81-1.261,3.672,3.672,0,0,0,.709-1.472,3.278,3.278,0,0,1-.7.38c-3.234,1.245-7.867-2.966-10.349-9.407l3.161,8.483.162.434a5.927,5.927,0,0,0,.467.9A3.866,3.866,0,0,0,240.074,109.32Z" fill="url(#linear-gradient-10)"/>
    <path id="Path_27" data-name="Path 27" d="M232.792,97.353l0,0-.018-.049Z" fill="#a9a9a9"/>
    <path id="Path_28" data-name="Path 28" d="M243.143,106.763a3.278,3.278,0,0,0,.7-.38l0-.011-1.385-3.715-1.67-4.484L239.6,94.795h-7.693l.868,2.512.018.049C235.276,103.8,239.909,108.008,243.143,106.763Z" fill="url(#linear-gradient-11)"/>
    <path id="Path_99" data-name="Path 99" d="M2.44,8.1a3.229,3.229,0,0,1-.932-.116,1.872,1.872,0,0,1-.652-.34A3.542,3.542,0,0,1,.3,7.048l.64-.536a2.24,2.24,0,0,0,.66.648,1.633,1.633,0,0,0,.828.192,1.844,1.844,0,0,0,1-.216.74.74,0,0,0,.328-.664.582.582,0,0,0-.14-.4A1.139,1.139,0,0,0,3.132,5.8,10.012,10.012,0,0,0,2.1,5.536a2.183,2.183,0,0,1-1.168-.56A1.472,1.472,0,0,1,.544,3.912,1.476,1.476,0,0,1,.792,3.06a1.582,1.582,0,0,1,.7-.56,2.7,2.7,0,0,1,1.072-.2A2.809,2.809,0,0,1,3.8,2.536a1.793,1.793,0,0,1,.756.688l-.624.512a2.3,2.3,0,0,0-.612-.524,1.563,1.563,0,0,0-.756-.164,1.224,1.224,0,0,0-.792.228.783.783,0,0,0-.28.644.634.634,0,0,0,.312.572,2.739,2.739,0,0,0,.864.316A6.6,6.6,0,0,1,3.8,5.124a1.521,1.521,0,0,1,.664.492,1.393,1.393,0,0,1,.24.856Q4.7,8.1,2.44,8.1Zm7,0a2.447,2.447,0,0,1-1.68-.52,1.929,1.929,0,0,1-.584-1.52V4.344a1.929,1.929,0,0,1,.584-1.52A2.447,2.447,0,0,1,9.44,2.3a2.431,2.431,0,0,1,1.676.52,1.936,1.936,0,0,1,.58,1.52V6.056a1.936,1.936,0,0,1-.58,1.52A2.431,2.431,0,0,1,9.44,8.1Zm0-.744a1.334,1.334,0,0,0,.972-.332,1.287,1.287,0,0,0,.34-.964V4.344a1.287,1.287,0,0,0-.34-.964,1.334,1.334,0,0,0-.972-.332,1.346,1.346,0,0,0-.98.332,1.287,1.287,0,0,0-.34.964V6.056a1.287,1.287,0,0,0,.34.964A1.346,1.346,0,0,0,9.44,7.352ZM16.3,8a1.994,1.994,0,0,1-1.436-.436,1.722,1.722,0,0,1-.444-1.284V2.4h.944V6.28a1.033,1.033,0,0,0,.228.74.945.945,0,0,0,.708.236H18.1V8Zm6.472.1a2.537,2.537,0,0,1-1.62-.452,1.524,1.524,0,0,1-.564-1.26V2.4h.944V6.384a.869.869,0,0,0,.316.728,1.845,1.845,0,0,0,1.848,0,.869.869,0,0,0,.316-.728V2.4h.944V6.384a1.524,1.524,0,0,1-.564,1.26A2.537,2.537,0,0,1,22.776,8.1Zm6.376-4.952H27.416V2.4h4.408v.744H30.1V8h-.944Zm5.32-.744h.944V8h-.944Zm6.144,5.7a2.447,2.447,0,0,1-1.68-.52,1.929,1.929,0,0,1-.584-1.52V4.344a1.929,1.929,0,0,1,.584-1.52,2.967,2.967,0,0,1,3.356,0,1.936,1.936,0,0,1,.58,1.52V6.056a1.936,1.936,0,0,1-.58,1.52A2.431,2.431,0,0,1,40.616,8.1Zm0-.744a1.334,1.334,0,0,0,.972-.332,1.287,1.287,0,0,0,.34-.964V4.344a1.287,1.287,0,0,0-.34-.964,1.6,1.6,0,0,0-1.952,0,1.287,1.287,0,0,0-.34.964V6.056a1.287,1.287,0,0,0,.34.964A1.346,1.346,0,0,0,40.616,7.352Zm9.7-4.952V6.84a1.359,1.359,0,0,1-.236.868A.905.905,0,0,1,49.328,8h-.664L46.688,3.88V8H45.8V2.4h1.08l2.28,4.792h.04a.176.176,0,0,0,.176-.108,1.04,1.04,0,0,0,.048-.38V2.4ZM55.12,8.1a3.229,3.229,0,0,1-.932-.116,1.872,1.872,0,0,1-.652-.34,3.542,3.542,0,0,1-.552-.592l.64-.536a2.24,2.24,0,0,0,.66.648,1.633,1.633,0,0,0,.828.192,1.844,1.844,0,0,0,1-.216.74.74,0,0,0,.328-.664.582.582,0,0,0-.14-.4,1.139,1.139,0,0,0-.488-.272,10.012,10.012,0,0,0-1.036-.26,2.183,2.183,0,0,1-1.168-.56,1.472,1.472,0,0,1-.384-1.064,1.476,1.476,0,0,1,.248-.852,1.582,1.582,0,0,1,.7-.56,2.7,2.7,0,0,1,1.072-.2,2.809,2.809,0,0,1,1.228.232,1.793,1.793,0,0,1,.756.688l-.624.512A2.3,2.3,0,0,0,56,3.212a1.563,1.563,0,0,0-.756-.164,1.224,1.224,0,0,0-.792.228.783.783,0,0,0-.28.644.634.634,0,0,0,.312.572,2.739,2.739,0,0,0,.864.316,6.6,6.6,0,0,1,1.136.316,1.521,1.521,0,0,1,.664.492,1.393,1.393,0,0,1,.24.856Q57.384,8.1,55.12,8.1Z" transform="translate(321 117)" fill="#a9a9a9"/>
  </g>
</svg>
