<svg width="21" height="29" viewBox="0 0 21 29" fill="none" xmlns="http://www.w3.org/2000/svg">
<path d="M14.9361 20.1526L16.2511 18.0189L18.6241 17.2096L18.887 14.7172L20.6724 12.9596L19.8235 10.6004L20.6724 8.24112L18.887 6.48349L18.6241 3.99119L16.2511 3.18188L14.9362 1.04806L12.449 1.34837L10.3362 0L8.22338 1.34848L5.73624 1.04818L4.42129 3.18193L2.04828 3.99125L1.78538 6.48355L0 8.24118L0.848852 10.6004L0 12.9597L1.78532 14.7173L2.04822 17.2096L4.42123 18.0189L5.73618 20.1527L8.22338 19.8524L10.3362 21.2009L12.449 19.8524L14.9361 20.1526ZM3.06702 10.6004C3.06702 6.59223 6.32798 3.33127 10.3362 3.33127C14.3444 3.33127 17.6053 6.59223 17.6053 10.6004C17.6053 14.6086 14.3444 17.8696 10.3362 17.8696C6.32798 17.8696 3.06702 14.6086 3.06702 10.6004Z" fill="#647DF7"/>
<path d="M10.3364 5.01724C7.25778 5.01724 4.75317 7.52185 4.75317 10.6004C4.75317 13.679 7.25778 16.1836 10.3364 16.1836C13.415 16.1836 15.9196 13.679 15.9196 10.6004C15.9196 7.52185 13.415 5.01724 10.3364 5.01724Z" fill="#647DF7"/>
<path d="M7.82547 21.5986L4.86678 21.9558L3.30359 19.4191L2.77217 19.2379L0.47998 26.4024L4.60658 26.1755L7.83513 28.7556L9.73502 22.8174L7.82547 21.5986Z" fill="#647DF7"/>
<path d="M17.3687 19.4192L15.8054 21.9558L12.8468 21.5986L10.9373 22.8174L12.8371 28.7556L16.0657 26.1755L20.1923 26.4024L17.9001 19.2379L17.3687 19.4192Z" fill="#647DF7"/>
</svg>
