<svg width="21" height="26" viewBox="0 0 21 26" fill="none" xmlns="http://www.w3.org/2000/svg">
<path d="M9.24379 4.09913L7.28982 0.398854C7.16028 0.153536 6.90564 0 6.62819 0H0.748239C0.485961 0 0.242837 0.137324 0.107409 0.361942C-0.0279704 0.586559 -0.0359016 0.865697 0.0866079 1.09765L4.09769 8.69368C5.17544 7.90989 6.41315 7.33346 7.75223 7.02459L9.24379 4.09913Z" fill="#647DF7"/>
<path d="M19.3516 0H13.4717C13.1904 0 12.9329 0.157776 12.8051 0.408381L9.55737 6.77832C9.71141 6.77129 9.86619 6.76725 10.0219 6.76725C12.2965 6.76725 14.3975 7.52366 16.0874 8.79773L20.0182 1.08807C20.1365 0.85612 20.1257 0.579326 19.9897 0.357352C19.8536 0.135329 19.612 0 19.3516 0Z" fill="#647DF7"/>
<path d="M10.0221 8.26372C5.2806 8.26372 1.4231 12.1212 1.4231 16.8627C1.4231 21.6042 5.2806 25.4617 10.0221 25.4617C14.7636 25.4617 18.6211 21.6042 18.6211 16.8627C18.6211 12.1212 14.7636 8.26372 10.0221 8.26372ZM10.0221 22.5341C6.93777 22.5341 4.42847 20.0248 4.42847 16.9404C4.42847 13.8561 6.93777 11.3468 10.0221 11.3468C13.1064 11.3468 15.6157 13.8561 15.6157 16.9404C15.6157 20.0248 13.1064 22.5341 10.0221 22.5341Z" fill="#647DF7"/>
<path d="M13.8142 18.5135C14.6808 16.4226 13.6884 14.0251 11.5976 13.1585C9.50674 12.2918 7.10922 13.2842 6.24256 15.375C5.3759 17.4659 6.3683 19.8634 8.45914 20.73C10.55 21.5967 12.9475 20.6043 13.8142 18.5135Z" fill="#647DF7"/>
</svg>
